{"glyphs":{"0":{"ha":781,"x_min":57,"x_max":724,"o":"m 391 -11 q 209 41 283 -11 q 96 193 134 93 q 57 439 57 294 l 57 553 q 96 803 57 701 q 209 958 134 905 q 391 1010 283 1010 q 573 958 498 1010 q 686 803 648 905 q 724 553 724 701 l 724 439 q 686 193 724 294 q 573 41 648 93 q 391 -11 498 -11 m 391 203 q 446 227 424 203 q 480 294 469 250 q 491 400 491 338 l 491 600 q 480 705 491 661 q 446 773 469 749 q 391 796 424 796 q 336 773 358 796 q 302 706 313 750 q 290 600 290 662 l 290 400 q 302 294 290 338 q 336 227 313 250 q 391 203 358 203 m 232 256 l 141 404 l 553 739 l 640 595 l 232 256 z "},"1":{"ha":781,"x_min":103,"x_max":701,"o":"m 304 0 l 304 777 l 349 734 l 107 633 l 107 864 l 475 1000 l 540 1000 l 540 0 l 304 0 m 103 0 l 103 206 l 701 206 l 701 0 l 103 0 z "},"2":{"ha":781,"x_min":54,"x_max":728,"o":"m 72 0 l 72 50 l 327 392 q 402 494 364 442 q 467 595 441 545 q 492 689 492 644 q 480 742 492 718 q 447 780 468 766 q 397 793 425 793 q 344 778 367 793 q 308 734 321 762 q 296 670 296 707 l 54 670 q 100 847 56 770 q 223 967 145 924 q 401 1010 300 1010 q 569 971 495 1010 q 686 864 643 932 q 728 705 728 795 q 701 564 728 629 q 627 436 673 498 q 528 307 581 374 l 458 220 l 458 214 l 578 217 l 728 217 l 728 0 l 72 0 z "},"3":{"ha":781,"x_min":46,"x_max":736,"o":"m 391 -11 q 216 26 294 -11 q 93 131 138 64 q 46 286 47 197 l 282 286 q 301 234 282 255 q 347 203 319 214 q 400 193 374 193 q 453 207 430 193 q 489 245 476 220 q 502 302 502 270 q 488 359 502 334 q 443 399 473 384 q 363 414 413 414 l 304 414 l 307 597 l 368 597 q 432 611 408 597 q 469 651 457 626 q 480 708 480 676 q 470 761 480 739 q 441 795 460 783 q 392 807 422 807 q 345 797 366 807 q 312 767 324 786 q 300 722 300 747 l 77 722 q 117 871 76 806 q 231 974 158 937 q 397 1010 304 1010 q 565 972 494 1010 q 674 869 635 933 q 712 731 712 806 q 673 595 712 653 q 564 504 633 536 q 404 472 495 472 l 404 541 q 576 512 501 543 q 694 422 651 481 q 736 278 736 362 q 691 131 736 196 q 568 27 646 65 q 391 -11 490 -11 z "},"4":{"ha":781,"x_min":19,"x_max":770,"o":"m 448 0 l 448 536 l 456 713 l 452 713 l 350 549 l 256 395 l 256 392 l 770 392 l 770 191 l 19 191 l 19 331 l 460 1000 l 677 1000 l 677 0 l 448 0 z "},"5":{"ha":781,"x_min":54,"x_max":732,"o":"m 385 -11 q 245 15 312 -11 q 127 84 178 40 q 54 186 77 129 l 275 281 q 303 241 286 258 q 344 213 321 223 q 391 203 367 203 q 451 220 425 203 q 492 264 477 236 q 507 330 507 293 q 491 392 507 365 q 447 435 475 419 q 382 450 418 450 q 344 444 363 450 q 309 428 325 438 q 283 403 293 417 l 92 430 l 92 1000 l 648 1000 l 648 783 l 317 783 l 317 514 l 267 589 q 334 625 290 611 q 426 639 379 639 q 584 598 515 639 q 693 485 653 557 q 732 321 732 414 q 687 150 732 225 q 564 32 642 75 q 385 -11 486 -11 z "},"6":{"ha":781,"x_min":41,"x_max":742,"o":"m 399 -11 q 215 36 296 -11 q 87 159 134 82 q 41 326 41 235 q 56 435 41 381 q 93 533 72 490 q 127 600 113 576 l 377 1000 l 637 1000 l 387 600 l 365 614 q 391 630 372 624 q 441 636 410 636 q 588 596 519 636 q 699 484 656 556 q 742 316 742 412 q 697 145 742 219 q 574 31 652 72 q 399 -11 496 -11 m 392 197 q 456 214 428 197 q 500 259 484 231 q 517 324 517 288 q 500 388 517 360 q 456 432 484 416 q 392 448 428 448 q 328 431 357 448 q 283 387 300 415 q 266 324 266 359 q 282 261 266 290 q 328 214 299 232 q 392 197 356 197 z "},"7":{"ha":781,"x_min":33,"x_max":749,"o":"m 106 0 l 434 776 l 434 783 l 33 783 l 33 1000 l 749 1000 l 749 962 l 359 0 l 106 0 z "},"8":{"ha":781,"x_min":38,"x_max":743,"o":"m 392 -11 q 213 27 293 -11 q 85 132 132 66 q 38 283 38 199 q 85 435 38 368 q 213 539 132 501 q 392 578 293 578 q 570 539 490 578 q 696 435 650 501 q 743 283 743 368 q 696 132 743 199 q 570 27 650 66 q 392 -11 490 -11 m 392 184 q 454 199 426 184 q 500 240 483 214 q 517 297 517 265 q 499 357 517 331 q 454 399 482 384 q 392 414 425 414 q 329 399 357 414 q 283 357 300 384 q 266 297 266 331 q 283 240 266 265 q 328 199 300 214 q 392 184 357 184 m 391 433 q 231 474 301 433 q 121 583 161 515 q 81 731 81 650 q 123 877 81 814 q 235 975 165 940 q 392 1010 306 1010 q 543 977 473 1010 q 656 881 613 943 q 700 731 700 819 q 660 583 700 650 q 550 474 620 515 q 391 433 480 433 m 392 597 q 448 612 422 597 q 487 653 473 627 q 502 711 502 679 q 486 767 502 743 q 446 806 471 792 q 392 821 420 821 q 337 806 363 821 q 295 767 311 792 q 279 711 279 743 q 295 653 279 679 q 335 612 310 627 q 392 597 361 597 z "},"9":{"ha":781,"x_min":39,"x_max":741,"o":"m 382 1010 q 567 964 486 1010 q 694 841 648 918 q 741 674 741 764 q 725 564 741 618 q 689 467 709 510 q 654 400 669 424 l 404 0 l 144 0 l 395 400 l 416 385 q 391 370 410 376 q 340 363 372 363 q 194 404 262 363 q 82 515 125 444 q 39 684 39 587 q 84 854 39 781 q 207 969 130 928 q 382 1010 285 1010 m 389 803 q 325 786 353 803 q 281 740 297 769 q 264 675 264 711 q 281 612 264 640 q 325 568 297 584 q 389 552 353 552 q 453 568 425 552 q 498 612 481 585 q 515 675 515 640 q 499 739 515 710 q 454 786 482 768 q 389 803 425 803 z "},"A":{"ha":781,"x_min":-5,"x_max":787,"o":"m -5 0 l 269 1000 l 513 1000 l 787 0 l 536 0 l 483 244 l 465 342 l 393 713 l 388 713 l 316 342 l 298 244 l 245 0 l -5 0 m 193 183 l 193 387 l 589 387 l 589 183 l 193 183 z "},"Á":{"ha":781,"x_min":-5,"x_max":787,"o":"m -5 0 l 269 1000 l 513 1000 l 787 0 l 536 0 l 483 244 l 465 342 l 393 713 l 388 713 l 316 342 l 298 244 l 245 0 l -5 0 m 193 183 l 193 387 l 589 387 l 589 183 l 193 183 m 391 1047 l 293 1145 l 532 1355 l 643 1208 l 391 1047 z "},"Ă":{"ha":781,"x_min":-5,"x_max":787,"o":"m -5 0 l 269 1000 l 513 1000 l 787 0 l 536 0 l 483 244 l 465 342 l 393 713 l 388 713 l 316 342 l 298 244 l 245 0 l -5 0 m 193 183 l 193 387 l 589 387 l 589 183 l 193 183 m 391 1063 q 259 1089 319 1063 q 162 1165 199 1114 q 125 1291 125 1215 l 266 1291 q 307 1213 267 1236 q 391 1190 347 1190 q 477 1213 439 1190 q 514 1291 516 1236 l 658 1291 q 621 1165 659 1215 q 523 1089 584 1114 q 391 1063 461 1063 z "},"Ắ":{"ha":781,"x_min":-5,"x_max":787,"o":"m -5 0 l 269 1000 l 513 1000 l 787 0 l 536 0 l 483 244 l 465 342 l 393 713 l 388 713 l 316 342 l 298 244 l 245 0 l -5 0 m 193 183 l 193 387 l 589 387 l 589 183 l 193 183 m 373 1249 l 292 1358 l 525 1552 l 628 1408 l 373 1249 m 391 1061 q 250 1088 310 1061 q 158 1167 191 1116 q 125 1286 125 1217 l 270 1286 q 303 1211 270 1239 q 391 1183 336 1183 q 481 1211 448 1183 q 515 1286 515 1239 l 656 1286 q 624 1167 656 1217 q 531 1088 591 1116 q 391 1061 471 1061 z "},"Ặ":{"ha":781,"x_min":-5,"x_max":787,"o":"m -5 0 l 269 1000 l 513 1000 l 787 0 l 536 0 l 483 244 l 465 342 l 393 713 l 388 713 l 316 342 l 298 244 l 245 0 l -5 0 m 193 183 l 193 387 l 589 387 l 589 183 l 193 183 m 389 -357 q 288 -315 330 -357 q 247 -214 247 -274 q 288 -113 247 -153 q 389 -72 330 -72 q 491 -113 450 -72 q 532 -214 532 -153 q 491 -315 532 -274 q 389 -357 450 -357 m 391 1063 q 259 1089 319 1063 q 162 1165 199 1114 q 125 1291 125 1215 l 266 1291 q 307 1213 267 1236 q 391 1190 347 1190 q 477 1213 439 1190 q 514 1291 516 1236 l 658 1291 q 621 1165 659 1215 q 523 1089 584 1114 q 391 1063 461 1063 z "},"Ằ":{"ha":781,"x_min":-5,"x_max":787,"o":"m -5 0 l 269 1000 l 513 1000 l 787 0 l 536 0 l 483 244 l 465 342 l 393 713 l 388 713 l 316 342 l 298 244 l 245 0 l -5 0 m 193 183 l 193 387 l 589 387 l 589 183 l 193 183 m 408 1249 l 153 1408 l 256 1552 l 490 1358 l 408 1249 m 391 1061 q 250 1088 310 1061 q 158 1167 191 1116 q 125 1286 125 1217 l 266 1286 q 300 1211 266 1239 q 391 1183 334 1183 q 478 1211 446 1183 q 511 1286 511 1239 l 656 1286 q 624 1167 656 1217 q 531 1088 591 1116 q 391 1061 471 1061 z "},"Ẳ":{"ha":781,"x_min":-5,"x_max":787,"o":"m -5 0 l 269 1000 l 513 1000 l 787 0 l 536 0 l 483 244 l 465 342 l 393 713 l 388 713 l 316 342 l 298 244 l 245 0 l -5 0 m 193 183 l 193 387 l 589 387 l 589 183 l 193 183 m 391 1061 q 250 1088 310 1061 q 158 1167 191 1116 q 125 1286 125 1217 l 266 1286 q 300 1211 266 1239 q 391 1183 334 1183 q 478 1211 446 1183 q 511 1286 511 1239 l 656 1286 q 624 1167 656 1217 q 531 1088 591 1116 q 391 1061 471 1061 m 391 1226 l 307 1308 q 339 1337 324 1321 q 354 1371 354 1352 q 338 1398 354 1389 q 290 1408 321 1408 q 258 1406 279 1408 q 222 1396 238 1403 l 222 1533 q 266 1545 235 1541 q 321 1549 296 1549 q 448 1512 400 1549 q 495 1405 495 1476 q 461 1293 495 1340 q 391 1226 428 1246 z "},"Ẵ":{"ha":781,"x_min":-5,"x_max":787,"o":"m -5 0 l 269 1000 l 513 1000 l 787 0 l 536 0 l 483 244 l 465 342 l 393 713 l 388 713 l 316 342 l 298 244 l 245 0 l -5 0 m 193 183 l 193 387 l 589 387 l 589 183 l 193 183 m 187 1331 q 231 1487 187 1426 q 354 1549 274 1549 q 419 1537 393 1549 q 464 1510 446 1526 q 498 1483 482 1495 q 532 1472 513 1472 q 567 1493 556 1472 q 576 1549 578 1514 l 720 1549 q 701 1439 721 1489 q 642 1360 680 1390 q 551 1331 604 1331 q 486 1342 512 1331 q 443 1369 460 1354 q 409 1396 425 1385 q 373 1408 393 1408 q 340 1388 350 1408 q 328 1331 330 1369 l 187 1331 m 453 1061 q 313 1088 372 1061 q 220 1167 253 1116 q 187 1286 187 1217 l 328 1286 q 362 1211 328 1239 q 453 1183 396 1183 q 541 1211 508 1183 q 574 1286 574 1239 l 719 1286 q 686 1167 719 1217 q 593 1088 653 1116 q 453 1061 534 1061 z "},"Ǎ":{"ha":781,"x_min":-5,"x_max":787,"o":"m -5 0 l 269 1000 l 513 1000 l 787 0 l 536 0 l 483 244 l 465 342 l 393 713 l 388 713 l 316 342 l 298 244 l 245 0 l -5 0 m 193 183 l 193 387 l 589 387 l 589 183 l 193 183 m 225 1328 l 388 1203 l 391 1203 l 559 1328 l 661 1219 l 412 1047 l 368 1047 l 119 1219 l 225 1328 z "},"Â":{"ha":781,"x_min":-5,"x_max":787,"o":"m -5 0 l 269 1000 l 513 1000 l 787 0 l 536 0 l 483 244 l 465 342 l 393 713 l 388 713 l 316 342 l 298 244 l 245 0 l -5 0 m 193 183 l 193 387 l 589 387 l 589 183 l 193 183 m 225 1050 l 119 1158 l 368 1331 l 412 1331 l 661 1158 l 559 1050 l 391 1175 l 388 1175 l 225 1050 z "},"Ấ":{"ha":781,"x_min":-5,"x_max":859,"o":"m -5 0 l 269 1000 l 513 1000 l 787 0 l 536 0 l 483 244 l 465 342 l 393 713 l 388 713 l 316 342 l 298 244 l 245 0 l -5 0 m 193 183 l 193 387 l 589 387 l 589 183 l 193 183 m 628 1244 l 525 1316 l 749 1549 l 859 1400 l 628 1244 m 227 1039 l 121 1146 l 369 1316 l 414 1316 l 662 1146 l 560 1039 l 392 1164 l 389 1164 l 227 1039 z "},"Ậ":{"ha":781,"x_min":-5,"x_max":787,"o":"m -5 0 l 269 1000 l 513 1000 l 787 0 l 536 0 l 483 244 l 465 342 l 393 713 l 388 713 l 316 342 l 298 244 l 245 0 l -5 0 m 193 183 l 193 387 l 589 387 l 589 183 l 193 183 m 389 -357 q 288 -315 330 -357 q 247 -214 247 -274 q 288 -113 247 -153 q 389 -72 330 -72 q 491 -113 450 -72 q 532 -214 532 -153 q 491 -315 532 -274 q 389 -357 450 -357 m 225 1050 l 119 1158 l 368 1331 l 412 1331 l 661 1158 l 559 1050 l 391 1175 l 388 1175 l 225 1050 z "},"Ầ":{"ha":781,"x_min":-77,"x_max":787,"o":"m -5 0 l 269 1000 l 513 1000 l 787 0 l 536 0 l 483 244 l 465 342 l 393 713 l 388 713 l 316 342 l 298 244 l 245 0 l -5 0 m 193 183 l 193 387 l 589 387 l 589 183 l 193 183 m 153 1244 l -77 1400 l 33 1549 l 256 1316 l 153 1244 m 555 1039 l 392 1164 l 389 1164 l 221 1039 l 119 1146 l 368 1316 l 412 1316 l 661 1146 l 555 1039 z "},"Ẩ":{"ha":781,"x_min":-5,"x_max":787,"o":"m -5 0 l 269 1000 l 513 1000 l 787 0 l 536 0 l 483 244 l 465 342 l 393 713 l 388 713 l 316 342 l 298 244 l 245 0 l -5 0 m 193 183 l 193 387 l 589 387 l 589 183 l 193 183 m 609 1246 l 528 1308 q 560 1338 548 1323 q 572 1369 572 1354 q 556 1398 572 1388 q 506 1408 540 1408 q 475 1406 491 1408 q 439 1397 460 1403 l 439 1535 q 485 1546 454 1543 q 541 1549 517 1549 q 665 1514 618 1549 q 712 1402 712 1480 q 695 1335 712 1365 q 655 1282 679 1304 q 609 1246 631 1259 m 227 1039 l 121 1146 l 369 1316 l 414 1316 l 662 1146 l 560 1039 l 392 1164 l 389 1164 l 227 1039 z "},"Ẫ":{"ha":781,"x_min":-5,"x_max":787,"o":"m -5 0 l 269 1000 l 513 1000 l 787 0 l 536 0 l 483 244 l 465 342 l 393 713 l 388 713 l 316 342 l 298 244 l 245 0 l -5 0 m 193 183 l 193 387 l 589 387 l 589 183 l 193 183 m 125 1331 q 167 1488 122 1426 q 292 1549 212 1549 q 356 1537 330 1549 q 400 1510 382 1526 q 434 1483 418 1495 q 469 1472 450 1472 q 502 1494 491 1472 q 514 1549 513 1516 l 658 1549 q 642 1439 659 1489 q 592 1360 626 1390 q 506 1331 559 1331 q 441 1342 467 1331 q 397 1369 415 1354 q 365 1396 380 1385 q 332 1408 350 1408 q 286 1388 304 1408 q 266 1331 267 1369 l 125 1331 m 225 1039 l 119 1146 l 368 1316 l 412 1316 l 661 1146 l 559 1039 l 391 1164 l 388 1164 l 225 1039 z "},"Ȁ":{"ha":781,"x_min":-5,"x_max":787,"o":"m -5 0 l 269 1000 l 513 1000 l 787 0 l 536 0 l 483 244 l 465 342 l 393 713 l 388 713 l 316 342 l 298 244 l 245 0 l -5 0 m 193 183 l 193 387 l 589 387 l 589 183 l 193 183 m 202 1055 l 20 1275 l 176 1362 l 320 1114 l 202 1055 m 476 1055 l 300 1275 l 454 1362 l 595 1114 l 476 1055 z "},"Ä":{"ha":781,"x_min":-5,"x_max":787,"o":"m -5 0 l 269 1000 l 513 1000 l 787 0 l 536 0 l 483 244 l 465 342 l 393 713 l 388 713 l 316 342 l 298 244 l 245 0 l -5 0 m 193 183 l 193 387 l 589 387 l 589 183 l 193 183 m 563 1044 q 468 1080 505 1044 q 431 1172 431 1116 q 468 1265 431 1228 q 563 1302 505 1302 q 653 1265 617 1302 q 689 1172 688 1228 q 653 1080 688 1116 q 563 1044 617 1044 m 224 1044 q 132 1080 168 1044 q 96 1172 96 1116 q 132 1265 96 1228 q 224 1302 168 1302 q 317 1265 280 1302 q 354 1172 354 1228 q 317 1080 354 1116 q 224 1044 280 1044 z "},"Ȧ":{"ha":781,"x_min":-5,"x_max":787,"o":"m -5 0 l 269 1000 l 513 1000 l 787 0 l 536 0 l 483 244 l 465 342 l 393 713 l 388 713 l 316 342 l 298 244 l 245 0 l -5 0 m 193 183 l 193 387 l 589 387 l 589 183 l 193 183 m 389 1057 q 288 1098 330 1057 q 247 1199 247 1139 q 288 1301 247 1260 q 389 1341 330 1341 q 491 1301 450 1341 q 532 1199 532 1260 q 491 1098 532 1139 q 389 1057 450 1057 z "},"Ạ":{"ha":781,"x_min":-5,"x_max":787,"o":"m -5 0 l 269 1000 l 513 1000 l 787 0 l 536 0 l 483 244 l 465 342 l 393 713 l 388 713 l 316 342 l 298 244 l 245 0 l -5 0 m 193 183 l 193 387 l 589 387 l 589 183 l 193 183 m 389 -357 q 288 -315 330 -357 q 247 -214 247 -274 q 288 -113 247 -153 q 389 -72 330 -72 q 491 -113 450 -72 q 532 -214 532 -153 q 491 -315 532 -274 q 389 -357 450 -357 z "},"À":{"ha":781,"x_min":-5,"x_max":787,"o":"m -5 0 l 269 1000 l 513 1000 l 787 0 l 536 0 l 483 244 l 465 342 l 393 713 l 388 713 l 316 342 l 298 244 l 245 0 l -5 0 m 193 183 l 193 387 l 589 387 l 589 183 l 193 183 m 391 1047 l 138 1208 l 250 1355 l 488 1145 l 391 1047 z "},"Ả":{"ha":781,"x_min":-5,"x_max":787,"o":"m -5 0 l 269 1000 l 513 1000 l 787 0 l 536 0 l 483 244 l 465 342 l 393 713 l 388 713 l 316 342 l 298 244 l 245 0 l -5 0 m 193 183 l 193 387 l 589 387 l 589 183 l 193 183 m 416 1044 l 332 1126 q 365 1155 350 1139 q 380 1190 380 1171 q 363 1217 380 1207 q 316 1226 347 1226 q 284 1224 304 1226 q 248 1214 264 1221 l 248 1351 q 291 1363 261 1359 q 347 1367 321 1367 q 473 1331 426 1367 q 521 1223 521 1294 q 487 1111 521 1158 q 416 1044 454 1064 z "},"Ȃ":{"ha":781,"x_min":-5,"x_max":787,"o":"m -5 0 l 269 1000 l 513 1000 l 787 0 l 536 0 l 483 244 l 465 342 l 393 713 l 388 713 l 316 342 l 298 244 l 245 0 l -5 0 m 193 183 l 193 387 l 589 387 l 589 183 l 193 183 m 389 1293 q 521 1267 460 1293 q 620 1191 583 1242 q 656 1065 657 1141 l 513 1065 q 476 1144 515 1121 q 389 1166 437 1166 q 306 1144 346 1166 q 264 1065 266 1121 l 123 1065 q 160 1191 123 1141 q 258 1267 197 1242 q 389 1293 318 1293 z "},"Ā":{"ha":781,"x_min":-5,"x_max":787,"o":"m -5 0 l 269 1000 l 513 1000 l 787 0 l 536 0 l 483 244 l 465 342 l 393 713 l 388 713 l 316 342 l 298 244 l 245 0 l -5 0 m 193 183 l 193 387 l 589 387 l 589 183 l 193 183 m 117 1095 l 117 1251 l 663 1251 l 663 1095 l 117 1095 z "},"Ą":{"ha":781,"x_min":-5,"x_max":787,"o":"m -5 0 l 269 1000 l 513 1000 l 787 0 l 536 0 l 483 244 l 465 342 l 393 713 l 388 713 l 316 342 l 298 244 l 245 0 l -5 0 m 193 183 l 193 387 l 589 387 l 589 183 l 193 183 m 675 -297 q 561 -258 605 -297 q 517 -153 517 -219 q 555 -51 517 -96 q 666 37 594 -6 l 787 0 q 723 -41 752 -21 q 677 -82 694 -62 q 661 -125 661 -103 q 674 -154 661 -144 q 718 -164 688 -164 q 754 -160 734 -164 q 784 -151 774 -157 l 784 -281 q 730 -293 764 -289 q 675 -297 696 -297 z "},"Å":{"ha":781,"x_min":-5,"x_max":787,"o":"m -5 0 l 269 1000 l 513 1000 l 787 0 l 536 0 l 483 244 l 465 342 l 393 713 l 388 713 l 316 342 l 298 244 l 245 0 l -5 0 m 193 183 l 193 387 l 589 387 l 589 183 l 193 183 m 391 1044 q 292 1070 336 1044 q 221 1139 248 1095 q 195 1236 195 1182 q 221 1336 195 1292 q 292 1406 248 1380 q 391 1431 336 1431 q 491 1406 447 1431 q 562 1336 536 1380 q 587 1236 587 1292 q 562 1139 587 1182 q 491 1070 536 1095 q 391 1044 447 1044 m 391 1169 q 436 1189 418 1169 q 454 1236 454 1208 q 436 1285 456 1267 q 391 1303 417 1303 q 348 1285 366 1303 q 328 1236 330 1267 q 346 1189 328 1209 q 391 1169 363 1169 z "},"Ǻ":{"ha":781,"x_min":-5,"x_max":787,"o":"m -5 0 l 269 1000 l 513 1000 l 787 0 l 536 0 l 483 244 l 465 342 l 393 713 l 388 713 l 316 342 l 298 244 l 245 0 l -5 0 m 193 183 l 193 387 l 589 387 l 589 183 l 193 183 m 391 1042 q 264 1089 315 1042 q 213 1207 213 1137 q 264 1325 213 1278 q 391 1373 315 1373 q 518 1325 467 1373 q 568 1207 568 1278 q 518 1089 568 1137 q 391 1042 467 1042 m 391 1145 q 434 1163 417 1145 q 452 1208 452 1182 q 435 1252 452 1234 q 391 1270 418 1270 q 348 1252 366 1270 q 330 1207 330 1235 q 348 1163 330 1182 q 391 1145 366 1145 m 433 1408 l 335 1506 l 574 1716 l 685 1569 l 433 1408 z "},"Ã":{"ha":781,"x_min":-5,"x_max":787,"o":"m -5 0 l 269 1000 l 513 1000 l 787 0 l 536 0 l 483 244 l 465 342 l 393 713 l 388 713 l 316 342 l 298 244 l 245 0 l -5 0 m 193 183 l 193 387 l 589 387 l 589 183 l 193 183 m 125 1063 q 168 1219 125 1157 q 292 1280 212 1280 q 358 1269 332 1280 q 402 1243 385 1258 q 436 1217 420 1228 q 469 1206 451 1206 q 505 1227 494 1206 q 517 1280 517 1249 l 658 1280 q 615 1126 659 1189 q 488 1063 571 1063 q 424 1075 450 1063 q 380 1103 398 1087 q 347 1130 362 1118 q 312 1142 331 1142 q 277 1121 288 1142 q 267 1063 267 1100 l 125 1063 z "},"Æ":{"ha":781,"x_min":8,"x_max":751,"o":"m 8 0 l 231 1000 l 441 1000 l 441 798 l 363 798 l 278 311 l 279 235 l 227 0 l 8 0 m 182 194 l 182 385 l 498 385 l 498 194 l 182 194 m 393 0 l 391 308 l 391 334 l 380 1000 l 751 1000 l 751 792 l 568 792 l 579 208 l 751 208 l 751 0 l 393 0 m 557 404 l 557 605 l 728 605 l 728 404 l 557 404 z "},"Ǽ":{"ha":781,"x_min":8,"x_max":751,"o":"m 8 0 l 231 1000 l 441 1000 l 441 798 l 363 798 l 278 311 l 279 235 l 227 0 l 8 0 m 182 194 l 182 385 l 498 385 l 498 194 l 182 194 m 393 0 l 391 308 l 391 334 l 380 1000 l 751 1000 l 751 792 l 568 792 l 579 208 l 751 208 l 751 0 l 393 0 m 557 404 l 557 605 l 728 605 l 728 404 l 557 404 m 486 1047 l 388 1145 l 627 1355 l 738 1208 l 486 1047 z "},"B":{"ha":781,"x_min":46,"x_max":754,"o":"m 267 0 l 267 217 l 437 217 q 495 246 473 217 q 517 320 517 275 q 495 388 517 362 q 437 414 473 414 l 270 414 l 270 597 l 392 597 q 428 609 412 597 q 451 642 443 621 q 460 692 460 664 q 441 757 460 732 q 392 783 422 783 l 270 783 l 270 1000 l 384 1000 q 551 966 483 1000 q 655 875 620 932 q 690 745 690 817 q 668 632 690 685 q 610 541 646 580 q 533 486 574 503 l 533 547 q 638 509 587 537 q 722 428 689 480 q 754 294 754 376 q 716 141 754 207 q 613 37 678 75 q 465 0 547 0 l 267 0 m 46 0 l 46 1000 l 288 1000 l 288 0 l 46 0 z "},"C":{"ha":781,"x_min":35,"x_max":743,"o":"m 503 -11 q 258 54 363 -11 q 94 234 153 119 q 35 502 35 350 q 93 767 35 653 q 252 946 150 882 q 491 1010 355 1010 q 620 988 550 1010 q 741 930 689 966 l 648 708 q 581 762 625 741 q 492 783 538 783 q 380 747 428 783 q 306 648 332 711 q 279 502 279 585 q 307 353 279 418 q 385 253 335 289 q 502 217 435 217 q 587 236 546 217 q 651 286 629 256 l 743 64 q 628 10 695 31 q 503 -11 562 -11 z "},"Ć":{"ha":781,"x_min":35,"x_max":743,"o":"m 503 -11 q 258 54 363 -11 q 94 234 153 119 q 35 502 35 350 q 93 767 35 653 q 252 946 150 882 q 491 1010 355 1010 q 620 988 550 1010 q 741 930 689 966 l 648 708 q 581 762 625 741 q 492 783 538 783 q 380 747 428 783 q 306 648 332 711 q 279 502 279 585 q 307 353 279 418 q 385 253 335 289 q 502 217 435 217 q 587 236 546 217 q 651 286 629 256 l 743 64 q 628 10 695 31 q 503 -11 562 -11 m 472 1047 l 374 1145 l 613 1355 l 724 1208 l 472 1047 z "},"Č":{"ha":781,"x_min":35,"x_max":743,"o":"m 503 -11 q 258 54 363 -11 q 94 234 153 119 q 35 502 35 350 q 93 767 35 653 q 252 946 150 882 q 491 1010 355 1010 q 620 988 550 1010 q 741 930 689 966 l 648 708 q 581 762 625 741 q 492 783 538 783 q 380 747 428 783 q 306 648 332 711 q 279 502 279 585 q 307 353 279 418 q 385 253 335 289 q 502 217 435 217 q 587 236 546 217 q 651 286 629 256 l 743 64 q 628 10 695 31 q 503 -11 562 -11 m 307 1328 l 469 1203 l 472 1203 l 640 1328 l 742 1219 l 494 1047 l 449 1047 l 201 1219 l 307 1328 z "},"Ç":{"ha":781,"x_min":35,"x_max":743,"o":"m 503 -11 q 258 54 363 -11 q 94 234 153 119 q 35 502 35 350 q 93 767 35 653 q 252 946 150 882 q 491 1010 355 1010 q 620 988 550 1010 q 741 930 689 966 l 648 708 q 581 762 625 741 q 492 783 538 783 q 380 747 428 783 q 306 648 332 711 q 279 502 279 585 q 307 353 279 418 q 385 253 335 289 q 502 217 435 217 q 587 236 546 217 q 651 286 629 256 l 743 64 q 628 10 695 31 q 503 -11 562 -11 m 366 -355 l 366 -241 q 468 -228 438 -243 q 498 -189 498 -212 q 473 -157 498 -170 q 400 -138 448 -143 l 446 0 l 544 0 l 503 -111 l 496 -61 q 597 -106 558 -72 q 636 -199 636 -141 q 572 -313 636 -269 q 366 -355 508 -357 z "},"Ḉ":{"ha":781,"x_min":35,"x_max":743,"o":"m 503 -11 q 258 54 363 -11 q 94 234 153 119 q 35 502 35 350 q 93 767 35 653 q 252 946 150 882 q 491 1010 355 1010 q 620 988 550 1010 q 741 930 689 966 l 648 708 q 581 762 625 741 q 492 783 538 783 q 380 747 428 783 q 306 648 332 711 q 279 502 279 585 q 307 353 279 418 q 385 253 335 289 q 502 217 435 217 q 587 236 546 217 q 651 286 629 256 l 743 64 q 628 10 695 31 q 503 -11 562 -11 m 366 -355 l 366 -241 q 468 -228 438 -243 q 498 -189 498 -212 q 473 -157 498 -170 q 400 -138 448 -143 l 446 0 l 544 0 l 503 -111 l 496 -61 q 597 -106 558 -72 q 636 -199 636 -141 q 572 -313 636 -269 q 366 -355 508 -357 m 472 1047 l 374 1145 l 613 1355 l 724 1208 l 472 1047 z "},"Ĉ":{"ha":781,"x_min":35,"x_max":743,"o":"m 503 -11 q 258 54 363 -11 q 94 234 153 119 q 35 502 35 350 q 93 767 35 653 q 252 946 150 882 q 491 1010 355 1010 q 620 988 550 1010 q 741 930 689 966 l 648 708 q 581 762 625 741 q 492 783 538 783 q 380 747 428 783 q 306 648 332 711 q 279 502 279 585 q 307 353 279 418 q 385 253 335 289 q 502 217 435 217 q 587 236 546 217 q 651 286 629 256 l 743 64 q 628 10 695 31 q 503 -11 562 -11 m 307 1050 l 201 1158 l 449 1331 l 494 1331 l 742 1158 l 640 1050 l 472 1175 l 469 1175 l 307 1050 z "},"Ċ":{"ha":781,"x_min":35,"x_max":743,"o":"m 503 -11 q 258 54 363 -11 q 94 234 153 119 q 35 502 35 350 q 93 767 35 653 q 252 946 150 882 q 491 1010 355 1010 q 620 988 550 1010 q 741 930 689 966 l 648 708 q 581 762 625 741 q 492 783 538 783 q 380 747 428 783 q 306 648 332 711 q 279 502 279 585 q 307 353 279 418 q 385 253 335 289 q 502 217 435 217 q 587 236 546 217 q 651 286 629 256 l 743 64 q 628 10 695 31 q 503 -11 562 -11 m 471 1057 q 370 1098 411 1057 q 328 1199 328 1139 q 370 1301 328 1260 q 471 1341 411 1341 q 572 1301 532 1341 q 613 1199 613 1260 q 572 1098 613 1139 q 471 1057 532 1057 z "},"D":{"ha":781,"x_min":43,"x_max":741,"o":"m 43 0 l 43 1000 l 321 1000 q 547 937 453 1000 q 691 764 641 875 q 741 506 741 652 q 693 242 741 356 q 556 64 646 128 q 340 0 467 0 l 43 0 m 279 222 l 350 222 q 437 258 404 222 q 488 358 471 294 q 505 506 505 422 q 488 648 505 587 q 438 743 472 709 q 350 777 404 777 l 279 777 l 279 222 z "},"Ǆ":{"ha":781,"x_min":26,"x_max":770,"o":"m 26 0 l 26 1000 l 179 1000 q 361 870 296 1000 q 426 506 426 741 q 367 133 426 265 q 199 0 307 0 l 26 0 m 194 222 l 210 222 q 244 297 232 222 q 256 506 256 371 q 244 706 256 635 q 210 777 232 777 l 194 777 l 194 222 m 403 0 l 403 34 l 555 777 l 555 780 l 426 780 l 426 1000 l 770 1000 l 770 964 l 614 222 l 614 220 l 765 220 l 765 0 l 403 0 m 559 1047 l 393 1219 l 494 1328 l 576 1203 l 575 1203 l 667 1328 l 761 1219 l 594 1047 l 559 1047 z "},"Ď":{"ha":781,"x_min":43,"x_max":741,"o":"m 43 0 l 43 1000 l 321 1000 q 547 937 453 1000 q 691 764 641 875 q 741 506 741 652 q 693 242 741 356 q 556 64 646 128 q 340 0 467 0 l 43 0 m 279 222 l 350 222 q 437 258 404 222 q 488 358 471 294 q 505 506 505 422 q 488 648 505 587 q 438 743 472 709 q 350 777 404 777 l 279 777 l 279 222 m 209 1328 l 372 1203 l 374 1203 l 543 1328 l 644 1219 l 396 1047 l 351 1047 l 103 1219 l 209 1328 z "},"Đ":{"ha":781,"x_min":7,"x_max":738,"o":"m 93 0 l 93 1000 l 350 1000 q 559 937 472 1000 q 692 764 646 875 q 738 506 738 652 q 694 242 738 356 q 567 64 650 128 q 368 0 484 0 l 93 0 m 311 222 l 376 222 q 457 258 426 222 q 504 358 489 294 q 519 506 519 422 q 505 648 519 587 q 458 743 490 709 q 376 777 426 777 l 311 777 l 311 222 m 7 442 l 7 556 l 432 556 l 432 442 l 7 442 z "},"Ḍ":{"ha":781,"x_min":43,"x_max":741,"o":"m 43 0 l 43 1000 l 321 1000 q 547 937 453 1000 q 691 764 641 875 q 741 506 741 652 q 693 242 741 356 q 556 64 646 128 q 340 0 467 0 l 43 0 m 279 222 l 350 222 q 437 258 404 222 q 488 358 471 294 q 505 506 505 422 q 488 648 505 587 q 438 743 472 709 q 350 777 404 777 l 279 777 l 279 222 m 372 -357 q 271 -315 312 -357 q 229 -214 229 -274 q 271 -113 229 -153 q 372 -72 312 -72 q 473 -113 433 -72 q 514 -214 514 -153 q 473 -315 514 -274 q 372 -357 433 -357 z "},"Ḏ":{"ha":781,"x_min":43,"x_max":741,"o":"m 43 0 l 43 1000 l 321 1000 q 547 937 453 1000 q 691 764 641 875 q 741 506 741 652 q 693 242 741 356 q 556 64 646 128 q 340 0 467 0 l 43 0 m 279 222 l 350 222 q 437 258 404 222 q 488 358 471 294 q 505 506 505 422 q 488 648 505 587 q 438 743 472 709 q 350 777 404 777 l 279 777 l 279 222 m 84 -289 l 84 -145 l 659 -145 l 659 -289 l 84 -289 z "},"ǅ":{"ha":781,"x_min":26,"x_max":776,"o":"m 26 0 l 26 1000 l 179 1000 q 361 870 296 1000 q 426 506 426 741 q 367 133 426 265 q 199 0 307 0 l 26 0 m 194 222 l 210 222 q 244 297 232 222 q 256 506 256 371 q 244 706 256 635 q 210 777 232 777 l 194 777 l 194 222 m 412 0 l 412 35 l 570 566 l 570 570 l 448 570 l 448 732 l 761 732 l 761 697 l 605 167 l 605 163 l 755 163 l 755 0 l 412 0 m 575 774 l 410 954 l 486 1055 l 591 924 l 594 924 l 700 1055 l 776 954 l 610 774 l 575 774 z "},"Ð":{"ha":781,"x_min":7,"x_max":738,"o":"m 93 0 l 93 1000 l 350 1000 q 559 937 472 1000 q 692 764 646 875 q 738 506 738 652 q 694 242 738 356 q 567 64 650 128 q 368 0 484 0 l 93 0 m 311 222 l 376 222 q 457 258 426 222 q 504 358 489 294 q 519 506 519 422 q 505 648 519 587 q 458 743 490 709 q 376 777 426 777 l 311 777 l 311 222 m 7 442 l 7 556 l 432 556 l 432 442 l 7 442 z "},"E":{"ha":781,"x_min":104,"x_max":709,"o":"m 104 0 l 104 1000 l 709 1000 l 709 777 l 354 777 l 354 612 l 648 612 l 648 397 l 354 397 l 354 222 l 709 222 l 709 0 l 104 0 z "},"É":{"ha":781,"x_min":104,"x_max":709,"o":"m 104 0 l 104 1000 l 709 1000 l 709 777 l 354 777 l 354 612 l 648 612 l 648 397 l 354 397 l 354 222 l 709 222 l 709 0 l 104 0 m 415 1047 l 317 1145 l 556 1355 l 667 1208 l 415 1047 z "},"Ĕ":{"ha":781,"x_min":104,"x_max":709,"o":"m 104 0 l 104 1000 l 709 1000 l 709 777 l 354 777 l 354 612 l 648 612 l 648 397 l 354 397 l 354 222 l 709 222 l 709 0 l 104 0 m 415 1063 q 283 1089 344 1063 q 186 1165 223 1114 q 149 1291 149 1215 l 290 1291 q 332 1213 292 1236 q 415 1190 372 1190 q 502 1213 463 1190 q 538 1291 541 1236 l 682 1291 q 646 1165 683 1215 q 547 1089 608 1114 q 415 1063 486 1063 z "},"Ě":{"ha":781,"x_min":104,"x_max":709,"o":"m 104 0 l 104 1000 l 709 1000 l 709 777 l 354 777 l 354 612 l 648 612 l 648 397 l 354 397 l 354 222 l 709 222 l 709 0 l 104 0 m 250 1328 l 412 1203 l 415 1203 l 583 1328 l 685 1219 l 437 1047 l 392 1047 l 144 1219 l 250 1328 z "},"Ḝ":{"ha":781,"x_min":104,"x_max":709,"o":"m 104 0 l 104 1000 l 709 1000 l 709 777 l 354 777 l 354 612 l 648 612 l 648 397 l 354 397 l 354 222 l 709 222 l 709 0 l 104 0 m 286 -355 l 286 -241 q 388 -228 358 -243 q 418 -189 418 -212 q 393 -157 418 -170 q 320 -138 368 -143 l 366 0 l 464 0 l 423 -111 l 416 -61 q 517 -106 478 -72 q 556 -199 556 -141 q 492 -313 556 -269 q 286 -355 428 -357 m 415 1063 q 283 1089 344 1063 q 186 1165 223 1114 q 149 1291 149 1215 l 290 1291 q 332 1213 292 1236 q 415 1190 372 1190 q 502 1213 463 1190 q 538 1291 541 1236 l 682 1291 q 646 1165 683 1215 q 547 1089 608 1114 q 415 1063 486 1063 z "},"Ê":{"ha":781,"x_min":104,"x_max":709,"o":"m 104 0 l 104 1000 l 709 1000 l 709 777 l 354 777 l 354 612 l 648 612 l 648 397 l 354 397 l 354 222 l 709 222 l 709 0 l 104 0 m 250 1050 l 144 1158 l 392 1331 l 437 1331 l 685 1158 l 583 1050 l 415 1175 l 412 1175 l 250 1050 z "},"Ế":{"ha":781,"x_min":104,"x_max":883,"o":"m 104 0 l 104 1000 l 709 1000 l 709 777 l 354 777 l 354 612 l 648 612 l 648 397 l 354 397 l 354 222 l 709 222 l 709 0 l 104 0 m 652 1244 l 549 1316 l 773 1549 l 883 1400 l 652 1244 m 251 1039 l 145 1146 l 393 1316 l 438 1316 l 686 1146 l 585 1039 l 416 1164 l 414 1164 l 251 1039 z "},"Ệ":{"ha":781,"x_min":104,"x_max":709,"o":"m 104 0 l 104 1000 l 709 1000 l 709 777 l 354 777 l 354 612 l 648 612 l 648 397 l 354 397 l 354 222 l 709 222 l 709 0 l 104 0 m 416 -357 q 315 -315 357 -357 q 274 -214 274 -274 q 315 -113 274 -153 q 416 -72 357 -72 q 518 -113 477 -72 q 559 -214 559 -153 q 518 -315 559 -274 q 416 -357 477 -357 m 252 1050 l 146 1158 l 395 1331 l 439 1331 l 688 1158 l 586 1050 l 418 1175 l 415 1175 l 252 1050 z "},"Ề":{"ha":781,"x_min":-53,"x_max":709,"o":"m 104 0 l 104 1000 l 709 1000 l 709 777 l 354 777 l 354 612 l 648 612 l 648 397 l 354 397 l 354 222 l 709 222 l 709 0 l 104 0 m 178 1244 l -53 1400 l 57 1549 l 281 1316 l 178 1244 m 579 1039 l 416 1164 l 414 1164 l 245 1039 l 144 1146 l 392 1316 l 437 1316 l 685 1146 l 579 1039 z "},"Ể":{"ha":781,"x_min":104,"x_max":736,"o":"m 104 0 l 104 1000 l 709 1000 l 709 777 l 354 777 l 354 612 l 648 612 l 648 397 l 354 397 l 354 222 l 709 222 l 709 0 l 104 0 m 633 1246 l 552 1308 q 585 1338 572 1323 q 597 1369 597 1354 q 581 1398 597 1388 q 530 1408 564 1408 q 500 1406 515 1408 q 464 1397 484 1403 l 464 1535 q 510 1546 478 1543 q 566 1549 541 1549 q 690 1514 643 1549 q 736 1402 736 1480 q 720 1335 736 1365 q 679 1282 703 1304 q 633 1246 655 1259 m 251 1039 l 145 1146 l 393 1316 l 438 1316 l 686 1146 l 585 1039 l 416 1164 l 414 1164 l 251 1039 z "},"Ễ":{"ha":781,"x_min":104,"x_max":709,"o":"m 104 0 l 104 1000 l 709 1000 l 709 777 l 354 777 l 354 612 l 648 612 l 648 397 l 354 397 l 354 222 l 709 222 l 709 0 l 104 0 m 149 1331 q 191 1488 146 1426 q 316 1549 236 1549 q 380 1537 355 1549 q 424 1510 406 1526 q 458 1483 442 1495 q 494 1472 474 1472 q 527 1494 515 1472 q 538 1549 538 1516 l 682 1549 q 667 1439 683 1489 q 617 1360 650 1390 q 530 1331 583 1331 q 465 1342 491 1331 q 422 1369 439 1354 q 389 1396 404 1385 q 357 1408 374 1408 q 310 1388 329 1408 q 290 1331 291 1369 l 149 1331 m 250 1039 l 144 1146 l 392 1316 l 437 1316 l 685 1146 l 583 1039 l 415 1164 l 412 1164 l 250 1039 z "},"Ȅ":{"ha":781,"x_min":45,"x_max":709,"o":"m 104 0 l 104 1000 l 709 1000 l 709 777 l 354 777 l 354 612 l 648 612 l 648 397 l 354 397 l 354 222 l 709 222 l 709 0 l 104 0 m 227 1055 l 45 1275 l 201 1362 l 345 1114 l 227 1055 m 500 1055 l 324 1275 l 479 1362 l 620 1114 l 500 1055 z "},"Ë":{"ha":781,"x_min":104,"x_max":713,"o":"m 104 0 l 104 1000 l 709 1000 l 709 777 l 354 777 l 354 612 l 648 612 l 648 397 l 354 397 l 354 222 l 709 222 l 709 0 l 104 0 m 587 1044 q 492 1080 530 1044 q 456 1172 455 1116 q 492 1265 455 1228 q 587 1302 530 1302 q 677 1265 642 1302 q 713 1172 713 1228 q 677 1080 713 1116 q 587 1044 642 1044 m 248 1044 q 157 1080 193 1044 q 121 1172 121 1116 q 157 1265 121 1228 q 248 1302 193 1302 q 341 1265 304 1302 q 378 1172 378 1228 q 341 1080 378 1116 q 248 1044 304 1044 z "},"Ė":{"ha":781,"x_min":104,"x_max":709,"o":"m 104 0 l 104 1000 l 709 1000 l 709 777 l 354 777 l 354 612 l 648 612 l 648 397 l 354 397 l 354 222 l 709 222 l 709 0 l 104 0 m 414 1057 q 313 1098 354 1057 q 271 1199 271 1139 q 313 1301 271 1260 q 414 1341 354 1341 q 515 1301 475 1341 q 556 1199 556 1260 q 515 1098 556 1139 q 414 1057 475 1057 z "},"Ẹ":{"ha":781,"x_min":104,"x_max":709,"o":"m 104 0 l 104 1000 l 709 1000 l 709 777 l 354 777 l 354 612 l 648 612 l 648 397 l 354 397 l 354 222 l 709 222 l 709 0 l 104 0 m 418 -357 q 317 -315 358 -357 q 275 -214 275 -274 q 317 -113 275 -153 q 418 -72 358 -72 q 519 -113 479 -72 q 560 -214 560 -153 q 519 -315 560 -274 q 418 -357 479 -357 z "},"È":{"ha":781,"x_min":104,"x_max":709,"o":"m 104 0 l 104 1000 l 709 1000 l 709 777 l 354 777 l 354 612 l 648 612 l 648 397 l 354 397 l 354 222 l 709 222 l 709 0 l 104 0 m 415 1047 l 163 1208 l 274 1355 l 513 1145 l 415 1047 z "},"Ẻ":{"ha":781,"x_min":104,"x_max":709,"o":"m 104 0 l 104 1000 l 709 1000 l 709 777 l 354 777 l 354 612 l 648 612 l 648 397 l 354 397 l 354 222 l 709 222 l 709 0 l 104 0 m 441 1044 l 357 1126 q 389 1155 374 1139 q 404 1190 404 1171 q 388 1217 404 1207 q 340 1226 372 1226 q 309 1224 329 1226 q 273 1214 288 1221 l 273 1351 q 316 1363 286 1359 q 372 1367 346 1367 q 498 1331 450 1367 q 545 1223 545 1294 q 512 1111 545 1158 q 441 1044 478 1064 z "},"Ȇ":{"ha":781,"x_min":104,"x_max":709,"o":"m 104 0 l 104 1000 l 709 1000 l 709 777 l 354 777 l 354 612 l 648 612 l 648 397 l 354 397 l 354 222 l 709 222 l 709 0 l 104 0 m 414 1293 q 546 1267 484 1293 q 644 1191 607 1242 q 681 1065 682 1141 l 537 1065 q 500 1144 539 1121 q 414 1166 462 1166 q 330 1144 370 1166 q 289 1065 290 1121 l 148 1065 q 185 1191 148 1141 q 282 1267 222 1242 q 414 1293 342 1293 z "},"Ē":{"ha":781,"x_min":104,"x_max":709,"o":"m 104 0 l 104 1000 l 709 1000 l 709 777 l 354 777 l 354 612 l 648 612 l 648 397 l 354 397 l 354 222 l 709 222 l 709 0 l 104 0 m 141 1095 l 141 1251 l 688 1251 l 688 1095 l 141 1095 z "},"Ḗ":{"ha":781,"x_min":104,"x_max":709,"o":"m 104 0 l 104 1000 l 709 1000 l 709 777 l 354 777 l 354 612 l 648 612 l 648 397 l 354 397 l 354 222 l 709 222 l 709 0 l 104 0 m 141 1095 l 141 1251 l 688 1251 l 688 1095 l 141 1095 m 415 1298 l 317 1396 l 556 1606 l 667 1459 l 415 1298 z "},"Ḕ":{"ha":781,"x_min":104,"x_max":709,"o":"m 104 0 l 104 1000 l 709 1000 l 709 777 l 354 777 l 354 612 l 648 612 l 648 397 l 354 397 l 354 222 l 709 222 l 709 0 l 104 0 m 141 1095 l 141 1251 l 688 1251 l 688 1095 l 141 1095 m 415 1298 l 163 1459 l 274 1606 l 513 1396 l 415 1298 z "},"Ę":{"ha":781,"x_min":104,"x_max":709,"o":"m 104 0 l 104 1000 l 709 1000 l 709 777 l 354 777 l 354 612 l 648 612 l 648 397 l 354 397 l 354 222 l 709 222 l 709 0 l 104 0 m 595 -297 q 481 -258 525 -297 q 437 -153 437 -219 q 475 -51 437 -96 q 586 37 514 -6 l 707 0 q 643 -41 672 -21 q 597 -82 614 -62 q 581 -125 581 -103 q 594 -154 581 -144 q 637 -164 608 -164 q 674 -160 654 -164 q 704 -151 694 -157 l 704 -281 q 650 -293 684 -289 q 595 -297 616 -297 z "},"Ẽ":{"ha":781,"x_min":104,"x_max":709,"o":"m 104 0 l 104 1000 l 709 1000 l 709 777 l 354 777 l 354 612 l 648 612 l 648 397 l 354 397 l 354 222 l 709 222 l 709 0 l 104 0 m 149 1063 q 193 1219 149 1157 q 316 1280 236 1280 q 382 1269 356 1280 q 427 1243 409 1258 q 460 1217 445 1228 q 494 1206 475 1206 q 530 1227 518 1206 q 541 1280 541 1249 l 682 1280 q 640 1126 684 1189 q 513 1063 595 1063 q 448 1075 474 1063 q 405 1103 422 1087 q 371 1130 387 1118 q 336 1142 355 1142 q 302 1121 312 1142 q 292 1063 292 1100 l 149 1063 z "},"Ə":{"ha":781,"x_min":35,"x_max":746,"o":"m 380 -11 q 198 45 275 -11 q 78 201 121 101 q 35 433 35 300 l 35 587 l 538 587 l 538 381 l 254 381 q 270 293 253 332 q 315 233 286 255 q 380 212 344 212 q 444 236 419 212 q 482 301 469 260 q 501 389 496 341 q 506 483 506 437 q 488 650 506 583 q 435 750 470 717 q 349 784 400 784 q 255 762 305 784 q 182 708 205 741 l 90 930 q 207 987 140 964 q 345 1010 275 1010 q 502 974 429 1010 q 630 868 575 937 q 715 703 684 800 q 746 487 746 606 q 722 294 746 384 q 651 135 698 203 q 536 28 604 66 q 380 -11 468 -11 z "},"F":{"ha":781,"x_min":113,"x_max":731,"o":"m 113 0 l 113 1000 l 731 1000 l 731 777 l 362 777 l 362 578 l 669 578 l 669 355 l 362 355 l 362 0 l 113 0 z "},"G":{"ha":781,"x_min":33,"x_max":741,"o":"m 457 -11 q 233 55 328 -11 q 85 234 138 120 q 33 495 33 349 q 91 767 33 651 q 249 947 149 883 q 476 1010 349 1010 q 615 989 549 1010 q 738 930 681 968 l 646 708 q 572 762 623 741 q 472 783 522 783 q 363 748 410 783 q 290 648 316 713 q 263 492 263 583 q 284 353 263 416 q 349 254 305 291 q 461 217 393 217 q 519 225 494 217 q 562 247 545 234 l 524 184 l 524 388 l 407 388 l 407 591 l 741 591 l 741 99 q 616 19 689 48 q 457 -11 543 -11 z "},"Ğ":{"ha":781,"x_min":33,"x_max":741,"o":"m 457 -11 q 233 55 328 -11 q 85 234 138 120 q 33 495 33 349 q 91 767 33 651 q 249 947 149 883 q 476 1010 349 1010 q 615 989 549 1010 q 738 930 681 968 l 646 708 q 572 762 623 741 q 472 783 522 783 q 363 748 410 783 q 290 648 316 713 q 263 492 263 583 q 284 353 263 416 q 349 254 305 291 q 461 217 393 217 q 519 225 494 217 q 562 247 545 234 l 524 184 l 524 388 l 407 388 l 407 591 l 741 591 l 741 99 q 616 19 689 48 q 457 -11 543 -11 m 439 1063 q 308 1089 368 1063 q 211 1165 248 1114 q 174 1291 174 1215 l 315 1291 q 356 1213 316 1236 q 439 1190 396 1190 q 526 1213 488 1190 q 563 1291 565 1236 l 707 1291 q 670 1165 707 1215 q 571 1089 633 1114 q 439 1063 510 1063 z "},"Ǧ":{"ha":781,"x_min":33,"x_max":741,"o":"m 457 -11 q 233 55 328 -11 q 85 234 138 120 q 33 495 33 349 q 91 767 33 651 q 249 947 149 883 q 476 1010 349 1010 q 615 989 549 1010 q 738 930 681 968 l 646 708 q 572 762 623 741 q 472 783 522 783 q 363 748 410 783 q 290 648 316 713 q 263 492 263 583 q 284 353 263 416 q 349 254 305 291 q 461 217 393 217 q 519 225 494 217 q 562 247 545 234 l 524 184 l 524 388 l 407 388 l 407 591 l 741 591 l 741 99 q 616 19 689 48 q 457 -11 543 -11 m 274 1328 l 437 1203 l 439 1203 l 608 1328 l 709 1219 l 461 1047 l 416 1047 l 168 1219 l 274 1328 z "},"Ĝ":{"ha":781,"x_min":33,"x_max":741,"o":"m 457 -11 q 233 55 328 -11 q 85 234 138 120 q 33 495 33 349 q 91 767 33 651 q 249 947 149 883 q 476 1010 349 1010 q 615 989 549 1010 q 738 930 681 968 l 646 708 q 572 762 623 741 q 472 783 522 783 q 363 748 410 783 q 290 648 316 713 q 263 492 263 583 q 284 353 263 416 q 349 254 305 291 q 461 217 393 217 q 519 225 494 217 q 562 247 545 234 l 524 184 l 524 388 l 407 388 l 407 591 l 741 591 l 741 99 q 616 19 689 48 q 457 -11 543 -11 m 274 1050 l 168 1158 l 416 1331 l 461 1331 l 709 1158 l 608 1050 l 439 1175 l 437 1175 l 274 1050 z "},"Ģ":{"ha":781,"x_min":33,"x_max":741,"o":"m 457 -11 q 233 55 328 -11 q 85 234 138 120 q 33 495 33 349 q 91 767 33 651 q 249 947 149 883 q 476 1010 349 1010 q 615 989 549 1010 q 738 930 681 968 l 646 708 q 572 762 623 741 q 472 783 522 783 q 363 748 410 783 q 290 648 316 713 q 263 492 263 583 q 284 353 263 416 q 349 254 305 291 q 461 217 393 217 q 519 225 494 217 q 562 247 545 234 l 524 184 l 524 388 l 407 388 l 407 591 l 741 591 l 741 99 q 616 19 689 48 q 457 -11 543 -11 m 378 -437 l 335 -378 l 400 -328 q 425 -303 410 -320 q 452 -269 440 -287 q 464 -236 464 -250 l 490 -236 q 477 -269 490 -254 q 435 -283 464 -283 q 370 -256 403 -283 q 338 -183 338 -229 q 368 -113 338 -139 q 435 -87 399 -87 q 508 -114 477 -87 q 538 -198 538 -141 q 522 -281 538 -245 q 483 -341 505 -317 q 446 -378 461 -366 l 378 -437 z "},"Ġ":{"ha":781,"x_min":33,"x_max":741,"o":"m 457 -11 q 233 55 328 -11 q 85 234 138 120 q 33 495 33 349 q 91 767 33 651 q 249 947 149 883 q 476 1010 349 1010 q 615 989 549 1010 q 738 930 681 968 l 646 708 q 572 762 623 741 q 472 783 522 783 q 363 748 410 783 q 290 648 316 713 q 263 492 263 583 q 284 353 263 416 q 349 254 305 291 q 461 217 393 217 q 519 225 494 217 q 562 247 545 234 l 524 184 l 524 388 l 407 388 l 407 591 l 741 591 l 741 99 q 616 19 689 48 q 457 -11 543 -11 m 438 1057 q 337 1098 378 1057 q 296 1199 296 1139 q 337 1301 296 1260 q 438 1341 378 1341 q 540 1301 499 1341 q 581 1199 581 1260 q 540 1098 581 1139 q 438 1057 499 1057 z "},"Ḡ":{"ha":781,"x_min":33,"x_max":741,"o":"m 457 -11 q 233 55 328 -11 q 85 234 138 120 q 33 495 33 349 q 91 767 33 651 q 249 947 149 883 q 476 1010 349 1010 q 615 989 549 1010 q 738 930 681 968 l 646 708 q 572 762 623 741 q 472 783 522 783 q 363 748 410 783 q 290 648 316 713 q 263 492 263 583 q 284 353 263 416 q 349 254 305 291 q 461 217 393 217 q 519 225 494 217 q 562 247 545 234 l 524 184 l 524 388 l 407 388 l 407 591 l 741 591 l 741 99 q 616 19 689 48 q 457 -11 543 -11 m 165 1095 l 165 1251 l 712 1251 l 712 1095 l 165 1095 z "},"H":{"ha":781,"x_min":43,"x_max":738,"o":"m 43 0 l 43 1000 l 288 1000 l 288 614 l 494 614 l 494 1000 l 738 1000 l 738 0 l 494 0 l 494 392 l 288 392 l 288 0 l 43 0 z "},"Ħ":{"ha":781,"x_min":5,"x_max":770,"o":"m 5 739 l 5 867 l 770 867 l 770 739 l 5 739 m 43 0 l 43 1000 l 288 1000 l 288 614 l 494 614 l 494 1000 l 738 1000 l 738 0 l 494 0 l 494 392 l 288 392 l 288 0 l 43 0 z "},"Ḫ":{"ha":781,"x_min":43,"x_max":738,"o":"m 43 0 l 43 1000 l 288 1000 l 288 614 l 494 614 l 494 1000 l 738 1000 l 738 0 l 494 0 l 494 392 l 288 392 l 288 0 l 43 0 m 389 -319 q 253 -287 314 -319 q 157 -201 193 -255 q 122 -80 122 -147 l 266 -80 q 302 -159 267 -127 q 389 -191 337 -191 q 477 -159 441 -191 q 514 -80 513 -127 l 658 -80 q 623 -201 659 -147 q 526 -287 587 -255 q 389 -319 465 -319 z "},"Ĥ":{"ha":781,"x_min":43,"x_max":738,"o":"m 43 0 l 43 1000 l 288 1000 l 288 614 l 494 614 l 494 1000 l 738 1000 l 738 0 l 494 0 l 494 392 l 288 392 l 288 0 l 43 0 m 225 1050 l 119 1158 l 368 1331 l 412 1331 l 661 1158 l 559 1050 l 391 1175 l 388 1175 l 225 1050 z "},"Ḥ":{"ha":781,"x_min":43,"x_max":738,"o":"m 43 0 l 43 1000 l 288 1000 l 288 614 l 494 614 l 494 1000 l 738 1000 l 738 0 l 494 0 l 494 392 l 288 392 l 288 0 l 43 0 m 391 -357 q 290 -315 331 -357 q 248 -214 248 -274 q 290 -113 248 -153 q 391 -72 331 -72 q 492 -113 452 -72 q 533 -214 533 -153 q 492 -315 533 -274 q 391 -357 452 -357 z "},"I":{"ha":781,"x_min":81,"x_max":700,"o":"m 266 0 l 266 1000 l 515 1000 l 515 0 l 266 0 m 81 0 l 81 217 l 700 217 l 700 0 l 81 0 m 81 783 l 81 1000 l 700 1000 l 700 783 l 81 783 z "},"Í":{"ha":781,"x_min":81,"x_max":700,"o":"m 266 0 l 266 1000 l 515 1000 l 515 0 l 266 0 m 81 0 l 81 217 l 700 217 l 700 0 l 81 0 m 81 783 l 81 1000 l 700 1000 l 700 783 l 81 783 m 391 1047 l 293 1145 l 532 1355 l 643 1208 l 391 1047 z "},"Ĭ":{"ha":781,"x_min":81,"x_max":700,"o":"m 266 0 l 266 1000 l 515 1000 l 515 0 l 266 0 m 81 0 l 81 217 l 700 217 l 700 0 l 81 0 m 81 783 l 81 1000 l 700 1000 l 700 783 l 81 783 m 391 1063 q 259 1089 319 1063 q 162 1165 199 1114 q 125 1291 125 1215 l 266 1291 q 307 1213 267 1236 q 391 1190 347 1190 q 477 1213 439 1190 q 514 1291 516 1236 l 658 1291 q 621 1165 659 1215 q 523 1089 584 1114 q 391 1063 461 1063 z "},"Ǐ":{"ha":781,"x_min":81,"x_max":700,"o":"m 266 0 l 266 1000 l 515 1000 l 515 0 l 266 0 m 81 0 l 81 217 l 700 217 l 700 0 l 81 0 m 81 783 l 81 1000 l 700 1000 l 700 783 l 81 783 m 225 1328 l 388 1203 l 391 1203 l 559 1328 l 661 1219 l 412 1047 l 368 1047 l 119 1219 l 225 1328 z "},"Î":{"ha":781,"x_min":81,"x_max":700,"o":"m 266 0 l 266 1000 l 515 1000 l 515 0 l 266 0 m 81 0 l 81 217 l 700 217 l 700 0 l 81 0 m 81 783 l 81 1000 l 700 1000 l 700 783 l 81 783 m 225 1050 l 119 1158 l 368 1331 l 412 1331 l 661 1158 l 559 1050 l 391 1175 l 388 1175 l 225 1050 z "},"Ȉ":{"ha":781,"x_min":20,"x_max":700,"o":"m 266 0 l 266 1000 l 515 1000 l 515 0 l 266 0 m 81 0 l 81 217 l 700 217 l 700 0 l 81 0 m 81 783 l 81 1000 l 700 1000 l 700 783 l 81 783 m 202 1055 l 20 1275 l 176 1362 l 320 1114 l 202 1055 m 476 1055 l 300 1275 l 454 1362 l 595 1114 l 476 1055 z "},"Ï":{"ha":781,"x_min":81,"x_max":700,"o":"m 266 0 l 266 1000 l 515 1000 l 515 0 l 266 0 m 81 0 l 81 217 l 700 217 l 700 0 l 81 0 m 81 783 l 81 1000 l 700 1000 l 700 783 l 81 783 m 563 1044 q 468 1080 505 1044 q 431 1172 431 1116 q 468 1265 431 1228 q 563 1302 505 1302 q 653 1265 617 1302 q 689 1172 688 1228 q 653 1080 688 1116 q 563 1044 617 1044 m 224 1044 q 132 1080 168 1044 q 96 1172 96 1116 q 132 1265 96 1228 q 224 1302 168 1302 q 317 1265 280 1302 q 354 1172 354 1228 q 317 1080 354 1116 q 224 1044 280 1044 z "},"Ḯ":{"ha":781,"x_min":81,"x_max":700,"o":"m 266 0 l 266 1000 l 515 1000 l 515 0 l 266 0 m 81 0 l 81 217 l 700 217 l 700 0 l 81 0 m 81 783 l 81 1000 l 700 1000 l 700 783 l 81 783 m 563 1044 q 468 1080 505 1044 q 431 1172 431 1116 q 468 1265 431 1228 q 563 1302 505 1302 q 653 1265 617 1302 q 689 1172 688 1228 q 653 1080 688 1116 q 563 1044 617 1044 m 224 1044 q 132 1080 168 1044 q 96 1172 96 1116 q 132 1265 96 1228 q 224 1302 168 1302 q 317 1265 280 1302 q 354 1172 354 1228 q 317 1080 354 1116 q 224 1044 280 1044 m 391 1303 l 293 1401 l 532 1611 l 643 1465 l 391 1303 z "},"İ":{"ha":781,"x_min":81,"x_max":700,"o":"m 266 0 l 266 1000 l 515 1000 l 515 0 l 266 0 m 81 0 l 81 217 l 700 217 l 700 0 l 81 0 m 81 783 l 81 1000 l 700 1000 l 700 783 l 81 783 m 389 1057 q 288 1098 330 1057 q 247 1199 247 1139 q 288 1301 247 1260 q 389 1341 330 1341 q 491 1301 450 1341 q 532 1199 532 1260 q 491 1098 532 1139 q 389 1057 450 1057 z "},"Ị":{"ha":781,"x_min":81,"x_max":700,"o":"m 266 0 l 266 1000 l 515 1000 l 515 0 l 266 0 m 81 0 l 81 217 l 700 217 l 700 0 l 81 0 m 81 783 l 81 1000 l 700 1000 l 700 783 l 81 783 m 391 -357 q 290 -315 331 -357 q 248 -214 248 -274 q 290 -113 248 -153 q 391 -72 331 -72 q 492 -113 452 -72 q 533 -214 533 -153 q 492 -315 533 -274 q 391 -357 452 -357 z "},"Ì":{"ha":781,"x_min":81,"x_max":700,"o":"m 266 0 l 266 1000 l 515 1000 l 515 0 l 266 0 m 81 0 l 81 217 l 700 217 l 700 0 l 81 0 m 81 783 l 81 1000 l 700 1000 l 700 783 l 81 783 m 391 1047 l 138 1208 l 250 1355 l 488 1145 l 391 1047 z "},"Ỉ":{"ha":781,"x_min":81,"x_max":700,"o":"m 266 0 l 266 1000 l 515 1000 l 515 0 l 266 0 m 81 0 l 81 217 l 700 217 l 700 0 l 81 0 m 81 783 l 81 1000 l 700 1000 l 700 783 l 81 783 m 416 1044 l 332 1126 q 365 1155 350 1139 q 380 1190 380 1171 q 363 1217 380 1207 q 316 1226 347 1226 q 284 1224 304 1226 q 248 1214 264 1221 l 248 1351 q 291 1363 261 1359 q 347 1367 321 1367 q 473 1331 426 1367 q 521 1223 521 1294 q 487 1111 521 1158 q 416 1044 454 1064 z "},"Ȋ":{"ha":781,"x_min":81,"x_max":700,"o":"m 266 0 l 266 1000 l 515 1000 l 515 0 l 266 0 m 81 0 l 81 217 l 700 217 l 700 0 l 81 0 m 81 783 l 81 1000 l 700 1000 l 700 783 l 81 783 m 389 1293 q 521 1267 460 1293 q 620 1191 583 1242 q 656 1065 657 1141 l 513 1065 q 476 1144 515 1121 q 389 1166 437 1166 q 306 1144 346 1166 q 264 1065 266 1121 l 123 1065 q 160 1191 123 1141 q 258 1267 197 1242 q 389 1293 318 1293 z "},"Ī":{"ha":781,"x_min":81,"x_max":700,"o":"m 266 0 l 266 1000 l 515 1000 l 515 0 l 266 0 m 81 0 l 81 217 l 700 217 l 700 0 l 81 0 m 81 783 l 81 1000 l 700 1000 l 700 783 l 81 783 m 144 1095 l 144 1251 l 636 1251 l 636 1095 l 144 1095 z "},"Į":{"ha":781,"x_min":81,"x_max":700,"o":"m 266 0 l 266 1000 l 515 1000 l 515 0 l 266 0 m 81 0 l 81 217 l 700 217 l 700 0 l 81 0 m 81 783 l 81 1000 l 700 1000 l 700 783 l 81 783 m 589 -297 q 474 -258 518 -297 q 430 -153 430 -219 q 469 -51 430 -96 q 579 37 507 -6 l 700 0 q 636 -41 665 -21 q 591 -82 608 -62 q 574 -125 574 -103 q 587 -154 574 -144 q 631 -164 601 -164 q 668 -160 648 -164 q 697 -151 688 -157 l 697 -281 q 644 -293 677 -289 q 589 -297 610 -297 z "},"Ĩ":{"ha":781,"x_min":81,"x_max":700,"o":"m 266 0 l 266 1000 l 515 1000 l 515 0 l 266 0 m 81 0 l 81 217 l 700 217 l 700 0 l 81 0 m 81 783 l 81 1000 l 700 1000 l 700 783 l 81 783 m 125 1063 q 168 1219 125 1157 q 292 1280 212 1280 q 358 1269 332 1280 q 402 1243 385 1258 q 436 1217 420 1228 q 469 1206 451 1206 q 505 1227 494 1206 q 517 1280 517 1249 l 658 1280 q 615 1126 659 1189 q 488 1063 571 1063 q 424 1075 450 1063 q 380 1103 398 1087 q 347 1130 362 1118 q 312 1142 331 1142 q 277 1121 288 1142 q 267 1063 267 1100 l 125 1063 z "},"J":{"ha":781,"x_min":16,"x_max":678,"o":"m 347 -11 q 169 34 243 -11 q 55 156 95 78 q 16 336 16 235 l 256 336 q 281 245 256 279 q 342 212 305 212 q 384 224 366 212 q 412 260 401 237 q 422 313 422 283 l 422 1000 l 678 1000 l 678 316 q 637 143 678 216 q 521 29 595 69 q 347 -11 447 -11 z "},"Ĵ":{"ha":781,"x_min":16,"x_max":815,"o":"m 347 -11 q 169 34 243 -11 q 55 156 95 78 q 16 336 16 235 l 256 336 q 281 245 256 279 q 342 212 305 212 q 384 224 366 212 q 412 260 401 237 q 422 313 422 283 l 422 1000 l 678 1000 l 678 316 q 637 143 678 216 q 521 29 595 69 q 347 -11 447 -11 m 380 1050 l 274 1158 l 522 1331 l 567 1331 l 815 1158 l 713 1050 l 545 1175 l 543 1175 l 380 1050 z "},"K":{"ha":781,"x_min":54,"x_max":808,"o":"m 54 0 l 54 1000 l 292 1000 l 292 562 l 346 562 l 271 525 l 519 1000 l 803 1000 l 473 439 l 473 575 l 808 0 l 526 0 l 271 469 l 346 433 l 292 433 l 292 0 l 54 0 z "},"Ķ":{"ha":781,"x_min":54,"x_max":808,"o":"m 54 0 l 54 1000 l 292 1000 l 292 562 l 346 562 l 271 525 l 519 1000 l 803 1000 l 473 439 l 473 575 l 808 0 l 526 0 l 271 469 l 346 433 l 292 433 l 292 0 l 54 0 m 347 -437 l 304 -378 l 369 -328 q 394 -303 378 -320 q 421 -269 409 -287 q 433 -236 433 -250 l 458 -236 q 446 -269 458 -254 q 404 -283 433 -283 q 339 -256 372 -283 q 307 -183 307 -229 q 337 -113 307 -139 q 404 -87 368 -87 q 477 -114 446 -87 q 507 -198 507 -141 q 490 -281 507 -245 q 452 -341 473 -317 q 415 -378 430 -366 l 347 -437 z "},"L":{"ha":781,"x_min":114,"x_max":719,"o":"m 114 0 l 114 1000 l 363 1000 l 363 222 l 719 222 l 719 0 l 114 0 z "},"Ǉ":{"ha":781,"x_min":52,"x_max":746,"o":"m 537 -11 q 382 81 427 -11 q 342 331 338 172 l 513 331 q 518 210 512 241 q 538 179 524 179 q 562 209 554 179 q 570 326 570 239 l 570 1000 l 746 1000 l 746 328 q 694 76 746 163 q 537 -11 643 -11 m 52 0 l 52 1000 l 228 1000 l 228 190 l 336 190 l 336 0 l 52 0 z "},"Ĺ":{"ha":781,"x_min":114,"x_max":719,"o":"m 114 0 l 114 1000 l 363 1000 l 363 222 l 719 222 l 719 0 l 114 0 m 239 1047 l 141 1145 l 380 1355 l 491 1208 l 239 1047 z "},"Ľ":{"ha":781,"x_min":114,"x_max":761,"o":"m 114 0 l 114 1000 l 363 1000 l 363 222 l 719 222 l 719 0 l 114 0 m 571 642 l 572 1000 l 761 1000 l 735 642 l 571 642 z "},"Ļ":{"ha":781,"x_min":114,"x_max":719,"o":"m 114 0 l 114 1000 l 363 1000 l 363 222 l 719 222 l 719 0 l 114 0 m 358 -437 l 315 -378 l 380 -328 q 405 -303 389 -320 q 432 -269 420 -287 q 444 -236 444 -250 l 469 -236 q 456 -269 469 -254 q 415 -283 444 -283 q 350 -256 382 -283 q 317 -183 317 -229 q 348 -113 317 -139 q 415 -87 378 -87 q 488 -114 457 -87 q 518 -198 518 -141 q 501 -281 518 -245 q 463 -341 484 -317 q 426 -378 441 -366 l 358 -437 z "},"Ŀ":{"ha":781,"x_min":114,"x_max":784,"o":"m 114 0 l 114 1000 l 363 1000 l 363 222 l 719 222 l 719 0 l 114 0 m 640 363 q 540 405 581 363 q 499 506 499 446 q 540 607 499 566 q 640 648 581 648 q 743 607 701 648 q 784 506 784 566 q 743 405 784 446 q 640 363 701 363 z "},"Ḷ":{"ha":781,"x_min":114,"x_max":719,"o":"m 114 0 l 114 1000 l 363 1000 l 363 222 l 719 222 l 719 0 l 114 0 m 416 -357 q 315 -315 357 -357 q 274 -214 274 -274 q 315 -113 274 -153 q 416 -72 357 -72 q 518 -113 477 -72 q 559 -214 559 -153 q 518 -315 559 -274 q 416 -357 477 -357 z "},"ǈ":{"ha":781,"x_min":52,"x_max":749,"o":"m 492 -296 q 399 -280 448 -296 q 312 -239 350 -265 l 369 -68 q 429 -101 398 -88 q 490 -114 459 -114 q 532 -99 516 -114 q 548 -38 548 -83 l 548 732 l 727 732 l 727 -38 q 698 -175 727 -117 q 616 -264 669 -233 q 492 -296 563 -296 m 52 0 l 52 1000 l 241 1000 l 241 190 l 404 190 l 404 0 l 52 0 m 399 548 l 399 732 l 727 732 l 727 548 l 399 548 m 627 814 q 538 849 572 814 q 505 943 505 885 q 538 1034 505 999 q 627 1069 572 1069 q 715 1033 681 1069 q 749 940 749 998 q 715 849 749 884 q 627 814 681 814 z "},"Ḻ":{"ha":781,"x_min":114,"x_max":719,"o":"m 114 0 l 114 1000 l 363 1000 l 363 222 l 719 222 l 719 0 l 114 0 m 129 -289 l 129 -145 l 704 -145 l 704 -289 l 129 -289 z "},"Ł":{"ha":781,"x_min":-30,"x_max":719,"o":"m 23 328 l -30 456 l 145 545 l 331 632 l 458 708 l 510 583 l 331 483 l 145 396 l 23 328 m 114 0 l 114 1000 l 363 1000 l 363 222 l 719 222 l 719 0 l 114 0 z "},"M":{"ha":781,"x_min":27,"x_max":754,"o":"m 27 0 l 27 1000 l 174 1000 l 388 640 l 393 640 l 608 1000 l 754 1000 l 754 0 l 537 0 l 537 335 l 540 509 l 533 509 l 419 308 l 362 308 l 248 509 l 241 509 l 244 335 l 244 0 l 27 0 z "},"Ṃ":{"ha":781,"x_min":27,"x_max":754,"o":"m 27 0 l 27 1000 l 174 1000 l 388 640 l 393 640 l 608 1000 l 754 1000 l 754 0 l 537 0 l 537 335 l 540 509 l 533 509 l 419 308 l 362 308 l 248 509 l 241 509 l 244 335 l 244 0 l 27 0 m 389 -357 q 288 -315 330 -357 q 247 -214 247 -274 q 288 -113 247 -153 q 389 -72 330 -72 q 491 -113 450 -72 q 532 -214 532 -153 q 491 -315 532 -274 q 389 -357 450 -357 z "},"N":{"ha":781,"x_min":43,"x_max":738,"o":"m 43 0 l 43 1000 l 209 1000 l 472 528 l 510 439 l 515 439 l 509 647 l 509 1000 l 738 1000 l 738 0 l 571 0 l 311 483 l 273 575 l 269 575 l 273 353 l 273 0 l 43 0 z "},"Ǌ":{"ha":781,"x_min":19,"x_max":768,"o":"m 19 0 l 19 1000 l 125 1000 l 235 576 l 250 494 l 254 494 l 247 601 l 247 1000 l 396 1000 l 396 0 l 289 0 l 180 429 l 164 511 l 163 511 l 168 401 l 168 0 l 19 0 m 590 -11 q 457 72 502 -11 q 415 300 412 155 l 564 300 q 569 199 562 220 q 589 178 576 178 q 607 205 606 178 q 608 300 608 232 l 608 1000 l 768 1000 l 768 302 q 725 72 768 155 q 590 -11 682 -11 z "},"Ń":{"ha":781,"x_min":43,"x_max":738,"o":"m 43 0 l 43 1000 l 209 1000 l 472 528 l 510 439 l 515 439 l 509 647 l 509 1000 l 738 1000 l 738 0 l 571 0 l 311 483 l 273 575 l 269 575 l 273 353 l 273 0 l 43 0 m 391 1047 l 293 1145 l 532 1355 l 643 1208 l 391 1047 z "},"Ň":{"ha":781,"x_min":43,"x_max":738,"o":"m 43 0 l 43 1000 l 209 1000 l 472 528 l 510 439 l 515 439 l 509 647 l 509 1000 l 738 1000 l 738 0 l 571 0 l 311 483 l 273 575 l 269 575 l 273 353 l 273 0 l 43 0 m 225 1328 l 388 1203 l 391 1203 l 559 1328 l 661 1219 l 412 1047 l 368 1047 l 119 1219 l 225 1328 z "},"Ņ":{"ha":781,"x_min":43,"x_max":738,"o":"m 43 0 l 43 1000 l 209 1000 l 472 528 l 510 439 l 515 439 l 509 647 l 509 1000 l 738 1000 l 738 0 l 571 0 l 311 483 l 273 575 l 269 575 l 273 353 l 273 0 l 43 0 m 330 -437 l 286 -378 l 351 -328 q 376 -303 361 -320 q 403 -269 391 -287 q 415 -236 415 -250 l 441 -236 q 428 -269 441 -254 q 387 -283 415 -283 q 321 -256 354 -283 q 289 -183 289 -229 q 319 -113 289 -139 q 387 -87 350 -87 q 459 -114 429 -87 q 490 -198 490 -141 q 473 -281 490 -245 q 434 -341 456 -317 q 397 -378 412 -366 l 330 -437 z "},"Ṅ":{"ha":781,"x_min":43,"x_max":738,"o":"m 43 0 l 43 1000 l 209 1000 l 472 528 l 510 439 l 515 439 l 509 647 l 509 1000 l 738 1000 l 738 0 l 571 0 l 311 483 l 273 575 l 269 575 l 273 353 l 273 0 l 43 0 m 389 1057 q 288 1098 330 1057 q 247 1199 247 1139 q 288 1301 247 1260 q 389 1341 330 1341 q 491 1301 450 1341 q 532 1199 532 1260 q 491 1098 532 1139 q 389 1057 450 1057 z "},"Ṇ":{"ha":781,"x_min":43,"x_max":738,"o":"m 43 0 l 43 1000 l 209 1000 l 472 528 l 510 439 l 515 439 l 509 647 l 509 1000 l 738 1000 l 738 0 l 571 0 l 311 483 l 273 575 l 269 575 l 273 353 l 273 0 l 43 0 m 388 -357 q 287 -315 328 -357 q 245 -214 245 -274 q 287 -113 245 -153 q 388 -72 328 -72 q 490 -113 449 -72 q 530 -214 530 -153 q 490 -315 530 -274 q 388 -357 449 -357 z "},"ǋ":{"ha":781,"x_min":41,"x_max":754,"o":"m 41 0 l 41 1000 l 160 1000 l 285 576 l 302 494 l 307 494 l 298 601 l 298 1000 l 468 1000 l 468 0 l 346 0 l 224 429 l 205 511 l 203 511 l 210 401 l 210 0 l 41 0 m 480 -296 q 387 -280 436 -296 q 300 -239 338 -265 l 357 -68 q 416 -101 386 -88 q 477 -114 447 -114 q 520 -99 504 -114 q 536 -38 536 -83 l 536 732 l 715 732 l 715 -38 q 686 -175 715 -117 q 604 -264 656 -233 q 480 -296 551 -296 m 632 814 q 544 849 578 814 q 510 943 510 885 q 544 1034 510 999 q 632 1069 578 1069 q 720 1033 686 1069 q 754 940 754 998 q 720 849 754 884 q 632 814 686 814 z "},"Ṉ":{"ha":781,"x_min":43,"x_max":738,"o":"m 43 0 l 43 1000 l 209 1000 l 472 528 l 510 439 l 515 439 l 509 647 l 509 1000 l 738 1000 l 738 0 l 571 0 l 311 483 l 273 575 l 269 575 l 273 353 l 273 0 l 43 0 m 100 -289 l 100 -145 l 675 -145 l 675 -289 l 100 -289 z "},"Ñ":{"ha":781,"x_min":43,"x_max":738,"o":"m 43 0 l 43 1000 l 209 1000 l 472 528 l 510 439 l 515 439 l 509 647 l 509 1000 l 738 1000 l 738 0 l 571 0 l 311 483 l 273 575 l 269 575 l 273 353 l 273 0 l 43 0 m 125 1063 q 168 1219 125 1157 q 292 1280 212 1280 q 358 1269 332 1280 q 402 1243 385 1258 q 436 1217 420 1228 q 469 1206 451 1206 q 505 1227 494 1206 q 517 1280 517 1249 l 658 1280 q 615 1126 659 1189 q 488 1063 571 1063 q 424 1075 450 1063 q 380 1103 398 1087 q 347 1130 362 1118 q 312 1142 331 1142 q 277 1121 288 1142 q 267 1063 267 1100 l 125 1063 z "},"Ŋ":{"ha":781,"x_min":43,"x_max":738,"o":"m 43 0 l 43 1000 l 209 1000 l 472 528 l 510 439 l 515 439 l 509 647 l 509 1000 l 738 1000 l 738 0 l 571 0 l 311 483 l 273 575 l 269 575 l 273 353 l 273 0 l 43 0 m 490 -302 q 431 -297 459 -302 q 393 -283 403 -292 l 393 -77 q 427 -90 407 -85 q 458 -95 448 -95 q 488 -85 475 -95 q 508 -59 500 -75 q 515 -22 515 -42 l 515 153 l 738 153 l 738 -8 q 711 -159 738 -93 q 628 -264 684 -226 q 490 -302 573 -302 z "},"O":{"ha":781,"x_min":35,"x_max":746,"o":"m 391 -11 q 197 48 276 -11 q 76 220 117 106 q 35 500 35 334 q 76 780 35 667 q 196 952 117 894 q 391 1010 275 1010 q 583 952 504 1010 q 704 780 663 893 q 746 500 746 666 q 705 221 746 335 q 585 48 664 107 q 391 -11 505 -11 m 391 217 q 460 250 432 217 q 502 345 488 282 q 515 500 515 408 q 501 655 515 593 q 458 750 486 718 q 391 783 431 783 q 322 750 350 783 q 280 655 294 718 q 266 500 266 593 q 281 345 266 408 q 323 250 296 282 q 391 217 351 217 z "},"Ó":{"ha":781,"x_min":35,"x_max":746,"o":"m 391 -11 q 197 48 276 -11 q 76 220 117 106 q 35 500 35 334 q 76 780 35 667 q 196 952 117 894 q 391 1010 275 1010 q 583 952 504 1010 q 704 780 663 893 q 746 500 746 666 q 705 221 746 335 q 585 48 664 107 q 391 -11 505 -11 m 391 217 q 460 250 432 217 q 502 345 488 282 q 515 500 515 408 q 501 655 515 593 q 458 750 486 718 q 391 783 431 783 q 322 750 350 783 q 280 655 294 718 q 266 500 266 593 q 281 345 266 408 q 323 250 296 282 q 391 217 351 217 m 392 1047 l 294 1145 l 533 1355 l 644 1208 l 392 1047 z "},"Ŏ":{"ha":781,"x_min":35,"x_max":746,"o":"m 391 -11 q 197 48 276 -11 q 76 220 117 106 q 35 500 35 334 q 76 780 35 667 q 196 952 117 894 q 391 1010 275 1010 q 583 952 504 1010 q 704 780 663 893 q 746 500 746 666 q 705 221 746 335 q 585 48 664 107 q 391 -11 505 -11 m 391 217 q 460 250 432 217 q 502 345 488 282 q 515 500 515 408 q 501 655 515 593 q 458 750 486 718 q 391 783 431 783 q 322 750 350 783 q 280 655 294 718 q 266 500 266 593 q 281 345 266 408 q 323 250 296 282 q 391 217 351 217 m 392 1063 q 260 1089 321 1063 q 163 1165 200 1114 q 126 1291 126 1215 l 267 1291 q 309 1213 269 1236 q 392 1190 349 1190 q 479 1213 440 1190 q 515 1291 517 1236 l 659 1291 q 623 1165 660 1215 q 524 1089 585 1114 q 392 1063 463 1063 z "},"Ô":{"ha":781,"x_min":35,"x_max":746,"o":"m 391 -11 q 197 48 276 -11 q 76 220 117 106 q 35 500 35 334 q 76 780 35 667 q 196 952 117 894 q 391 1010 275 1010 q 583 952 504 1010 q 704 780 663 893 q 746 500 746 666 q 705 221 746 335 q 585 48 664 107 q 391 -11 505 -11 m 391 217 q 460 250 432 217 q 502 345 488 282 q 515 500 515 408 q 501 655 515 593 q 458 750 486 718 q 391 783 431 783 q 322 750 350 783 q 280 655 294 718 q 266 500 266 593 q 281 345 266 408 q 323 250 296 282 q 391 217 351 217 m 227 1050 l 121 1158 l 369 1331 l 414 1331 l 662 1158 l 560 1050 l 392 1175 l 389 1175 l 227 1050 z "},"Ố":{"ha":781,"x_min":35,"x_max":860,"o":"m 391 -11 q 197 48 276 -11 q 76 220 117 106 q 35 500 35 334 q 76 780 35 667 q 196 952 117 894 q 391 1010 275 1010 q 583 952 504 1010 q 704 780 663 893 q 746 500 746 666 q 705 221 746 335 q 585 48 664 107 q 391 -11 505 -11 m 391 217 q 460 250 432 217 q 502 345 488 282 q 515 500 515 408 q 501 655 515 593 q 458 750 486 718 q 391 783 431 783 q 322 750 350 783 q 280 655 294 718 q 266 500 266 593 q 281 345 266 408 q 323 250 296 282 q 391 217 351 217 m 629 1244 l 526 1316 l 750 1549 l 860 1400 l 629 1244 m 228 1039 l 122 1146 l 370 1316 l 415 1316 l 663 1146 l 562 1039 l 393 1164 l 391 1164 l 228 1039 z "},"Ộ":{"ha":781,"x_min":35,"x_max":746,"o":"m 391 -11 q 197 48 276 -11 q 76 220 117 106 q 35 500 35 334 q 76 780 35 667 q 196 952 117 894 q 391 1010 275 1010 q 583 952 504 1010 q 704 780 663 893 q 746 500 746 666 q 705 221 746 335 q 585 48 664 107 q 391 -11 505 -11 m 391 217 q 460 250 432 217 q 502 345 488 282 q 515 500 515 408 q 501 655 515 593 q 458 750 486 718 q 391 783 431 783 q 322 750 350 783 q 280 655 294 718 q 266 500 266 593 q 281 345 266 408 q 323 250 296 282 q 391 217 351 217 m 391 -357 q 290 -315 331 -357 q 248 -214 248 -274 q 290 -113 248 -153 q 391 -72 331 -72 q 492 -113 452 -72 q 533 -214 533 -153 q 492 -315 533 -274 q 391 -357 452 -357 m 227 1050 l 121 1158 l 369 1331 l 414 1331 l 662 1158 l 560 1050 l 392 1175 l 389 1175 l 227 1050 z "},"Ồ":{"ha":781,"x_min":-76,"x_max":746,"o":"m 391 -11 q 197 48 276 -11 q 76 220 117 106 q 35 500 35 334 q 76 780 35 667 q 196 952 117 894 q 391 1010 275 1010 q 583 952 504 1010 q 704 780 663 893 q 746 500 746 666 q 705 221 746 335 q 585 48 664 107 q 391 -11 505 -11 m 391 217 q 460 250 432 217 q 502 345 488 282 q 515 500 515 408 q 501 655 515 593 q 458 750 486 718 q 391 783 431 783 q 322 750 350 783 q 280 655 294 718 q 266 500 266 593 q 281 345 266 408 q 323 250 296 282 q 391 217 351 217 m 155 1244 l -76 1400 l 34 1549 l 258 1316 l 155 1244 m 556 1039 l 393 1164 l 391 1164 l 222 1039 l 121 1146 l 369 1316 l 414 1316 l 662 1146 l 556 1039 z "},"Ổ":{"ha":781,"x_min":35,"x_max":746,"o":"m 391 -11 q 197 48 276 -11 q 76 220 117 106 q 35 500 35 334 q 76 780 35 667 q 196 952 117 894 q 391 1010 275 1010 q 583 952 504 1010 q 704 780 663 893 q 746 500 746 666 q 705 221 746 335 q 585 48 664 107 q 391 -11 505 -11 m 391 217 q 460 250 432 217 q 502 345 488 282 q 515 500 515 408 q 501 655 515 593 q 458 750 486 718 q 391 783 431 783 q 322 750 350 783 q 280 655 294 718 q 266 500 266 593 q 281 345 266 408 q 323 250 296 282 q 391 217 351 217 m 610 1246 l 529 1308 q 562 1338 549 1323 q 574 1369 574 1354 q 557 1398 574 1388 q 507 1408 541 1408 q 477 1406 492 1408 q 441 1397 461 1403 l 441 1535 q 487 1546 455 1543 q 543 1549 518 1549 q 667 1514 620 1549 q 713 1402 713 1480 q 697 1335 713 1365 q 656 1282 680 1304 q 610 1246 632 1259 m 228 1039 l 122 1146 l 370 1316 l 415 1316 l 663 1146 l 562 1039 l 393 1164 l 391 1164 l 228 1039 z "},"Ỗ":{"ha":781,"x_min":35,"x_max":746,"o":"m 391 -11 q 197 48 276 -11 q 76 220 117 106 q 35 500 35 334 q 76 780 35 667 q 196 952 117 894 q 391 1010 275 1010 q 583 952 504 1010 q 704 780 663 893 q 746 500 746 666 q 705 221 746 335 q 585 48 664 107 q 391 -11 505 -11 m 391 217 q 460 250 432 217 q 502 345 488 282 q 515 500 515 408 q 501 655 515 593 q 458 750 486 718 q 391 783 431 783 q 322 750 350 783 q 280 655 294 718 q 266 500 266 593 q 281 345 266 408 q 323 250 296 282 q 391 217 351 217 m 126 1331 q 168 1488 123 1426 q 293 1549 213 1549 q 357 1537 332 1549 q 401 1510 383 1526 q 435 1483 419 1495 q 471 1472 451 1472 q 504 1494 492 1472 q 515 1549 515 1516 l 659 1549 q 644 1439 660 1489 q 594 1360 627 1390 q 507 1331 560 1331 q 442 1342 468 1331 q 399 1369 416 1354 q 366 1396 381 1385 q 334 1408 351 1408 q 287 1388 306 1408 q 267 1331 268 1369 l 126 1331 m 227 1039 l 121 1146 l 369 1316 l 414 1316 l 662 1146 l 560 1039 l 392 1164 l 389 1164 l 227 1039 z "},"Ȍ":{"ha":781,"x_min":22,"x_max":746,"o":"m 391 -11 q 197 48 276 -11 q 76 220 117 106 q 35 500 35 334 q 76 780 35 667 q 196 952 117 894 q 391 1010 275 1010 q 583 952 504 1010 q 704 780 663 893 q 746 500 746 666 q 705 221 746 335 q 585 48 664 107 q 391 -11 505 -11 m 391 217 q 460 250 432 217 q 502 345 488 282 q 515 500 515 408 q 501 655 515 593 q 458 750 486 718 q 391 783 431 783 q 322 750 350 783 q 280 655 294 718 q 266 500 266 593 q 281 345 266 408 q 323 250 296 282 q 391 217 351 217 m 203 1055 l 22 1275 l 178 1362 l 321 1114 l 203 1055 m 477 1055 l 301 1275 l 456 1362 l 597 1114 l 477 1055 z "},"Ö":{"ha":781,"x_min":35,"x_max":746,"o":"m 391 -11 q 197 48 276 -11 q 76 220 117 106 q 35 500 35 334 q 76 780 35 667 q 196 952 117 894 q 391 1010 275 1010 q 583 952 504 1010 q 704 780 663 893 q 746 500 746 666 q 705 221 746 335 q 585 48 664 107 q 391 -11 505 -11 m 391 217 q 460 250 432 217 q 502 345 488 282 q 515 500 515 408 q 501 655 515 593 q 458 750 486 718 q 391 783 431 783 q 322 750 350 783 q 280 655 294 718 q 266 500 266 593 q 281 345 266 408 q 323 250 296 282 q 391 217 351 217 m 564 1044 q 469 1080 507 1044 q 433 1172 432 1116 q 469 1265 432 1228 q 564 1302 507 1302 q 654 1265 618 1302 q 690 1172 690 1228 q 654 1080 690 1116 q 564 1044 618 1044 m 225 1044 q 134 1080 170 1044 q 98 1172 98 1116 q 134 1265 98 1228 q 225 1302 170 1302 q 318 1265 281 1302 q 355 1172 355 1228 q 318 1080 355 1116 q 225 1044 281 1044 z "},"Ȫ":{"ha":781,"x_min":35,"x_max":746,"o":"m 391 -11 q 197 48 276 -11 q 76 220 117 106 q 35 500 35 334 q 76 780 35 667 q 196 952 117 894 q 391 1010 275 1010 q 583 952 504 1010 q 704 780 663 893 q 746 500 746 666 q 705 221 746 335 q 585 48 664 107 q 391 -11 505 -11 m 391 217 q 460 250 432 217 q 502 345 488 282 q 515 500 515 408 q 501 655 515 593 q 458 750 486 718 q 391 783 431 783 q 322 750 350 783 q 280 655 294 718 q 266 500 266 593 q 281 345 266 408 q 323 250 296 282 q 391 217 351 217 m 564 1044 q 469 1080 507 1044 q 433 1172 432 1116 q 469 1265 432 1228 q 564 1302 507 1302 q 654 1265 618 1302 q 690 1172 690 1228 q 654 1080 690 1116 q 564 1044 618 1044 m 225 1044 q 134 1080 170 1044 q 98 1172 98 1116 q 134 1265 98 1228 q 225 1302 170 1302 q 318 1265 281 1302 q 355 1172 355 1228 q 318 1080 355 1116 q 225 1044 281 1044 m 118 1351 l 118 1507 l 665 1507 l 665 1351 l 118 1351 z "},"Ȱ":{"ha":781,"x_min":35,"x_max":746,"o":"m 391 -11 q 197 48 276 -11 q 76 220 117 106 q 35 500 35 334 q 76 780 35 667 q 196 952 117 894 q 391 1010 275 1010 q 583 952 504 1010 q 704 780 663 893 q 746 500 746 666 q 705 221 746 335 q 585 48 664 107 q 391 -11 505 -11 m 391 217 q 460 250 432 217 q 502 345 488 282 q 515 500 515 408 q 501 655 515 593 q 458 750 486 718 q 391 783 431 783 q 322 750 350 783 q 280 655 294 718 q 266 500 266 593 q 281 345 266 408 q 323 250 296 282 q 391 217 351 217 m 391 1057 q 290 1098 331 1057 q 248 1199 248 1139 q 290 1301 248 1260 q 391 1341 331 1341 q 492 1301 452 1341 q 533 1199 533 1260 q 492 1098 533 1139 q 391 1057 452 1057 m 118 1383 l 118 1539 l 665 1539 l 665 1383 l 118 1383 z "},"Ọ":{"ha":781,"x_min":35,"x_max":746,"o":"m 391 -11 q 197 48 276 -11 q 76 220 117 106 q 35 500 35 334 q 76 780 35 667 q 196 952 117 894 q 391 1010 275 1010 q 583 952 504 1010 q 704 780 663 893 q 746 500 746 666 q 705 221 746 335 q 585 48 664 107 q 391 -11 505 -11 m 391 217 q 460 250 432 217 q 502 345 488 282 q 515 500 515 408 q 501 655 515 593 q 458 750 486 718 q 391 783 431 783 q 322 750 350 783 q 280 655 294 718 q 266 500 266 593 q 281 345 266 408 q 323 250 296 282 q 391 217 351 217 m 392 -357 q 291 -315 332 -357 q 250 -214 250 -274 q 291 -113 250 -153 q 392 -72 332 -72 q 494 -113 453 -72 q 534 -214 534 -153 q 494 -315 534 -274 q 392 -357 453 -357 z "},"Ò":{"ha":781,"x_min":35,"x_max":746,"o":"m 391 -11 q 197 48 276 -11 q 76 220 117 106 q 35 500 35 334 q 76 780 35 667 q 196 952 117 894 q 391 1010 275 1010 q 583 952 504 1010 q 704 780 663 893 q 746 500 746 666 q 705 221 746 335 q 585 48 664 107 q 391 -11 505 -11 m 391 217 q 460 250 432 217 q 502 345 488 282 q 515 500 515 408 q 501 655 515 593 q 458 750 486 718 q 391 783 431 783 q 322 750 350 783 q 280 655 294 718 q 266 500 266 593 q 281 345 266 408 q 323 250 296 282 q 391 217 351 217 m 392 1047 l 140 1208 l 251 1355 l 490 1145 l 392 1047 z "},"Ỏ":{"ha":781,"x_min":35,"x_max":746,"o":"m 391 -11 q 197 48 276 -11 q 76 220 117 106 q 35 500 35 334 q 76 780 35 667 q 196 952 117 894 q 391 1010 275 1010 q 583 952 504 1010 q 704 780 663 893 q 746 500 746 666 q 705 221 746 335 q 585 48 664 107 q 391 -11 505 -11 m 391 217 q 460 250 432 217 q 502 345 488 282 q 515 500 515 408 q 501 655 515 593 q 458 750 486 718 q 391 783 431 783 q 322 750 350 783 q 280 655 294 718 q 266 500 266 593 q 281 345 266 408 q 323 250 296 282 q 391 217 351 217 m 418 1044 l 334 1126 q 366 1155 351 1139 q 381 1190 381 1171 q 365 1217 381 1207 q 317 1226 349 1226 q 286 1224 306 1226 q 250 1214 265 1221 l 250 1351 q 293 1363 262 1359 q 349 1367 323 1367 q 475 1331 427 1367 q 522 1223 522 1294 q 489 1111 522 1158 q 418 1044 455 1064 z "},"Ơ":{"ha":781,"x_min":35,"x_max":825,"o":"m 391 -11 q 197 48 276 -11 q 76 220 117 106 q 35 500 35 334 q 76 780 35 667 q 196 952 117 894 q 391 1010 275 1010 q 583 952 504 1010 q 704 780 663 893 q 746 500 746 666 q 705 221 746 335 q 585 48 664 107 q 391 -11 505 -11 m 391 217 q 460 250 432 217 q 502 345 488 282 q 515 500 515 408 q 501 655 515 593 q 458 750 486 718 q 391 783 431 783 q 322 750 350 783 q 280 655 294 718 q 266 500 266 593 q 281 345 266 408 q 323 250 296 282 q 391 217 351 217 m 528 814 l 525 967 q 622 996 595 967 q 648 1089 648 1025 q 646 1121 648 1101 q 640 1161 644 1141 l 808 1192 q 821 1133 818 1165 q 825 1081 825 1101 q 781 936 825 998 q 669 841 737 874 q 528 814 601 808 z "},"Ớ":{"ha":781,"x_min":35,"x_max":825,"o":"m 391 -11 q 197 48 276 -11 q 76 220 117 106 q 35 500 35 334 q 76 780 35 667 q 196 952 117 894 q 391 1010 275 1010 q 583 952 504 1010 q 704 780 663 893 q 746 500 746 666 q 705 221 746 335 q 585 48 664 107 q 391 -11 505 -11 m 391 217 q 460 250 432 217 q 502 345 488 282 q 515 500 515 408 q 501 655 515 593 q 458 750 486 718 q 391 783 431 783 q 322 750 350 783 q 280 655 294 718 q 266 500 266 593 q 281 345 266 408 q 323 250 296 282 q 391 217 351 217 m 528 814 l 525 967 q 622 996 595 967 q 648 1089 648 1025 q 646 1121 648 1101 q 640 1161 644 1141 l 808 1192 q 821 1133 818 1165 q 825 1081 825 1101 q 781 936 825 998 q 669 841 737 874 q 528 814 601 808 m 392 1047 l 294 1145 l 533 1355 l 644 1208 l 392 1047 z "},"Ợ":{"ha":781,"x_min":35,"x_max":825,"o":"m 391 -11 q 197 48 276 -11 q 76 220 117 106 q 35 500 35 334 q 76 780 35 667 q 196 952 117 894 q 391 1010 275 1010 q 583 952 504 1010 q 704 780 663 893 q 746 500 746 666 q 705 221 746 335 q 585 48 664 107 q 391 -11 505 -11 m 391 217 q 460 250 432 217 q 502 345 488 282 q 515 500 515 408 q 501 655 515 593 q 458 750 486 718 q 391 783 431 783 q 322 750 350 783 q 280 655 294 718 q 266 500 266 593 q 281 345 266 408 q 323 250 296 282 q 391 217 351 217 m 528 814 l 525 967 q 622 996 595 967 q 648 1089 648 1025 q 646 1121 648 1101 q 640 1161 644 1141 l 808 1192 q 821 1133 818 1165 q 825 1081 825 1101 q 781 936 825 998 q 669 841 737 874 q 528 814 601 808 m 391 -357 q 290 -315 331 -357 q 248 -214 248 -274 q 290 -113 248 -153 q 391 -72 331 -72 q 492 -113 452 -72 q 533 -214 533 -153 q 492 -315 533 -274 q 391 -357 452 -357 z "},"Ờ":{"ha":781,"x_min":35,"x_max":825,"o":"m 391 -11 q 197 48 276 -11 q 76 220 117 106 q 35 500 35 334 q 76 780 35 667 q 196 952 117 894 q 391 1010 275 1010 q 583 952 504 1010 q 704 780 663 893 q 746 500 746 666 q 705 221 746 335 q 585 48 664 107 q 391 -11 505 -11 m 391 217 q 460 250 432 217 q 502 345 488 282 q 515 500 515 408 q 501 655 515 593 q 458 750 486 718 q 391 783 431 783 q 322 750 350 783 q 280 655 294 718 q 266 500 266 593 q 281 345 266 408 q 323 250 296 282 q 391 217 351 217 m 528 814 l 525 967 q 622 996 595 967 q 648 1089 648 1025 q 646 1121 648 1101 q 640 1161 644 1141 l 808 1192 q 821 1133 818 1165 q 825 1081 825 1101 q 781 936 825 998 q 669 841 737 874 q 528 814 601 808 m 392 1047 l 140 1208 l 251 1355 l 490 1145 l 392 1047 z "},"Ở":{"ha":781,"x_min":35,"x_max":825,"o":"m 391 -11 q 197 48 276 -11 q 76 220 117 106 q 35 500 35 334 q 76 780 35 667 q 196 952 117 894 q 391 1010 275 1010 q 583 952 504 1010 q 704 780 663 893 q 746 500 746 666 q 705 221 746 335 q 585 48 664 107 q 391 -11 505 -11 m 391 217 q 460 250 432 217 q 502 345 488 282 q 515 500 515 408 q 501 655 515 593 q 458 750 486 718 q 391 783 431 783 q 322 750 350 783 q 280 655 294 718 q 266 500 266 593 q 281 345 266 408 q 323 250 296 282 q 391 217 351 217 m 528 814 l 525 967 q 622 996 595 967 q 648 1089 648 1025 q 646 1121 648 1101 q 640 1161 644 1141 l 808 1192 q 821 1133 818 1165 q 825 1081 825 1101 q 781 936 825 998 q 669 841 737 874 q 528 814 601 808 m 418 1044 l 334 1126 q 366 1155 351 1139 q 381 1190 381 1171 q 365 1217 381 1207 q 317 1226 349 1226 q 286 1224 306 1226 q 250 1214 265 1221 l 250 1351 q 293 1363 262 1359 q 349 1367 323 1367 q 475 1331 427 1367 q 522 1223 522 1294 q 489 1111 522 1158 q 418 1044 455 1064 z "},"Ỡ":{"ha":781,"x_min":35,"x_max":825,"o":"m 391 -11 q 197 48 276 -11 q 76 220 117 106 q 35 500 35 334 q 76 780 35 667 q 196 952 117 894 q 391 1010 275 1010 q 583 952 504 1010 q 704 780 663 893 q 746 500 746 666 q 705 221 746 335 q 585 48 664 107 q 391 -11 505 -11 m 391 217 q 460 250 432 217 q 502 345 488 282 q 515 500 515 408 q 501 655 515 593 q 458 750 486 718 q 391 783 431 783 q 322 750 350 783 q 280 655 294 718 q 266 500 266 593 q 281 345 266 408 q 323 250 296 282 q 391 217 351 217 m 528 814 l 525 967 q 622 996 595 967 q 648 1089 648 1025 q 646 1121 648 1101 q 640 1161 644 1141 l 808 1192 q 821 1133 818 1165 q 825 1081 825 1101 q 781 936 825 998 q 669 841 737 874 q 528 814 601 808 m 126 1063 q 170 1219 126 1157 q 293 1280 213 1280 q 359 1269 333 1280 q 404 1243 386 1258 q 437 1217 422 1228 q 471 1206 452 1206 q 507 1227 495 1206 q 518 1280 518 1249 l 659 1280 q 616 1126 661 1189 q 490 1063 572 1063 q 425 1075 451 1063 q 381 1103 399 1087 q 348 1130 363 1118 q 313 1142 332 1142 q 279 1121 289 1142 q 269 1063 269 1100 l 126 1063 z "},"Ő":{"ha":781,"x_min":35,"x_max":758,"o":"m 391 -11 q 197 48 276 -11 q 76 220 117 106 q 35 500 35 334 q 76 780 35 667 q 196 952 117 894 q 391 1010 275 1010 q 583 952 504 1010 q 704 780 663 893 q 746 500 746 666 q 705 221 746 335 q 585 48 664 107 q 391 -11 505 -11 m 391 217 q 460 250 432 217 q 502 345 488 282 q 515 500 515 408 q 501 655 515 593 q 458 750 486 718 q 391 783 431 783 q 322 750 350 783 q 280 655 294 718 q 266 500 266 593 q 281 345 266 408 q 323 250 296 282 q 391 217 351 217 m 302 1055 l 183 1114 l 331 1362 l 483 1275 l 302 1055 m 581 1055 l 463 1114 l 604 1362 l 758 1275 l 581 1055 z "},"Ȏ":{"ha":781,"x_min":35,"x_max":746,"o":"m 391 -11 q 197 48 276 -11 q 76 220 117 106 q 35 500 35 334 q 76 780 35 667 q 196 952 117 894 q 391 1010 275 1010 q 583 952 504 1010 q 704 780 663 893 q 746 500 746 666 q 705 221 746 335 q 585 48 664 107 q 391 -11 505 -11 m 391 217 q 460 250 432 217 q 502 345 488 282 q 515 500 515 408 q 501 655 515 593 q 458 750 486 718 q 391 783 431 783 q 322 750 350 783 q 280 655 294 718 q 266 500 266 593 q 281 345 266 408 q 323 250 296 282 q 391 217 351 217 m 391 1293 q 523 1267 461 1293 q 621 1191 584 1242 q 658 1065 659 1141 l 514 1065 q 477 1144 516 1121 q 391 1166 439 1166 q 307 1144 347 1166 q 266 1065 267 1121 l 125 1065 q 162 1191 125 1141 q 259 1267 199 1242 q 391 1293 319 1293 z "},"Ō":{"ha":781,"x_min":35,"x_max":746,"o":"m 391 -11 q 197 48 276 -11 q 76 220 117 106 q 35 500 35 334 q 76 780 35 667 q 196 952 117 894 q 391 1010 275 1010 q 583 952 504 1010 q 704 780 663 893 q 746 500 746 666 q 705 221 746 335 q 585 48 664 107 q 391 -11 505 -11 m 391 217 q 460 250 432 217 q 502 345 488 282 q 515 500 515 408 q 501 655 515 593 q 458 750 486 718 q 391 783 431 783 q 322 750 350 783 q 280 655 294 718 q 266 500 266 593 q 281 345 266 408 q 323 250 296 282 q 391 217 351 217 m 118 1095 l 118 1251 l 665 1251 l 665 1095 l 118 1095 z "},"Ṓ":{"ha":781,"x_min":35,"x_max":746,"o":"m 118 1095 l 118 1251 l 665 1251 l 665 1095 l 118 1095 m 392 1298 l 294 1396 l 533 1606 l 644 1459 l 392 1298 m 391 -11 q 197 48 276 -11 q 76 220 117 106 q 35 500 35 334 q 76 780 35 667 q 196 952 117 894 q 391 1010 275 1010 q 583 952 504 1010 q 704 780 663 893 q 746 500 746 666 q 705 221 746 335 q 585 48 664 107 q 391 -11 505 -11 m 391 217 q 460 250 432 217 q 502 345 488 282 q 515 500 515 408 q 501 655 515 593 q 458 750 486 718 q 391 783 431 783 q 322 750 350 783 q 280 655 294 718 q 266 500 266 593 q 281 345 266 408 q 323 250 296 282 q 391 217 351 217 z "},"Ṑ":{"ha":781,"x_min":35,"x_max":746,"o":"m 391 -11 q 197 48 276 -11 q 76 220 117 106 q 35 500 35 334 q 76 780 35 667 q 196 952 117 894 q 391 1010 275 1010 q 583 952 504 1010 q 704 780 663 893 q 746 500 746 666 q 705 221 746 335 q 585 48 664 107 q 391 -11 505 -11 m 391 217 q 460 250 432 217 q 502 345 488 282 q 515 500 515 408 q 501 655 515 593 q 458 750 486 718 q 391 783 431 783 q 322 750 350 783 q 280 655 294 718 q 266 500 266 593 q 281 345 266 408 q 323 250 296 282 q 391 217 351 217 m 118 1095 l 118 1251 l 665 1251 l 665 1095 l 118 1095 m 392 1298 l 140 1459 l 251 1606 l 490 1396 l 392 1298 z "},"Ǫ":{"ha":781,"x_min":35,"x_max":746,"o":"m 391 -11 q 197 48 276 -11 q 76 220 117 106 q 35 500 35 334 q 76 780 35 667 q 196 952 117 894 q 391 1010 275 1010 q 583 952 504 1010 q 704 780 663 893 q 746 500 746 666 q 705 221 746 335 q 585 48 664 107 q 391 -11 505 -11 m 391 217 q 460 250 432 217 q 502 345 488 282 q 515 500 515 408 q 501 655 515 593 q 458 750 486 718 q 391 783 431 783 q 322 750 350 783 q 280 655 294 718 q 266 500 266 593 q 281 345 266 408 q 323 250 296 282 q 391 217 351 217 m 353 -297 q 238 -258 282 -297 q 194 -153 194 -219 q 233 -51 194 -96 q 343 37 271 -6 l 464 0 q 400 -41 429 -21 q 355 -82 372 -62 q 338 -125 338 -103 q 351 -154 338 -144 q 395 -164 365 -164 q 432 -160 412 -164 q 461 -151 452 -157 l 461 -281 q 408 -293 441 -289 q 353 -297 374 -297 z "},"Ø":{"ha":781,"x_min":-22,"x_max":803,"o":"m 391 -11 q 197 48 276 -11 q 76 220 117 106 q 35 500 35 334 q 76 780 35 667 q 196 952 117 894 q 391 1010 275 1010 q 583 952 504 1010 q 704 780 663 893 q 746 500 746 666 q 705 221 746 335 q 585 48 664 107 q 391 -11 505 -11 m 391 217 q 460 250 432 217 q 502 345 488 282 q 515 500 515 408 q 501 655 515 593 q 458 750 486 718 q 391 783 431 783 q 322 750 350 783 q 280 655 294 718 q 266 500 266 593 q 281 345 266 408 q 323 250 296 282 q 391 217 351 217 m -22 0 l 585 1000 l 803 1000 l 201 0 l -22 0 z "},"Ǿ":{"ha":781,"x_min":-22,"x_max":803,"o":"m 391 -11 q 197 48 276 -11 q 76 220 117 106 q 35 500 35 334 q 76 780 35 667 q 196 952 117 894 q 391 1010 275 1010 q 583 952 504 1010 q 704 780 663 893 q 746 500 746 666 q 705 221 746 335 q 585 48 664 107 q 391 -11 505 -11 m 391 217 q 460 250 432 217 q 502 345 488 282 q 515 500 515 408 q 501 655 515 593 q 458 750 486 718 q 391 783 431 783 q 322 750 350 783 q 280 655 294 718 q 266 500 266 593 q 281 345 266 408 q 323 250 296 282 q 391 217 351 217 m -22 0 l 585 1000 l 803 1000 l 201 0 l -22 0 m 392 1047 l 294 1145 l 533 1355 l 644 1208 l 392 1047 z "},"Õ":{"ha":781,"x_min":35,"x_max":746,"o":"m 391 -11 q 197 48 276 -11 q 76 220 117 106 q 35 500 35 334 q 76 780 35 667 q 196 952 117 894 q 391 1010 275 1010 q 583 952 504 1010 q 704 780 663 893 q 746 500 746 666 q 705 221 746 335 q 585 48 664 107 q 391 -11 505 -11 m 391 217 q 460 250 432 217 q 502 345 488 282 q 515 500 515 408 q 501 655 515 593 q 458 750 486 718 q 391 783 431 783 q 322 750 350 783 q 280 655 294 718 q 266 500 266 593 q 281 345 266 408 q 323 250 296 282 q 391 217 351 217 m 126 1063 q 170 1219 126 1157 q 293 1280 213 1280 q 359 1269 333 1280 q 404 1243 386 1258 q 437 1217 422 1228 q 471 1206 452 1206 q 507 1227 495 1206 q 518 1280 518 1249 l 659 1280 q 616 1126 661 1189 q 490 1063 572 1063 q 425 1075 451 1063 q 381 1103 399 1087 q 348 1130 363 1118 q 313 1142 332 1142 q 279 1121 289 1142 q 269 1063 269 1100 l 126 1063 z "},"Ṍ":{"ha":781,"x_min":35,"x_max":746,"o":"m 391 -11 q 197 48 276 -11 q 76 220 117 106 q 35 500 35 334 q 76 780 35 667 q 196 952 117 894 q 391 1010 275 1010 q 583 952 504 1010 q 704 780 663 893 q 746 500 746 666 q 705 221 746 335 q 585 48 664 107 q 391 -11 505 -11 m 391 217 q 460 250 432 217 q 502 345 488 282 q 515 500 515 408 q 501 655 515 593 q 458 750 486 718 q 391 783 431 783 q 322 750 350 783 q 280 655 294 718 q 266 500 266 593 q 281 345 266 408 q 323 250 296 282 q 391 217 351 217 m 126 1063 q 170 1219 126 1157 q 293 1280 213 1280 q 359 1269 333 1280 q 404 1243 386 1258 q 437 1217 422 1228 q 471 1206 452 1206 q 507 1227 495 1206 q 518 1280 518 1249 l 659 1280 q 616 1126 661 1189 q 490 1063 572 1063 q 425 1075 451 1063 q 381 1103 399 1087 q 348 1130 363 1118 q 313 1142 332 1142 q 279 1121 289 1142 q 269 1063 269 1100 l 126 1063 m 392 1325 l 294 1423 l 533 1633 l 644 1487 l 392 1325 z "},"Ṏ":{"ha":781,"x_min":35,"x_max":746,"o":"m 391 -11 q 197 48 276 -11 q 76 220 117 106 q 35 500 35 334 q 76 780 35 667 q 196 952 117 894 q 391 1010 275 1010 q 583 952 504 1010 q 704 780 663 893 q 746 500 746 666 q 705 221 746 335 q 585 48 664 107 q 391 -11 505 -11 m 391 217 q 460 250 432 217 q 502 345 488 282 q 515 500 515 408 q 501 655 515 593 q 458 750 486 718 q 391 783 431 783 q 322 750 350 783 q 280 655 294 718 q 266 500 266 593 q 281 345 266 408 q 323 250 296 282 q 391 217 351 217 m 126 1063 q 170 1219 126 1157 q 293 1280 213 1280 q 359 1269 333 1280 q 404 1243 386 1258 q 437 1217 422 1228 q 471 1206 452 1206 q 507 1227 495 1206 q 518 1280 518 1249 l 659 1280 q 616 1126 661 1189 q 490 1063 572 1063 q 425 1075 451 1063 q 381 1103 399 1087 q 348 1130 363 1118 q 313 1142 332 1142 q 279 1121 289 1142 q 269 1063 269 1100 l 126 1063 m 564 1322 q 469 1358 507 1322 q 433 1450 432 1394 q 469 1543 432 1506 q 564 1580 507 1580 q 654 1543 618 1580 q 690 1450 690 1506 q 654 1358 690 1394 q 564 1322 618 1322 m 225 1322 q 134 1358 170 1322 q 98 1450 98 1394 q 134 1543 98 1506 q 225 1580 170 1580 q 318 1543 281 1580 q 355 1450 355 1506 q 318 1358 355 1394 q 225 1322 281 1322 z "},"Ȭ":{"ha":781,"x_min":35,"x_max":746,"o":"m 391 -11 q 197 48 276 -11 q 76 220 117 106 q 35 500 35 334 q 76 780 35 667 q 196 952 117 894 q 391 1010 275 1010 q 583 952 504 1010 q 704 780 663 893 q 746 500 746 666 q 705 221 746 335 q 585 48 664 107 q 391 -11 505 -11 m 391 217 q 460 250 432 217 q 502 345 488 282 q 515 500 515 408 q 501 655 515 593 q 458 750 486 718 q 391 783 431 783 q 322 750 350 783 q 280 655 294 718 q 266 500 266 593 q 281 345 266 408 q 323 250 296 282 q 391 217 351 217 m 126 1063 q 170 1219 126 1157 q 293 1280 213 1280 q 359 1269 333 1280 q 404 1243 386 1258 q 437 1217 422 1228 q 471 1206 452 1206 q 507 1227 495 1206 q 518 1280 518 1249 l 659 1280 q 616 1126 661 1189 q 490 1063 572 1063 q 425 1075 451 1063 q 381 1103 399 1087 q 348 1130 363 1118 q 313 1142 332 1142 q 279 1121 289 1142 q 269 1063 269 1100 l 126 1063 m 118 1373 l 118 1529 l 665 1529 l 665 1373 l 118 1373 z "},"Œ":{"ha":781,"x_min":16,"x_max":760,"o":"m 283 -11 q 144 50 204 -11 q 50 224 83 110 q 16 500 16 338 q 50 776 16 662 q 143 950 83 890 q 283 1010 203 1010 q 364 987 331 1010 q 421 916 397 964 q 464 792 445 867 l 437 792 l 437 1000 l 760 1000 l 760 777 l 605 777 l 605 612 l 732 612 l 732 397 l 605 397 l 605 222 l 760 222 l 760 0 l 437 0 l 437 209 l 464 209 q 420 83 444 132 q 362 12 395 35 q 283 -11 330 -11 m 328 209 q 399 283 374 209 q 425 500 425 357 q 400 716 425 642 q 330 791 376 791 q 258 715 281 791 q 236 500 236 640 q 258 285 236 361 q 328 209 281 209 z "},"P":{"ha":781,"x_min":80,"x_max":761,"o":"m 282 305 l 282 525 l 403 525 q 464 542 437 525 q 505 588 490 559 q 519 652 519 616 q 486 743 519 709 q 396 777 452 777 l 282 777 l 282 1000 l 411 1000 q 598 958 520 1000 q 719 840 677 916 q 761 661 761 764 q 717 474 761 554 q 594 350 673 394 q 414 305 516 305 l 282 305 m 80 0 l 80 1000 l 327 1000 l 327 0 l 80 0 z "},"Þ":{"ha":781,"x_min":79,"x_max":751,"o":"m 274 156 l 274 373 l 407 373 q 464 390 439 373 q 502 437 488 408 q 515 503 515 467 q 483 596 515 562 q 397 631 450 631 l 274 631 l 274 848 l 414 848 q 592 807 516 848 q 710 690 668 766 q 751 510 751 614 q 710 326 751 406 q 593 201 668 246 q 419 156 518 156 l 274 156 m 79 0 l 79 1000 l 326 1000 l 326 0 l 79 0 z "},"Q":{"ha":781,"x_min":38,"x_max":779,"o":"m 385 -11 q 196 48 274 -11 q 78 221 119 107 q 38 499 38 334 q 79 780 38 665 q 199 953 120 894 q 391 1012 277 1012 q 582 953 505 1012 q 698 782 659 895 q 736 510 736 670 q 711 278 736 378 q 635 112 685 178 l 575 98 q 504 18 556 46 q 385 -11 452 -11 m 593 0 l 533 117 l 392 187 l 292 369 l 467 369 l 525 250 l 648 203 l 779 0 l 593 0 m 389 209 q 468 234 439 209 q 508 322 496 260 q 519 492 519 384 q 508 651 519 587 q 468 750 496 716 q 389 784 439 784 q 312 752 342 784 q 269 655 283 720 q 255 492 255 591 q 268 338 255 401 q 310 242 281 275 q 389 209 340 209 z "},"R":{"ha":781,"x_min":46,"x_max":779,"o":"m 236 328 l 236 530 l 376 530 q 434 546 408 530 q 475 589 460 562 q 490 652 490 616 q 455 743 490 709 q 369 777 421 777 l 236 777 l 236 1000 l 406 1000 q 566 964 494 1000 q 681 858 638 928 q 724 686 724 788 q 678 504 724 585 q 545 376 631 423 q 339 328 458 328 l 236 328 m 46 0 l 46 1000 l 283 1000 l 283 0 l 46 0 m 510 0 l 346 363 l 522 511 l 779 0 l 510 0 z "},"Ŕ":{"ha":781,"x_min":46,"x_max":779,"o":"m 236 328 l 236 530 l 376 530 q 434 546 408 530 q 475 589 460 562 q 490 652 490 616 q 455 743 490 709 q 369 777 421 777 l 236 777 l 236 1000 l 406 1000 q 566 964 494 1000 q 681 858 638 928 q 724 686 724 788 q 678 504 724 585 q 545 376 631 423 q 339 328 458 328 l 236 328 m 46 0 l 46 1000 l 283 1000 l 283 0 l 46 0 m 510 0 l 346 363 l 522 511 l 779 0 l 510 0 m 353 1047 l 255 1145 l 494 1355 l 605 1208 l 353 1047 z "},"Ř":{"ha":781,"x_min":46,"x_max":779,"o":"m 236 328 l 236 530 l 376 530 q 434 546 408 530 q 475 589 460 562 q 490 652 490 616 q 455 743 490 709 q 369 777 421 777 l 236 777 l 236 1000 l 406 1000 q 566 964 494 1000 q 681 858 638 928 q 724 686 724 788 q 678 504 724 585 q 545 376 631 423 q 339 328 458 328 l 236 328 m 46 0 l 46 1000 l 283 1000 l 283 0 l 46 0 m 510 0 l 346 363 l 522 511 l 779 0 l 510 0 m 187 1328 l 350 1203 l 353 1203 l 521 1328 l 623 1219 l 374 1047 l 330 1047 l 81 1219 l 187 1328 z "},"Ŗ":{"ha":781,"x_min":46,"x_max":779,"o":"m 236 328 l 236 530 l 376 530 q 434 546 408 530 q 475 589 460 562 q 490 652 490 616 q 455 743 490 709 q 369 777 421 777 l 236 777 l 236 1000 l 406 1000 q 566 964 494 1000 q 681 858 638 928 q 724 686 724 788 q 678 504 724 585 q 545 376 631 423 q 339 328 458 328 l 236 328 m 46 0 l 46 1000 l 283 1000 l 283 0 l 46 0 m 510 0 l 346 363 l 522 511 l 779 0 l 510 0 m 331 -437 l 288 -378 l 353 -328 q 377 -303 362 -320 q 405 -269 393 -287 q 416 -236 416 -250 l 442 -236 q 429 -269 442 -254 q 388 -283 416 -283 q 323 -256 355 -283 q 290 -183 290 -229 q 321 -113 290 -139 q 388 -87 351 -87 q 460 -114 430 -87 q 491 -198 491 -141 q 474 -281 491 -245 q 435 -341 457 -317 q 399 -378 414 -366 l 331 -437 z "},"Ȑ":{"ha":781,"x_min":-18,"x_max":779,"o":"m 236 328 l 236 530 l 376 530 q 434 546 408 530 q 475 589 460 562 q 490 652 490 616 q 455 743 490 709 q 369 777 421 777 l 236 777 l 236 1000 l 406 1000 q 566 964 494 1000 q 681 858 638 928 q 724 686 724 788 q 678 504 724 585 q 545 376 631 423 q 339 328 458 328 l 236 328 m 46 0 l 46 1000 l 283 1000 l 283 0 l 46 0 m 510 0 l 346 363 l 522 511 l 779 0 l 510 0 m 164 1055 l -18 1275 l 138 1362 l 282 1114 l 164 1055 m 438 1055 l 262 1275 l 416 1362 l 557 1114 l 438 1055 z "},"Ṛ":{"ha":781,"x_min":46,"x_max":779,"o":"m 236 328 l 236 530 l 376 530 q 434 546 408 530 q 475 589 460 562 q 490 652 490 616 q 455 743 490 709 q 369 777 421 777 l 236 777 l 236 1000 l 406 1000 q 566 964 494 1000 q 681 858 638 928 q 724 686 724 788 q 678 504 724 585 q 545 376 631 423 q 339 328 458 328 l 236 328 m 46 0 l 46 1000 l 283 1000 l 283 0 l 46 0 m 510 0 l 346 363 l 522 511 l 779 0 l 510 0 m 389 -357 q 288 -315 330 -357 q 247 -214 247 -274 q 288 -113 247 -153 q 389 -72 330 -72 q 491 -113 450 -72 q 532 -214 532 -153 q 491 -315 532 -274 q 389 -357 450 -357 z "},"Ȓ":{"ha":781,"x_min":46,"x_max":779,"o":"m 236 328 l 236 530 l 376 530 q 434 546 408 530 q 475 589 460 562 q 490 652 490 616 q 455 743 490 709 q 369 777 421 777 l 236 777 l 236 1000 l 406 1000 q 566 964 494 1000 q 681 858 638 928 q 724 686 724 788 q 678 504 724 585 q 545 376 631 423 q 339 328 458 328 l 236 328 m 46 0 l 46 1000 l 283 1000 l 283 0 l 46 0 m 510 0 l 346 363 l 522 511 l 779 0 l 510 0 m 351 1293 q 483 1267 422 1293 q 582 1191 545 1242 q 618 1065 619 1141 l 475 1065 q 438 1144 477 1121 q 351 1166 399 1166 q 268 1144 308 1166 q 227 1065 228 1121 l 85 1065 q 122 1191 85 1141 q 220 1267 159 1242 q 351 1293 280 1293 z "},"Ṟ":{"ha":781,"x_min":46,"x_max":779,"o":"m 236 328 l 236 530 l 376 530 q 434 546 408 530 q 475 589 460 562 q 490 652 490 616 q 455 743 490 709 q 369 777 421 777 l 236 777 l 236 1000 l 406 1000 q 566 964 494 1000 q 681 858 638 928 q 724 686 724 788 q 678 504 724 585 q 545 376 631 423 q 339 328 458 328 l 236 328 m 46 0 l 46 1000 l 283 1000 l 283 0 l 46 0 m 510 0 l 346 363 l 522 511 l 779 0 l 510 0 m 102 -289 l 102 -145 l 677 -145 l 677 -289 l 102 -289 z "},"S":{"ha":781,"x_min":37,"x_max":735,"o":"m 404 -11 q 247 23 322 -11 q 116 113 172 56 q 37 241 60 170 l 277 342 q 304 284 286 313 q 347 236 322 255 q 403 217 372 217 q 445 229 426 217 q 474 259 463 240 q 486 301 486 279 q 463 355 486 334 q 403 394 440 377 q 322 428 366 411 q 233 466 277 444 q 152 520 189 488 q 92 599 115 552 q 69 715 69 646 q 109 869 69 803 q 220 973 149 936 q 388 1010 292 1010 q 538 983 472 1010 q 648 907 604 955 q 715 798 693 859 l 486 703 q 466 747 480 728 q 432 778 452 767 q 389 789 412 789 q 338 769 358 789 q 319 719 319 749 q 341 663 319 685 q 401 624 364 641 q 483 591 438 608 q 571 554 527 575 q 653 503 616 534 q 712 426 690 472 q 735 313 735 380 q 691 148 735 221 q 571 32 646 75 q 404 -11 496 -11 z "},"Ś":{"ha":781,"x_min":37,"x_max":735,"o":"m 404 -11 q 247 23 322 -11 q 116 113 172 56 q 37 241 60 170 l 277 342 q 304 284 286 313 q 347 236 322 255 q 403 217 372 217 q 445 229 426 217 q 474 259 463 240 q 486 301 486 279 q 463 355 486 334 q 403 394 440 377 q 322 428 366 411 q 233 466 277 444 q 152 520 189 488 q 92 599 115 552 q 69 715 69 646 q 109 869 69 803 q 220 973 149 936 q 388 1010 292 1010 q 538 983 472 1010 q 648 907 604 955 q 715 798 693 859 l 486 703 q 466 747 480 728 q 432 778 452 767 q 389 789 412 789 q 338 769 358 789 q 319 719 319 749 q 341 663 319 685 q 401 624 364 641 q 483 591 438 608 q 571 554 527 575 q 653 503 616 534 q 712 426 690 472 q 735 313 735 380 q 691 148 735 221 q 571 32 646 75 q 404 -11 496 -11 m 393 1047 l 296 1145 l 534 1355 l 646 1208 l 393 1047 z "},"Ṥ":{"ha":781,"x_min":37,"x_max":739,"o":"m 404 -11 q 247 23 322 -11 q 116 113 172 56 q 37 241 60 170 l 277 342 q 304 284 286 313 q 347 236 322 255 q 403 217 372 217 q 445 229 426 217 q 474 259 463 240 q 486 301 486 279 q 463 355 486 334 q 403 394 440 377 q 322 428 366 411 q 233 466 277 444 q 152 520 189 488 q 92 599 115 552 q 69 715 69 646 q 109 869 69 803 q 220 973 149 936 q 388 1010 292 1010 q 538 983 472 1010 q 648 907 604 955 q 715 798 693 859 l 486 703 q 466 747 480 728 q 432 778 452 767 q 389 789 412 789 q 338 769 358 789 q 319 719 319 749 q 341 663 319 685 q 401 624 364 641 q 483 591 438 608 q 571 554 527 575 q 653 503 616 534 q 712 426 690 472 q 735 313 735 380 q 691 148 735 221 q 571 32 646 75 q 404 -11 496 -11 m 510 1047 l 411 1131 l 613 1394 l 739 1267 l 510 1047 m 233 1074 q 132 1116 174 1074 q 91 1217 91 1157 q 132 1318 91 1278 q 233 1359 174 1359 q 335 1318 294 1359 q 376 1217 376 1278 q 335 1116 376 1157 q 233 1074 294 1074 z "},"Š":{"ha":781,"x_min":37,"x_max":735,"o":"m 404 -11 q 247 23 322 -11 q 116 113 172 56 q 37 241 60 170 l 277 342 q 304 284 286 313 q 347 236 322 255 q 403 217 372 217 q 445 229 426 217 q 474 259 463 240 q 486 301 486 279 q 463 355 486 334 q 403 394 440 377 q 322 428 366 411 q 233 466 277 444 q 152 520 189 488 q 92 599 115 552 q 69 715 69 646 q 109 869 69 803 q 220 973 149 936 q 388 1010 292 1010 q 538 983 472 1010 q 648 907 604 955 q 715 798 693 859 l 486 703 q 466 747 480 728 q 432 778 452 767 q 389 789 412 789 q 338 769 358 789 q 319 719 319 749 q 341 663 319 685 q 401 624 364 641 q 483 591 438 608 q 571 554 527 575 q 653 503 616 534 q 712 426 690 472 q 735 313 735 380 q 691 148 735 221 q 571 32 646 75 q 404 -11 496 -11 m 228 1328 l 391 1203 l 393 1203 l 562 1328 l 663 1219 l 415 1047 l 370 1047 l 122 1219 l 228 1328 z "},"Ṧ":{"ha":781,"x_min":37,"x_max":735,"o":"m 404 -11 q 247 23 322 -11 q 116 113 172 56 q 37 241 60 170 l 277 342 q 304 284 286 313 q 347 236 322 255 q 403 217 372 217 q 445 229 426 217 q 474 259 463 240 q 486 301 486 279 q 463 355 486 334 q 403 394 440 377 q 322 428 366 411 q 233 466 277 444 q 152 520 189 488 q 92 599 115 552 q 69 715 69 646 q 109 869 69 803 q 220 973 149 936 q 388 1010 292 1010 q 538 983 472 1010 q 648 907 604 955 q 715 798 693 859 l 486 703 q 466 747 480 728 q 432 778 452 767 q 389 789 412 789 q 338 769 358 789 q 319 719 319 749 q 341 663 319 685 q 401 624 364 641 q 483 591 438 608 q 571 554 527 575 q 653 503 616 534 q 712 426 690 472 q 735 313 735 380 q 691 148 735 221 q 571 32 646 75 q 404 -11 496 -11 m 228 1328 l 391 1203 l 393 1203 l 562 1328 l 663 1219 l 415 1047 l 370 1047 l 122 1219 l 228 1328 m 392 1308 q 291 1349 332 1308 q 250 1450 250 1390 q 291 1552 250 1511 q 392 1592 332 1592 q 494 1552 453 1592 q 534 1450 534 1511 q 494 1349 534 1390 q 392 1308 453 1308 z "},"Ş":{"ha":781,"x_min":37,"x_max":735,"o":"m 404 -11 q 247 23 322 -11 q 116 113 172 56 q 37 241 60 170 l 277 342 q 304 284 286 313 q 347 236 322 255 q 403 217 372 217 q 445 229 426 217 q 474 259 463 240 q 486 301 486 279 q 463 355 486 334 q 403 394 440 377 q 322 428 366 411 q 233 466 277 444 q 152 520 189 488 q 92 599 115 552 q 69 715 69 646 q 109 869 69 803 q 220 973 149 936 q 388 1010 292 1010 q 538 983 472 1010 q 648 907 604 955 q 715 798 693 859 l 486 703 q 466 747 480 728 q 432 778 452 767 q 389 789 412 789 q 338 769 358 789 q 319 719 319 749 q 341 663 319 685 q 401 624 364 641 q 483 591 438 608 q 571 554 527 575 q 653 503 616 534 q 712 426 690 472 q 735 313 735 380 q 691 148 735 221 q 571 32 646 75 q 404 -11 496 -11 m 308 -355 l 308 -241 q 410 -228 380 -243 q 439 -189 439 -212 q 414 -157 439 -170 q 342 -138 389 -143 l 388 0 l 486 0 l 445 -111 l 438 -61 q 539 -106 500 -72 q 578 -199 578 -141 q 514 -313 578 -269 q 308 -355 450 -357 z "},"Ŝ":{"ha":781,"x_min":37,"x_max":735,"o":"m 404 -11 q 247 23 322 -11 q 116 113 172 56 q 37 241 60 170 l 277 342 q 304 284 286 313 q 347 236 322 255 q 403 217 372 217 q 445 229 426 217 q 474 259 463 240 q 486 301 486 279 q 463 355 486 334 q 403 394 440 377 q 322 428 366 411 q 233 466 277 444 q 152 520 189 488 q 92 599 115 552 q 69 715 69 646 q 109 869 69 803 q 220 973 149 936 q 388 1010 292 1010 q 538 983 472 1010 q 648 907 604 955 q 715 798 693 859 l 486 703 q 466 747 480 728 q 432 778 452 767 q 389 789 412 789 q 338 769 358 789 q 319 719 319 749 q 341 663 319 685 q 401 624 364 641 q 483 591 438 608 q 571 554 527 575 q 653 503 616 534 q 712 426 690 472 q 735 313 735 380 q 691 148 735 221 q 571 32 646 75 q 404 -11 496 -11 m 228 1050 l 122 1158 l 370 1331 l 415 1331 l 663 1158 l 562 1050 l 393 1175 l 391 1175 l 228 1050 z "},"Ș":{"ha":781,"x_min":37,"x_max":735,"o":"m 404 -11 q 247 23 322 -11 q 116 113 172 56 q 37 241 60 170 l 277 342 q 304 284 286 313 q 347 236 322 255 q 403 217 372 217 q 445 229 426 217 q 474 259 463 240 q 486 301 486 279 q 463 355 486 334 q 403 394 440 377 q 322 428 366 411 q 233 466 277 444 q 152 520 189 488 q 92 599 115 552 q 69 715 69 646 q 109 869 69 803 q 220 973 149 936 q 388 1010 292 1010 q 538 983 472 1010 q 648 907 604 955 q 715 798 693 859 l 486 703 q 466 747 480 728 q 432 778 452 767 q 389 789 412 789 q 338 769 358 789 q 319 719 319 749 q 341 663 319 685 q 401 624 364 641 q 483 591 438 608 q 571 554 527 575 q 653 503 616 534 q 712 426 690 472 q 735 313 735 380 q 691 148 735 221 q 571 32 646 75 q 404 -11 496 -11 m 359 -437 l 316 -378 l 381 -328 q 406 -303 391 -320 q 433 -269 421 -287 q 445 -236 445 -250 l 471 -236 q 458 -269 471 -254 q 416 -283 445 -283 q 351 -256 384 -283 q 319 -183 319 -229 q 349 -113 319 -139 q 416 -87 380 -87 q 489 -114 458 -87 q 519 -198 519 -141 q 503 -281 519 -245 q 464 -341 486 -317 q 427 -378 442 -366 l 359 -437 z "},"Ṡ":{"ha":781,"x_min":37,"x_max":735,"o":"m 404 -11 q 247 23 322 -11 q 116 113 172 56 q 37 241 60 170 l 277 342 q 304 284 286 313 q 347 236 322 255 q 403 217 372 217 q 445 229 426 217 q 474 259 463 240 q 486 301 486 279 q 463 355 486 334 q 403 394 440 377 q 322 428 366 411 q 233 466 277 444 q 152 520 189 488 q 92 599 115 552 q 69 715 69 646 q 109 869 69 803 q 220 973 149 936 q 388 1010 292 1010 q 538 983 472 1010 q 648 907 604 955 q 715 798 693 859 l 486 703 q 466 747 480 728 q 432 778 452 767 q 389 789 412 789 q 338 769 358 789 q 319 719 319 749 q 341 663 319 685 q 401 624 364 641 q 483 591 438 608 q 571 554 527 575 q 653 503 616 534 q 712 426 690 472 q 735 313 735 380 q 691 148 735 221 q 571 32 646 75 q 404 -11 496 -11 m 392 1057 q 291 1098 332 1057 q 250 1199 250 1139 q 291 1301 250 1260 q 392 1341 332 1341 q 494 1301 453 1341 q 534 1199 534 1260 q 494 1098 534 1139 q 392 1057 453 1057 z "},"Ṣ":{"ha":781,"x_min":37,"x_max":735,"o":"m 404 -11 q 247 23 322 -11 q 116 113 172 56 q 37 241 60 170 l 277 342 q 304 284 286 313 q 347 236 322 255 q 403 217 372 217 q 445 229 426 217 q 474 259 463 240 q 486 301 486 279 q 463 355 486 334 q 403 394 440 377 q 322 428 366 411 q 233 466 277 444 q 152 520 189 488 q 92 599 115 552 q 69 715 69 646 q 109 869 69 803 q 220 973 149 936 q 388 1010 292 1010 q 538 983 472 1010 q 648 907 604 955 q 715 798 693 859 l 486 703 q 466 747 480 728 q 432 778 452 767 q 389 789 412 789 q 338 769 358 789 q 319 719 319 749 q 341 663 319 685 q 401 624 364 641 q 483 591 438 608 q 571 554 527 575 q 653 503 616 534 q 712 426 690 472 q 735 313 735 380 q 691 148 735 221 q 571 32 646 75 q 404 -11 496 -11 m 418 -357 q 317 -315 358 -357 q 275 -214 275 -274 q 317 -113 275 -153 q 418 -72 358 -72 q 519 -113 479 -72 q 560 -214 560 -153 q 519 -315 560 -274 q 418 -357 479 -357 z "},"Ṩ":{"ha":781,"x_min":37,"x_max":735,"o":"m 404 -11 q 247 23 322 -11 q 116 113 172 56 q 37 241 60 170 l 277 342 q 304 284 286 313 q 347 236 322 255 q 403 217 372 217 q 445 229 426 217 q 474 259 463 240 q 486 301 486 279 q 463 355 486 334 q 403 394 440 377 q 322 428 366 411 q 233 466 277 444 q 152 520 189 488 q 92 599 115 552 q 69 715 69 646 q 109 869 69 803 q 220 973 149 936 q 388 1010 292 1010 q 538 983 472 1010 q 648 907 604 955 q 715 798 693 859 l 486 703 q 466 747 480 728 q 432 778 452 767 q 389 789 412 789 q 338 769 358 789 q 319 719 319 749 q 341 663 319 685 q 401 624 364 641 q 483 591 438 608 q 571 554 527 575 q 653 503 616 534 q 712 426 690 472 q 735 313 735 380 q 691 148 735 221 q 571 32 646 75 q 404 -11 496 -11 m 416 -357 q 315 -315 357 -357 q 274 -214 274 -274 q 315 -113 274 -153 q 416 -72 357 -72 q 518 -113 477 -72 q 559 -214 559 -153 q 518 -315 559 -274 q 416 -357 477 -357 m 416 1057 q 315 1098 357 1057 q 274 1199 274 1139 q 315 1301 274 1260 q 416 1341 357 1341 q 518 1301 477 1341 q 559 1199 559 1260 q 518 1098 559 1139 q 416 1057 477 1057 z "},"ẞ":{"ha":781,"x_min":43,"x_max":781,"o":"m 457 -11 q 424 -9 437 -11 q 392 -8 412 -8 l 392 220 q 430 213 420 215 q 446 212 440 212 q 507 225 484 212 q 541 264 530 238 q 552 328 551 290 q 532 419 553 380 q 457 458 510 458 l 389 458 l 389 500 l 479 825 l 492 764 q 469 785 490 777 q 416 793 449 793 q 338 777 367 793 q 297 738 310 761 q 281 694 285 715 q 278 661 278 672 l 278 0 l 43 0 l 43 692 q 62 804 43 753 q 113 893 80 854 q 192 958 146 932 q 291 997 237 984 q 406 1010 345 1010 q 530 1000 467 1010 q 647 972 593 989 q 730 933 700 954 l 730 909 l 595 519 l 590 633 q 696 579 653 623 q 760 471 739 536 q 781 326 781 405 q 742 149 781 224 q 631 31 703 73 q 457 -11 558 -11 z "},"T":{"ha":781,"x_min":34,"x_max":747,"o":"m 266 0 l 266 811 l 515 811 l 515 0 l 266 0 m 34 777 l 34 1000 l 747 1000 l 747 777 l 34 777 z "},"Ŧ":{"ha":781,"x_min":34,"x_max":747,"o":"m 266 0 l 266 811 l 515 811 l 515 0 l 266 0 m 34 777 l 34 1000 l 747 1000 l 747 777 l 34 777 m 167 397 l 167 511 l 614 511 l 614 397 l 167 397 z "},"Ť":{"ha":781,"x_min":34,"x_max":747,"o":"m 266 0 l 266 811 l 515 811 l 515 0 l 266 0 m 34 777 l 34 1000 l 747 1000 l 747 777 l 34 777 m 225 1328 l 388 1203 l 391 1203 l 559 1328 l 661 1219 l 412 1047 l 368 1047 l 119 1219 l 225 1328 z "},"Ţ":{"ha":781,"x_min":34,"x_max":747,"o":"m 266 0 l 266 811 l 515 811 l 515 0 l 266 0 m 34 777 l 34 1000 l 747 1000 l 747 777 l 34 777 m 262 -355 l 262 -241 q 363 -228 334 -243 q 393 -189 393 -212 q 368 -157 393 -170 q 296 -138 343 -143 l 342 0 l 439 0 l 399 -111 l 392 -61 q 493 -106 454 -72 q 532 -199 532 -141 q 468 -313 532 -269 q 262 -355 404 -357 z "},"Ț":{"ha":781,"x_min":34,"x_max":747,"o":"m 266 0 l 266 811 l 515 811 l 515 0 l 266 0 m 34 777 l 34 1000 l 747 1000 l 747 777 l 34 777 m 332 -437 l 289 -378 l 354 -328 q 379 -303 363 -320 q 406 -269 394 -287 q 418 -236 418 -250 l 444 -236 q 431 -269 444 -254 q 389 -283 418 -283 q 324 -256 357 -283 q 292 -183 292 -229 q 322 -113 292 -139 q 389 -87 353 -87 q 462 -114 431 -87 q 492 -198 492 -141 q 475 -281 492 -245 q 437 -341 458 -317 q 400 -378 415 -366 l 332 -437 z "},"Ṭ":{"ha":781,"x_min":34,"x_max":747,"o":"m 266 0 l 266 811 l 515 811 l 515 0 l 266 0 m 34 777 l 34 1000 l 747 1000 l 747 777 l 34 777 m 391 -357 q 290 -315 331 -357 q 248 -214 248 -274 q 290 -113 248 -153 q 391 -72 331 -72 q 492 -113 452 -72 q 533 -214 533 -153 q 492 -315 533 -274 q 391 -357 452 -357 z "},"Ṯ":{"ha":781,"x_min":34,"x_max":747,"o":"m 266 0 l 266 811 l 515 811 l 515 0 l 266 0 m 34 777 l 34 1000 l 747 1000 l 747 777 l 34 777 m 103 -289 l 103 -145 l 678 -145 l 678 -289 l 103 -289 z "},"U":{"ha":781,"x_min":43,"x_max":738,"o":"m 391 -11 q 208 37 286 -11 q 86 170 130 84 q 43 372 43 256 l 43 1000 l 282 1000 l 282 349 q 311 249 282 287 q 391 212 340 212 q 471 249 443 212 q 499 349 499 287 l 499 1000 l 738 1000 l 738 372 q 695 170 738 256 q 574 37 652 84 q 391 -11 496 -11 z "},"Ú":{"ha":781,"x_min":43,"x_max":738,"o":"m 391 -11 q 208 37 286 -11 q 86 170 130 84 q 43 372 43 256 l 43 1000 l 282 1000 l 282 349 q 311 249 282 287 q 391 212 340 212 q 471 249 443 212 q 499 349 499 287 l 499 1000 l 738 1000 l 738 372 q 695 170 738 256 q 574 37 652 84 q 391 -11 496 -11 m 391 1047 l 293 1145 l 532 1355 l 643 1208 l 391 1047 z "},"Ŭ":{"ha":781,"x_min":43,"x_max":738,"o":"m 391 -11 q 208 37 286 -11 q 86 170 130 84 q 43 372 43 256 l 43 1000 l 282 1000 l 282 349 q 311 249 282 287 q 391 212 340 212 q 471 249 443 212 q 499 349 499 287 l 499 1000 l 738 1000 l 738 372 q 695 170 738 256 q 574 37 652 84 q 391 -11 496 -11 m 391 1063 q 259 1089 319 1063 q 162 1165 199 1114 q 125 1291 125 1215 l 266 1291 q 307 1213 267 1236 q 391 1190 347 1190 q 477 1213 439 1190 q 514 1291 516 1236 l 658 1291 q 621 1165 659 1215 q 523 1089 584 1114 q 391 1063 461 1063 z "},"Û":{"ha":781,"x_min":43,"x_max":738,"o":"m 391 -11 q 208 37 286 -11 q 86 170 130 84 q 43 372 43 256 l 43 1000 l 282 1000 l 282 349 q 311 249 282 287 q 391 212 340 212 q 471 249 443 212 q 499 349 499 287 l 499 1000 l 738 1000 l 738 372 q 695 170 738 256 q 574 37 652 84 q 391 -11 496 -11 m 225 1050 l 119 1158 l 368 1331 l 412 1331 l 661 1158 l 559 1050 l 391 1175 l 388 1175 l 225 1050 z "},"Ȕ":{"ha":781,"x_min":20,"x_max":738,"o":"m 391 -11 q 208 37 286 -11 q 86 170 130 84 q 43 372 43 256 l 43 1000 l 282 1000 l 282 349 q 311 249 282 287 q 391 212 340 212 q 471 249 443 212 q 499 349 499 287 l 499 1000 l 738 1000 l 738 372 q 695 170 738 256 q 574 37 652 84 q 391 -11 496 -11 m 202 1055 l 20 1275 l 176 1362 l 320 1114 l 202 1055 m 476 1055 l 300 1275 l 454 1362 l 595 1114 l 476 1055 z "},"Ü":{"ha":781,"x_min":43,"x_max":738,"o":"m 391 -11 q 208 37 286 -11 q 86 170 130 84 q 43 372 43 256 l 43 1000 l 282 1000 l 282 349 q 311 249 282 287 q 391 212 340 212 q 471 249 443 212 q 499 349 499 287 l 499 1000 l 738 1000 l 738 372 q 695 170 738 256 q 574 37 652 84 q 391 -11 496 -11 m 563 1044 q 468 1080 505 1044 q 431 1172 431 1116 q 468 1265 431 1228 q 563 1302 505 1302 q 653 1265 617 1302 q 689 1172 688 1228 q 653 1080 688 1116 q 563 1044 617 1044 m 224 1044 q 132 1080 168 1044 q 96 1172 96 1116 q 132 1265 96 1228 q 224 1302 168 1302 q 317 1265 280 1302 q 354 1172 354 1228 q 317 1080 354 1116 q 224 1044 280 1044 z "},"Ụ":{"ha":781,"x_min":43,"x_max":738,"o":"m 391 -11 q 208 37 286 -11 q 86 170 130 84 q 43 372 43 256 l 43 1000 l 282 1000 l 282 349 q 311 249 282 287 q 391 212 340 212 q 471 249 443 212 q 499 349 499 287 l 499 1000 l 738 1000 l 738 372 q 695 170 738 256 q 574 37 652 84 q 391 -11 496 -11 m 389 -357 q 288 -315 330 -357 q 247 -214 247 -274 q 288 -113 247 -153 q 389 -72 330 -72 q 491 -113 450 -72 q 532 -214 532 -153 q 491 -315 532 -274 q 389 -357 450 -357 z "},"Ù":{"ha":781,"x_min":43,"x_max":738,"o":"m 391 -11 q 208 37 286 -11 q 86 170 130 84 q 43 372 43 256 l 43 1000 l 282 1000 l 282 349 q 311 249 282 287 q 391 212 340 212 q 471 249 443 212 q 499 349 499 287 l 499 1000 l 738 1000 l 738 372 q 695 170 738 256 q 574 37 652 84 q 391 -11 496 -11 m 391 1047 l 138 1208 l 250 1355 l 488 1145 l 391 1047 z "},"Ủ":{"ha":781,"x_min":43,"x_max":738,"o":"m 391 -11 q 208 37 286 -11 q 86 170 130 84 q 43 372 43 256 l 43 1000 l 282 1000 l 282 349 q 311 249 282 287 q 391 212 340 212 q 471 249 443 212 q 499 349 499 287 l 499 1000 l 738 1000 l 738 372 q 695 170 738 256 q 574 37 652 84 q 391 -11 496 -11 m 416 1044 l 332 1126 q 365 1155 350 1139 q 380 1190 380 1171 q 363 1217 380 1207 q 316 1226 347 1226 q 284 1224 304 1226 q 248 1214 264 1221 l 248 1351 q 291 1363 261 1359 q 347 1367 321 1367 q 473 1331 426 1367 q 521 1223 521 1294 q 487 1111 521 1158 q 416 1044 454 1064 z "},"Ư":{"ha":781,"x_min":43,"x_max":977,"o":"m 391 -11 q 208 37 286 -11 q 86 170 130 84 q 43 372 43 256 l 43 1000 l 282 1000 l 282 349 q 311 249 282 287 q 391 212 340 212 q 471 249 443 212 q 499 349 499 287 l 499 1000 l 738 1000 l 738 372 q 695 170 738 256 q 574 37 652 84 q 391 -11 496 -11 m 680 846 l 677 1000 q 773 1029 747 1000 q 800 1122 800 1058 q 798 1153 800 1133 q 792 1194 795 1173 l 960 1225 q 973 1165 970 1198 q 977 1114 977 1133 q 933 969 977 1031 q 821 874 889 907 q 680 846 753 841 z "},"Ứ":{"ha":781,"x_min":43,"x_max":977,"o":"m 391 -11 q 208 37 286 -11 q 86 170 130 84 q 43 372 43 256 l 43 1000 l 282 1000 l 282 349 q 311 249 282 287 q 391 212 340 212 q 471 249 443 212 q 499 349 499 287 l 499 1000 l 738 1000 l 738 372 q 695 170 738 256 q 574 37 652 84 q 391 -11 496 -11 m 680 846 l 677 1000 q 773 1029 747 1000 q 800 1122 800 1058 q 798 1153 800 1133 q 792 1194 795 1173 l 960 1225 q 973 1165 970 1198 q 977 1114 977 1133 q 933 969 977 1031 q 821 874 889 907 q 680 846 753 841 m 391 1047 l 293 1145 l 532 1355 l 643 1208 l 391 1047 z "},"Ự":{"ha":781,"x_min":43,"x_max":977,"o":"m 391 -11 q 208 37 286 -11 q 86 170 130 84 q 43 372 43 256 l 43 1000 l 282 1000 l 282 349 q 311 249 282 287 q 391 212 340 212 q 471 249 443 212 q 499 349 499 287 l 499 1000 l 738 1000 l 738 372 q 695 170 738 256 q 574 37 652 84 q 391 -11 496 -11 m 680 846 l 677 1000 q 773 1029 747 1000 q 800 1122 800 1058 q 798 1153 800 1133 q 792 1194 795 1173 l 960 1225 q 973 1165 970 1198 q 977 1114 977 1133 q 933 969 977 1031 q 821 874 889 907 q 680 846 753 841 m 389 -357 q 288 -315 330 -357 q 247 -214 247 -274 q 288 -113 247 -153 q 389 -72 330 -72 q 491 -113 450 -72 q 532 -214 532 -153 q 491 -315 532 -274 q 389 -357 450 -357 z "},"Ừ":{"ha":781,"x_min":43,"x_max":977,"o":"m 391 -11 q 208 37 286 -11 q 86 170 130 84 q 43 372 43 256 l 43 1000 l 282 1000 l 282 349 q 311 249 282 287 q 391 212 340 212 q 471 249 443 212 q 499 349 499 287 l 499 1000 l 738 1000 l 738 372 q 695 170 738 256 q 574 37 652 84 q 391 -11 496 -11 m 680 846 l 677 1000 q 773 1029 747 1000 q 800 1122 800 1058 q 798 1153 800 1133 q 792 1194 795 1173 l 960 1225 q 973 1165 970 1198 q 977 1114 977 1133 q 933 969 977 1031 q 821 874 889 907 q 680 846 753 841 m 391 1047 l 138 1208 l 250 1355 l 488 1145 l 391 1047 z "},"Ử":{"ha":781,"x_min":43,"x_max":977,"o":"m 391 -11 q 208 37 286 -11 q 86 170 130 84 q 43 372 43 256 l 43 1000 l 282 1000 l 282 349 q 311 249 282 287 q 391 212 340 212 q 471 249 443 212 q 499 349 499 287 l 499 1000 l 738 1000 l 738 372 q 695 170 738 256 q 574 37 652 84 q 391 -11 496 -11 m 680 846 l 677 1000 q 773 1029 747 1000 q 800 1122 800 1058 q 798 1153 800 1133 q 792 1194 795 1173 l 960 1225 q 973 1165 970 1198 q 977 1114 977 1133 q 933 969 977 1031 q 821 874 889 907 q 680 846 753 841 m 416 1044 l 332 1126 q 365 1155 350 1139 q 380 1190 380 1171 q 363 1217 380 1207 q 316 1226 347 1226 q 284 1224 304 1226 q 248 1214 264 1221 l 248 1351 q 291 1363 261 1359 q 347 1367 321 1367 q 473 1331 426 1367 q 521 1223 521 1294 q 487 1111 521 1158 q 416 1044 454 1064 z "},"Ữ":{"ha":781,"x_min":43,"x_max":977,"o":"m 391 -11 q 208 37 286 -11 q 86 170 130 84 q 43 372 43 256 l 43 1000 l 282 1000 l 282 349 q 311 249 282 287 q 391 212 340 212 q 471 249 443 212 q 499 349 499 287 l 499 1000 l 738 1000 l 738 372 q 695 170 738 256 q 574 37 652 84 q 391 -11 496 -11 m 680 846 l 677 1000 q 773 1029 747 1000 q 800 1122 800 1058 q 798 1153 800 1133 q 792 1194 795 1173 l 960 1225 q 973 1165 970 1198 q 977 1114 977 1133 q 933 969 977 1031 q 821 874 889 907 q 680 846 753 841 m 125 1063 q 168 1219 125 1157 q 292 1280 212 1280 q 358 1269 332 1280 q 402 1243 385 1258 q 436 1217 420 1228 q 469 1206 451 1206 q 505 1227 494 1206 q 517 1280 517 1249 l 658 1280 q 615 1126 659 1189 q 488 1063 571 1063 q 424 1075 450 1063 q 380 1103 398 1087 q 347 1130 362 1118 q 312 1142 331 1142 q 277 1121 288 1142 q 267 1063 267 1100 l 125 1063 z "},"Ű":{"ha":781,"x_min":43,"x_max":757,"o":"m 391 -11 q 208 37 286 -11 q 86 170 130 84 q 43 372 43 256 l 43 1000 l 282 1000 l 282 349 q 311 249 282 287 q 391 212 340 212 q 471 249 443 212 q 499 349 499 287 l 499 1000 l 738 1000 l 738 372 q 695 170 738 256 q 574 37 652 84 q 391 -11 496 -11 m 301 1055 l 182 1114 l 330 1362 l 481 1275 l 301 1055 m 579 1055 l 461 1114 l 602 1362 l 757 1275 l 579 1055 z "},"Ȗ":{"ha":781,"x_min":43,"x_max":738,"o":"m 391 -11 q 208 37 286 -11 q 86 170 130 84 q 43 372 43 256 l 43 1000 l 282 1000 l 282 349 q 311 249 282 287 q 391 212 340 212 q 471 249 443 212 q 499 349 499 287 l 499 1000 l 738 1000 l 738 372 q 695 170 738 256 q 574 37 652 84 q 391 -11 496 -11 m 389 1293 q 521 1267 460 1293 q 620 1191 583 1242 q 656 1065 657 1141 l 513 1065 q 476 1144 515 1121 q 389 1166 437 1166 q 306 1144 346 1166 q 264 1065 266 1121 l 123 1065 q 160 1191 123 1141 q 258 1267 197 1242 q 389 1293 318 1293 z "},"Ū":{"ha":781,"x_min":43,"x_max":738,"o":"m 391 -11 q 208 37 286 -11 q 86 170 130 84 q 43 372 43 256 l 43 1000 l 282 1000 l 282 349 q 311 249 282 287 q 391 212 340 212 q 471 249 443 212 q 499 349 499 287 l 499 1000 l 738 1000 l 738 372 q 695 170 738 256 q 574 37 652 84 q 391 -11 496 -11 m 117 1095 l 117 1251 l 663 1251 l 663 1095 l 117 1095 z "},"Ṻ":{"ha":781,"x_min":43,"x_max":738,"o":"m 391 -11 q 208 37 286 -11 q 86 170 130 84 q 43 372 43 256 l 43 1000 l 282 1000 l 282 349 q 311 249 282 287 q 391 212 340 212 q 471 249 443 212 q 499 349 499 287 l 499 1000 l 738 1000 l 738 372 q 695 170 738 256 q 574 37 652 84 q 391 -11 496 -11 m 117 1095 l 117 1251 l 663 1251 l 663 1095 l 117 1095 m 563 1295 q 468 1331 505 1295 q 431 1423 431 1367 q 468 1516 431 1479 q 563 1553 505 1553 q 653 1516 617 1553 q 689 1423 688 1479 q 653 1331 688 1367 q 563 1295 617 1295 m 224 1295 q 132 1331 168 1295 q 96 1423 96 1367 q 132 1516 96 1479 q 224 1553 168 1553 q 317 1516 280 1553 q 354 1423 354 1479 q 317 1331 354 1367 q 224 1295 280 1295 z "},"Ų":{"ha":781,"x_min":43,"x_max":738,"o":"m 391 -11 q 208 37 286 -11 q 86 170 130 84 q 43 372 43 256 l 43 1000 l 282 1000 l 282 349 q 311 249 282 287 q 391 212 340 212 q 471 249 443 212 q 499 349 499 287 l 499 1000 l 738 1000 l 738 372 q 695 170 738 256 q 574 37 652 84 q 391 -11 496 -11 m 359 -297 q 245 -258 289 -297 q 201 -153 201 -219 q 239 -51 201 -96 q 350 37 278 -6 l 471 0 q 407 -41 436 -21 q 361 -82 378 -62 q 345 -125 345 -103 q 358 -154 345 -144 q 401 -164 372 -164 q 438 -160 418 -164 q 468 -151 458 -157 l 468 -281 q 414 -293 448 -289 q 359 -297 380 -297 z "},"Ů":{"ha":781,"x_min":43,"x_max":738,"o":"m 391 -11 q 208 37 286 -11 q 86 170 130 84 q 43 372 43 256 l 43 1000 l 282 1000 l 282 349 q 311 249 282 287 q 391 212 340 212 q 471 249 443 212 q 499 349 499 287 l 499 1000 l 738 1000 l 738 372 q 695 170 738 256 q 574 37 652 84 q 391 -11 496 -11 m 391 1044 q 292 1070 336 1044 q 221 1139 248 1095 q 195 1236 195 1182 q 221 1336 195 1292 q 292 1406 248 1380 q 391 1431 336 1431 q 491 1406 447 1431 q 562 1336 536 1380 q 587 1236 587 1292 q 562 1139 587 1182 q 491 1070 536 1095 q 391 1044 447 1044 m 391 1169 q 436 1189 418 1169 q 454 1236 454 1208 q 436 1285 456 1267 q 391 1303 417 1303 q 348 1285 366 1303 q 328 1236 330 1267 q 346 1189 328 1209 q 391 1169 363 1169 z "},"Ũ":{"ha":781,"x_min":43,"x_max":738,"o":"m 391 -11 q 208 37 286 -11 q 86 170 130 84 q 43 372 43 256 l 43 1000 l 282 1000 l 282 349 q 311 249 282 287 q 391 212 340 212 q 471 249 443 212 q 499 349 499 287 l 499 1000 l 738 1000 l 738 372 q 695 170 738 256 q 574 37 652 84 q 391 -11 496 -11 m 125 1063 q 168 1219 125 1157 q 292 1280 212 1280 q 358 1269 332 1280 q 402 1243 385 1258 q 436 1217 420 1228 q 469 1206 451 1206 q 505 1227 494 1206 q 517 1280 517 1249 l 658 1280 q 615 1126 659 1189 q 488 1063 571 1063 q 424 1075 450 1063 q 380 1103 398 1087 q 347 1130 362 1118 q 312 1142 331 1142 q 277 1121 288 1142 q 267 1063 267 1100 l 125 1063 z "},"Ṹ":{"ha":781,"x_min":43,"x_max":738,"o":"m 391 -11 q 208 37 286 -11 q 86 170 130 84 q 43 372 43 256 l 43 1000 l 282 1000 l 282 349 q 311 249 282 287 q 391 212 340 212 q 471 249 443 212 q 499 349 499 287 l 499 1000 l 738 1000 l 738 372 q 695 170 738 256 q 574 37 652 84 q 391 -11 496 -11 m 125 1063 q 168 1219 125 1157 q 292 1280 212 1280 q 358 1269 332 1280 q 402 1243 385 1258 q 436 1217 420 1228 q 469 1206 451 1206 q 505 1227 494 1206 q 517 1280 517 1249 l 658 1280 q 615 1126 659 1189 q 488 1063 571 1063 q 424 1075 450 1063 q 380 1103 398 1087 q 347 1130 362 1118 q 312 1142 331 1142 q 277 1121 288 1142 q 267 1063 267 1100 l 125 1063 m 391 1325 l 293 1423 l 532 1633 l 643 1487 l 391 1325 z "},"V":{"ha":781,"x_min":-5,"x_max":787,"o":"m 269 0 l -5 1000 l 250 1000 l 334 582 l 388 336 l 393 336 l 448 582 l 529 1000 l 787 1000 l 513 0 l 269 0 z "},"W":{"ha":781,"x_min":22,"x_max":761,"o":"m 104 0 q 62 222 81 117 q 32 432 43 328 q 22 651 22 537 l 22 1000 l 217 1000 l 217 651 q 220 526 217 587 q 228 412 223 465 q 237 313 233 358 l 243 313 l 346 629 l 435 629 l 538 313 l 544 313 q 554 412 549 358 q 562 526 559 465 q 566 651 566 586 l 566 1000 l 761 1000 l 761 651 q 750 431 761 536 q 721 222 739 327 q 680 0 703 117 l 495 0 l 393 338 l 388 338 l 285 0 l 104 0 z "},"Ẃ":{"ha":781,"x_min":22,"x_max":761,"o":"m 104 0 q 62 222 81 117 q 32 432 43 328 q 22 651 22 537 l 22 1000 l 217 1000 l 217 651 q 220 526 217 587 q 228 412 223 465 q 237 313 233 358 l 243 313 l 346 629 l 435 629 l 538 313 l 544 313 q 554 412 549 358 q 562 526 559 465 q 566 651 566 586 l 566 1000 l 761 1000 l 761 651 q 750 431 761 536 q 721 222 739 327 q 680 0 703 117 l 495 0 l 393 338 l 388 338 l 285 0 l 104 0 m 391 1047 l 293 1145 l 532 1355 l 643 1208 l 391 1047 z "},"Ŵ":{"ha":781,"x_min":22,"x_max":761,"o":"m 104 0 q 62 222 81 117 q 32 432 43 328 q 22 651 22 537 l 22 1000 l 217 1000 l 217 651 q 220 526 217 587 q 228 412 223 465 q 237 313 233 358 l 243 313 l 346 629 l 435 629 l 538 313 l 544 313 q 554 412 549 358 q 562 526 559 465 q 566 651 566 586 l 566 1000 l 761 1000 l 761 651 q 750 431 761 536 q 721 222 739 327 q 680 0 703 117 l 495 0 l 393 338 l 388 338 l 285 0 l 104 0 m 225 1050 l 119 1158 l 368 1331 l 412 1331 l 661 1158 l 559 1050 l 391 1175 l 388 1175 l 225 1050 z "},"Ẅ":{"ha":781,"x_min":22,"x_max":761,"o":"m 104 0 q 62 222 81 117 q 32 432 43 328 q 22 651 22 537 l 22 1000 l 217 1000 l 217 651 q 220 526 217 587 q 228 412 223 465 q 237 313 233 358 l 243 313 l 346 629 l 435 629 l 538 313 l 544 313 q 554 412 549 358 q 562 526 559 465 q 566 651 566 586 l 566 1000 l 761 1000 l 761 651 q 750 431 761 536 q 721 222 739 327 q 680 0 703 117 l 495 0 l 393 338 l 388 338 l 285 0 l 104 0 m 563 1044 q 468 1080 505 1044 q 431 1172 431 1116 q 468 1265 431 1228 q 563 1302 505 1302 q 653 1265 617 1302 q 689 1172 688 1228 q 653 1080 688 1116 q 563 1044 617 1044 m 224 1044 q 132 1080 168 1044 q 96 1172 96 1116 q 132 1265 96 1228 q 224 1302 168 1302 q 317 1265 280 1302 q 354 1172 354 1228 q 317 1080 354 1116 q 224 1044 280 1044 z "},"Ẁ":{"ha":781,"x_min":22,"x_max":761,"o":"m 104 0 q 62 222 81 117 q 32 432 43 328 q 22 651 22 537 l 22 1000 l 217 1000 l 217 651 q 220 526 217 587 q 228 412 223 465 q 237 313 233 358 l 243 313 l 346 629 l 435 629 l 538 313 l 544 313 q 554 412 549 358 q 562 526 559 465 q 566 651 566 586 l 566 1000 l 761 1000 l 761 651 q 750 431 761 536 q 721 222 739 327 q 680 0 703 117 l 495 0 l 393 338 l 388 338 l 285 0 l 104 0 m 391 1047 l 138 1208 l 250 1355 l 488 1145 l 391 1047 z "},"X":{"ha":781,"x_min":-26,"x_max":807,"o":"m 528 0 l 391 313 l 387 313 l 229 500 l 229 503 l -20 1000 l 251 1000 l 389 661 l 393 661 l 553 500 l 553 498 l 807 0 l 528 0 m -26 0 l 229 498 l 229 500 l 387 661 l 391 661 l 528 1000 l 802 1000 l 553 503 l 553 500 l 393 313 l 389 313 l 251 0 l -26 0 z "},"Y":{"ha":781,"x_min":-28,"x_max":810,"o":"m 270 0 l 270 374 l -28 1000 l 248 1000 l 313 819 l 388 614 l 393 614 l 468 819 l 533 1000 l 810 1000 l 511 374 l 511 0 l 270 0 z "},"Ý":{"ha":781,"x_min":-28,"x_max":810,"o":"m 270 0 l 270 374 l -28 1000 l 248 1000 l 313 819 l 388 614 l 393 614 l 468 819 l 533 1000 l 810 1000 l 511 374 l 511 0 l 270 0 m 391 1047 l 293 1145 l 532 1355 l 643 1208 l 391 1047 z "},"Ŷ":{"ha":781,"x_min":-28,"x_max":810,"o":"m 270 0 l 270 374 l -28 1000 l 248 1000 l 313 819 l 388 614 l 393 614 l 468 819 l 533 1000 l 810 1000 l 511 374 l 511 0 l 270 0 m 225 1050 l 119 1158 l 368 1331 l 412 1331 l 661 1158 l 559 1050 l 391 1175 l 388 1175 l 225 1050 z "},"Ÿ":{"ha":781,"x_min":-28,"x_max":810,"o":"m 270 0 l 270 374 l -28 1000 l 248 1000 l 313 819 l 388 614 l 393 614 l 468 819 l 533 1000 l 810 1000 l 511 374 l 511 0 l 270 0 m 563 1044 q 468 1080 505 1044 q 431 1172 431 1116 q 468 1265 431 1228 q 563 1302 505 1302 q 653 1265 617 1302 q 689 1172 688 1228 q 653 1080 688 1116 q 563 1044 617 1044 m 224 1044 q 132 1080 168 1044 q 96 1172 96 1116 q 132 1265 96 1228 q 224 1302 168 1302 q 317 1265 280 1302 q 354 1172 354 1228 q 317 1080 354 1116 q 224 1044 280 1044 z "},"Ẏ":{"ha":781,"x_min":-28,"x_max":810,"o":"m 270 0 l 270 374 l -28 1000 l 248 1000 l 313 819 l 388 614 l 393 614 l 468 819 l 533 1000 l 810 1000 l 511 374 l 511 0 l 270 0 m 389 1057 q 288 1098 330 1057 q 247 1199 247 1139 q 288 1301 247 1260 q 389 1341 330 1341 q 491 1301 450 1341 q 532 1199 532 1260 q 491 1098 532 1139 q 389 1057 450 1057 z "},"Ỵ":{"ha":781,"x_min":-28,"x_max":810,"o":"m 270 0 l 270 374 l -28 1000 l 248 1000 l 313 819 l 388 614 l 393 614 l 468 819 l 533 1000 l 810 1000 l 511 374 l 511 0 l 270 0 m 389 -357 q 288 -315 330 -357 q 247 -214 247 -274 q 288 -113 247 -153 q 389 -72 330 -72 q 491 -113 450 -72 q 532 -214 532 -153 q 491 -315 532 -274 q 389 -357 450 -357 z "},"Ỳ":{"ha":781,"x_min":-28,"x_max":810,"o":"m 270 0 l 270 374 l -28 1000 l 248 1000 l 313 819 l 388 614 l 393 614 l 468 819 l 533 1000 l 810 1000 l 511 374 l 511 0 l 270 0 m 391 1047 l 138 1208 l 250 1355 l 488 1145 l 391 1047 z "},"Ỷ":{"ha":781,"x_min":-28,"x_max":810,"o":"m 270 0 l 270 374 l -28 1000 l 248 1000 l 313 819 l 388 614 l 393 614 l 468 819 l 533 1000 l 810 1000 l 511 374 l 511 0 l 270 0 m 416 1044 l 332 1126 q 365 1155 350 1139 q 380 1190 380 1171 q 363 1217 380 1207 q 316 1226 347 1226 q 284 1224 304 1226 q 248 1214 264 1221 l 248 1351 q 291 1363 261 1359 q 347 1367 321 1367 q 473 1331 426 1367 q 521 1223 521 1294 q 487 1111 521 1158 q 416 1044 454 1064 z "},"Ȳ":{"ha":781,"x_min":-28,"x_max":810,"o":"m 270 0 l 270 374 l -28 1000 l 248 1000 l 313 819 l 388 614 l 393 614 l 468 819 l 533 1000 l 810 1000 l 511 374 l 511 0 l 270 0 m 117 1095 l 117 1251 l 663 1251 l 663 1095 l 117 1095 z "},"Ỹ":{"ha":781,"x_min":-28,"x_max":810,"o":"m 270 0 l 270 374 l -28 1000 l 248 1000 l 313 819 l 388 614 l 393 614 l 468 819 l 533 1000 l 810 1000 l 511 374 l 511 0 l 270 0 m 125 1063 q 168 1219 125 1157 q 292 1280 212 1280 q 358 1269 332 1280 q 402 1243 385 1258 q 436 1217 420 1228 q 469 1206 451 1206 q 505 1227 494 1206 q 517 1280 517 1249 l 658 1280 q 615 1126 659 1189 q 488 1063 571 1063 q 424 1075 450 1063 q 380 1103 398 1087 q 347 1130 362 1118 q 312 1142 331 1142 q 277 1121 288 1142 q 267 1063 267 1100 l 125 1063 z "},"Z":{"ha":781,"x_min":33,"x_max":751,"o":"m 33 0 l 33 34 l 380 777 l 380 780 l 49 780 l 49 1000 l 742 1000 l 742 964 l 397 222 l 397 220 l 751 220 l 751 0 l 33 0 z "},"Ź":{"ha":781,"x_min":33,"x_max":751,"o":"m 33 0 l 33 34 l 380 777 l 380 780 l 49 780 l 49 1000 l 742 1000 l 742 964 l 397 222 l 397 220 l 751 220 l 751 0 l 33 0 m 389 1047 l 292 1145 l 530 1355 l 642 1208 l 389 1047 z "},"Ž":{"ha":781,"x_min":33,"x_max":751,"o":"m 33 0 l 33 34 l 380 777 l 380 780 l 49 780 l 49 1000 l 742 1000 l 742 964 l 397 222 l 397 220 l 751 220 l 751 0 l 33 0 m 224 1328 l 387 1203 l 389 1203 l 557 1328 l 659 1219 l 411 1047 l 366 1047 l 118 1219 l 224 1328 z "},"Ż":{"ha":781,"x_min":33,"x_max":751,"o":"m 33 0 l 33 34 l 380 777 l 380 780 l 49 780 l 49 1000 l 742 1000 l 742 964 l 397 222 l 397 220 l 751 220 l 751 0 l 33 0 m 388 1057 q 287 1098 328 1057 q 245 1199 245 1139 q 287 1301 245 1260 q 388 1341 328 1341 q 490 1301 449 1341 q 530 1199 530 1260 q 490 1098 530 1139 q 388 1057 449 1057 z "},"Ẓ":{"ha":781,"x_min":33,"x_max":751,"o":"m 33 0 l 33 34 l 380 777 l 380 780 l 49 780 l 49 1000 l 742 1000 l 742 964 l 397 222 l 397 220 l 751 220 l 751 0 l 33 0 m 389 -357 q 288 -315 330 -357 q 247 -214 247 -274 q 288 -113 247 -153 q 389 -72 330 -72 q 491 -113 450 -72 q 532 -214 532 -153 q 491 -315 532 -274 q 389 -357 450 -357 z "},"a":{"ha":781,"x_min":60,"x_max":749,"o":"m 297 -11 q 170 20 223 -11 q 88 103 117 52 q 60 217 60 155 q 92 334 60 283 q 183 415 125 386 q 321 445 242 445 l 503 445 l 503 304 l 373 304 q 329 295 348 304 q 299 271 310 287 q 289 233 289 255 q 298 198 289 214 q 325 172 307 182 q 369 163 343 163 q 423 174 397 163 q 464 206 448 186 q 480 254 480 227 l 480 347 l 467 374 l 467 480 q 459 516 467 502 q 440 538 452 530 q 410 550 427 547 q 370 553 392 553 q 300 546 336 553 q 233 525 265 538 q 175 495 201 512 l 99 677 q 181 713 134 698 q 282 736 229 728 q 384 745 334 745 q 549 712 479 745 q 656 621 618 680 q 694 483 694 562 l 694 270 q 704 219 694 237 q 732 194 713 201 l 749 189 l 666 -11 l 637 -3 q 541 48 578 15 q 494 122 504 81 l 553 80 l 445 80 l 517 95 q 436 21 498 54 q 297 -11 374 -11 z "},"á":{"ha":781,"x_min":60,"x_max":749,"o":"m 297 -11 q 170 20 223 -11 q 88 103 117 52 q 60 217 60 155 q 92 334 60 283 q 183 415 125 386 q 321 445 242 445 l 503 445 l 503 304 l 373 304 q 329 295 348 304 q 299 271 310 287 q 289 233 289 255 q 298 198 289 214 q 325 172 307 182 q 369 163 343 163 q 423 174 397 163 q 464 206 448 186 q 480 254 480 227 l 480 347 l 467 374 l 467 480 q 459 516 467 502 q 440 538 452 530 q 410 550 427 547 q 370 553 392 553 q 300 546 336 553 q 233 525 265 538 q 175 495 201 512 l 99 677 q 181 713 134 698 q 282 736 229 728 q 384 745 334 745 q 549 712 479 745 q 656 621 618 680 q 694 483 694 562 l 694 270 q 704 219 694 237 q 732 194 713 201 l 749 189 l 666 -11 l 637 -3 q 541 48 578 15 q 494 122 504 81 l 553 80 l 445 80 l 517 95 q 436 21 498 54 q 297 -11 374 -11 m 400 780 l 301 864 l 503 1127 l 629 1000 l 400 780 z "},"ă":{"ha":781,"x_min":60,"x_max":749,"o":"m 297 -11 q 170 20 223 -11 q 88 103 117 52 q 60 217 60 155 q 92 334 60 283 q 183 415 125 386 q 321 445 242 445 l 503 445 l 503 304 l 373 304 q 329 295 348 304 q 299 271 310 287 q 289 233 289 255 q 298 198 289 214 q 325 172 307 182 q 369 163 343 163 q 423 174 397 163 q 464 206 448 186 q 480 254 480 227 l 480 347 l 467 374 l 467 480 q 459 516 467 502 q 440 538 452 530 q 410 550 427 547 q 370 553 392 553 q 300 546 336 553 q 233 525 265 538 q 175 495 201 512 l 99 677 q 181 713 134 698 q 282 736 229 728 q 384 745 334 745 q 549 712 479 745 q 656 621 618 680 q 694 483 694 562 l 694 270 q 704 219 694 237 q 732 194 713 201 l 749 189 l 666 -11 l 637 -3 q 541 48 578 15 q 494 122 504 81 l 553 80 l 445 80 l 517 95 q 436 21 498 54 q 297 -11 374 -11 m 399 806 q 263 838 323 806 q 167 923 202 869 q 132 1044 132 977 l 275 1044 q 311 965 276 998 q 399 933 347 933 q 487 965 451 933 q 524 1044 523 998 l 667 1044 q 632 923 668 977 q 535 838 596 869 q 399 806 475 806 z "},"ắ":{"ha":781,"x_min":60,"x_max":749,"o":"m 297 -11 q 170 20 223 -11 q 88 103 117 52 q 60 217 60 155 q 92 334 60 283 q 183 415 125 386 q 321 445 242 445 l 503 445 l 503 304 l 373 304 q 329 295 348 304 q 299 271 310 287 q 289 233 289 255 q 298 198 289 214 q 325 172 307 182 q 369 163 343 163 q 423 174 397 163 q 464 206 448 186 q 480 254 480 227 l 480 347 l 467 374 l 467 480 q 459 516 467 502 q 440 538 452 530 q 410 550 427 547 q 370 553 392 553 q 300 546 336 553 q 233 525 265 538 q 175 495 201 512 l 99 677 q 181 713 134 698 q 282 736 229 728 q 384 745 334 745 q 549 712 479 745 q 656 621 618 680 q 694 483 694 562 l 694 270 q 704 219 694 237 q 732 194 713 201 l 749 189 l 666 -11 l 637 -3 q 541 48 578 15 q 494 122 504 81 l 553 80 l 445 80 l 517 95 q 436 21 498 54 q 297 -11 374 -11 m 382 994 l 301 1103 l 534 1297 l 637 1153 l 382 994 m 400 806 q 260 833 319 806 q 167 912 200 861 q 134 1031 134 962 l 279 1031 q 312 956 279 984 q 400 928 345 928 q 491 956 457 928 q 525 1031 525 984 l 666 1031 q 633 912 666 962 q 541 833 600 861 q 400 806 481 806 z "},"ặ":{"ha":781,"x_min":60,"x_max":749,"o":"m 297 -11 q 170 20 223 -11 q 88 103 117 52 q 60 217 60 155 q 92 334 60 283 q 183 415 125 386 q 321 445 242 445 l 503 445 l 503 304 l 373 304 q 329 295 348 304 q 299 271 310 287 q 289 233 289 255 q 298 198 289 214 q 325 172 307 182 q 369 163 343 163 q 423 174 397 163 q 464 206 448 186 q 480 254 480 227 l 480 347 l 467 374 l 467 480 q 459 516 467 502 q 440 538 452 530 q 410 550 427 547 q 370 553 392 553 q 300 546 336 553 q 233 525 265 538 q 175 495 201 512 l 99 677 q 181 713 134 698 q 282 736 229 728 q 384 745 334 745 q 549 712 479 745 q 656 621 618 680 q 694 483 694 562 l 694 270 q 704 219 694 237 q 732 194 713 201 l 749 189 l 666 -11 l 637 -3 q 541 48 578 15 q 494 122 504 81 l 553 80 l 445 80 l 517 95 q 436 21 498 54 q 297 -11 374 -11 m 382 -357 q 281 -315 323 -357 q 240 -214 240 -274 q 281 -113 240 -153 q 382 -72 323 -72 q 484 -113 444 -72 q 525 -214 525 -153 q 484 -315 525 -274 q 382 -357 444 -357 m 399 806 q 263 838 323 806 q 167 923 202 869 q 132 1044 132 977 l 275 1044 q 311 965 276 998 q 399 933 347 933 q 487 965 451 933 q 524 1044 523 998 l 667 1044 q 632 923 668 977 q 535 838 596 869 q 399 806 475 806 z "},"ằ":{"ha":781,"x_min":60,"x_max":749,"o":"m 297 -11 q 170 20 223 -11 q 88 103 117 52 q 60 217 60 155 q 92 334 60 283 q 183 415 125 386 q 321 445 242 445 l 503 445 l 503 304 l 373 304 q 329 295 348 304 q 299 271 310 287 q 289 233 289 255 q 298 198 289 214 q 325 172 307 182 q 369 163 343 163 q 423 174 397 163 q 464 206 448 186 q 480 254 480 227 l 480 347 l 467 374 l 467 480 q 459 516 467 502 q 440 538 452 530 q 410 550 427 547 q 370 553 392 553 q 300 546 336 553 q 233 525 265 538 q 175 495 201 512 l 99 677 q 181 713 134 698 q 282 736 229 728 q 384 745 334 745 q 549 712 479 745 q 656 621 618 680 q 694 483 694 562 l 694 270 q 704 219 694 237 q 732 194 713 201 l 749 189 l 666 -11 l 637 -3 q 541 48 578 15 q 494 122 504 81 l 553 80 l 445 80 l 517 95 q 436 21 498 54 q 297 -11 374 -11 m 418 994 l 163 1153 l 266 1297 l 499 1103 l 418 994 m 400 806 q 260 833 319 806 q 167 912 200 861 q 134 1031 134 962 l 275 1031 q 309 956 275 984 q 400 928 343 928 q 488 956 455 928 q 521 1031 521 984 l 666 1031 q 633 912 666 962 q 541 833 600 861 q 400 806 481 806 z "},"ẳ":{"ha":781,"x_min":60,"x_max":749,"o":"m 297 -11 q 170 20 223 -11 q 88 103 117 52 q 60 217 60 155 q 92 334 60 283 q 183 415 125 386 q 321 445 242 445 l 503 445 l 503 304 l 373 304 q 329 295 348 304 q 299 271 310 287 q 289 233 289 255 q 298 198 289 214 q 325 172 307 182 q 369 163 343 163 q 423 174 397 163 q 464 206 448 186 q 480 254 480 227 l 480 347 l 467 374 l 467 480 q 459 516 467 502 q 440 538 452 530 q 410 550 427 547 q 370 553 392 553 q 300 546 336 553 q 233 525 265 538 q 175 495 201 512 l 99 677 q 181 713 134 698 q 282 736 229 728 q 384 745 334 745 q 549 712 479 745 q 656 621 618 680 q 694 483 694 562 l 694 270 q 704 219 694 237 q 732 194 713 201 l 749 189 l 666 -11 l 637 -3 q 541 48 578 15 q 494 122 504 81 l 553 80 l 445 80 l 517 95 q 436 21 498 54 q 297 -11 374 -11 m 400 806 q 260 833 319 806 q 167 912 200 861 q 134 1031 134 962 l 275 1031 q 309 956 275 984 q 400 928 343 928 q 488 956 455 928 q 521 1031 521 984 l 666 1031 q 633 912 666 962 q 541 833 600 861 q 400 806 481 806 m 400 971 l 316 1053 q 349 1082 334 1066 q 363 1116 363 1097 q 347 1143 363 1134 q 300 1153 331 1153 q 268 1151 288 1153 q 232 1141 248 1148 l 232 1278 q 275 1290 245 1286 q 331 1294 305 1294 q 457 1257 410 1294 q 505 1150 505 1221 q 471 1038 505 1085 q 400 971 437 991 z "},"ẵ":{"ha":781,"x_min":60,"x_max":749,"o":"m 297 -11 q 170 20 223 -11 q 88 103 117 52 q 60 217 60 155 q 92 334 60 283 q 183 415 125 386 q 321 445 242 445 l 503 445 l 503 304 l 373 304 q 329 295 348 304 q 299 271 310 287 q 289 233 289 255 q 298 198 289 214 q 325 172 307 182 q 369 163 343 163 q 423 174 397 163 q 464 206 448 186 q 480 254 480 227 l 480 347 l 467 374 l 467 480 q 459 516 467 502 q 440 538 452 530 q 410 550 427 547 q 370 553 392 553 q 300 546 336 553 q 233 525 265 538 q 175 495 201 512 l 99 677 q 181 713 134 698 q 282 736 229 728 q 384 745 334 745 q 549 712 479 745 q 656 621 618 680 q 694 483 694 562 l 694 270 q 704 219 694 237 q 732 194 713 201 l 749 189 l 666 -11 l 637 -3 q 541 48 578 15 q 494 122 504 81 l 553 80 l 445 80 l 517 95 q 436 21 498 54 q 297 -11 374 -11 m 134 1076 q 178 1232 134 1171 q 301 1294 221 1294 q 367 1282 340 1294 q 411 1255 393 1271 q 445 1228 429 1240 q 479 1217 460 1217 q 514 1238 503 1217 q 524 1294 526 1259 l 667 1294 q 648 1184 668 1234 q 589 1105 627 1135 q 498 1076 551 1076 q 433 1087 459 1076 q 390 1114 408 1099 q 356 1141 372 1130 q 320 1153 340 1153 q 287 1133 297 1153 q 275 1076 277 1114 l 134 1076 m 400 806 q 260 833 319 806 q 167 912 200 861 q 134 1031 134 962 l 275 1031 q 309 956 275 984 q 400 928 343 928 q 488 956 455 928 q 521 1031 521 984 l 666 1031 q 633 912 666 962 q 541 833 600 861 q 400 806 481 806 z "},"ǎ":{"ha":781,"x_min":60,"x_max":749,"o":"m 297 -11 q 170 20 223 -11 q 88 103 117 52 q 60 217 60 155 q 92 334 60 283 q 183 415 125 386 q 321 445 242 445 l 503 445 l 503 304 l 373 304 q 329 295 348 304 q 299 271 310 287 q 289 233 289 255 q 298 198 289 214 q 325 172 307 182 q 369 163 343 163 q 423 174 397 163 q 464 206 448 186 q 480 254 480 227 l 480 347 l 467 374 l 467 480 q 459 516 467 502 q 440 538 452 530 q 410 550 427 547 q 370 553 392 553 q 300 546 336 553 q 233 525 265 538 q 175 495 201 512 l 99 677 q 181 713 134 698 q 282 736 229 728 q 384 745 334 745 q 549 712 479 745 q 656 621 618 680 q 694 483 694 562 l 694 270 q 704 219 694 237 q 732 194 713 201 l 749 189 l 666 -11 l 637 -3 q 541 48 578 15 q 494 122 504 81 l 553 80 l 445 80 l 517 95 q 436 21 498 54 q 297 -11 374 -11 m 216 1097 l 396 941 l 401 941 l 581 1097 l 671 986 l 420 774 l 376 774 l 127 986 l 216 1097 z "},"â":{"ha":781,"x_min":60,"x_max":749,"o":"m 297 -11 q 170 20 223 -11 q 88 103 117 52 q 60 217 60 155 q 92 334 60 283 q 183 415 125 386 q 321 445 242 445 l 503 445 l 503 304 l 373 304 q 329 295 348 304 q 299 271 310 287 q 289 233 289 255 q 298 198 289 214 q 325 172 307 182 q 369 163 343 163 q 423 174 397 163 q 464 206 448 186 q 480 254 480 227 l 480 347 l 467 374 l 467 480 q 459 516 467 502 q 440 538 452 530 q 410 550 427 547 q 370 553 392 553 q 300 546 336 553 q 233 525 265 538 q 175 495 201 512 l 99 677 q 181 713 134 698 q 282 736 229 728 q 384 745 334 745 q 549 712 479 745 q 656 621 618 680 q 694 483 694 562 l 694 270 q 704 219 694 237 q 732 194 713 201 l 749 189 l 666 -11 l 637 -3 q 541 48 578 15 q 494 122 504 81 l 553 80 l 445 80 l 517 95 q 436 21 498 54 q 297 -11 374 -11 m 217 769 l 129 880 l 377 1092 l 422 1092 l 673 880 l 582 769 l 403 925 l 397 925 l 217 769 z "},"ấ":{"ha":781,"x_min":60,"x_max":865,"o":"m 297 -11 q 170 20 223 -11 q 88 103 117 52 q 60 217 60 155 q 92 334 60 283 q 183 415 125 386 q 321 445 242 445 l 503 445 l 503 304 l 373 304 q 329 295 348 304 q 299 271 310 287 q 289 233 289 255 q 298 198 289 214 q 325 172 307 182 q 369 163 343 163 q 423 174 397 163 q 464 206 448 186 q 480 254 480 227 l 480 347 l 467 374 l 467 480 q 459 516 467 502 q 440 538 452 530 q 410 550 427 547 q 370 553 392 553 q 300 546 336 553 q 233 525 265 538 q 175 495 201 512 l 99 677 q 181 713 134 698 q 282 736 229 728 q 384 745 334 745 q 549 712 479 745 q 656 621 618 680 q 694 483 694 562 l 694 270 q 704 219 694 237 q 732 194 713 201 l 749 189 l 666 -11 l 637 -3 q 541 48 578 15 q 494 122 504 81 l 553 80 l 445 80 l 517 95 q 436 21 498 54 q 297 -11 374 -11 m 635 989 l 532 1061 l 755 1294 l 865 1145 l 635 989 m 233 784 l 127 891 l 376 1061 l 420 1061 l 669 891 l 567 784 l 399 909 l 396 909 l 233 784 z "},"ậ":{"ha":781,"x_min":60,"x_max":749,"o":"m 297 -11 q 170 20 223 -11 q 88 103 117 52 q 60 217 60 155 q 92 334 60 283 q 183 415 125 386 q 321 445 242 445 l 503 445 l 503 304 l 373 304 q 329 295 348 304 q 299 271 310 287 q 289 233 289 255 q 298 198 289 214 q 325 172 307 182 q 369 163 343 163 q 423 174 397 163 q 464 206 448 186 q 480 254 480 227 l 480 347 l 467 374 l 467 480 q 459 516 467 502 q 440 538 452 530 q 410 550 427 547 q 370 553 392 553 q 300 546 336 553 q 233 525 265 538 q 175 495 201 512 l 99 677 q 181 713 134 698 q 282 736 229 728 q 384 745 334 745 q 549 712 479 745 q 656 621 618 680 q 694 483 694 562 l 694 270 q 704 219 694 237 q 732 194 713 201 l 749 189 l 666 -11 l 637 -3 q 541 48 578 15 q 494 122 504 81 l 553 80 l 445 80 l 517 95 q 436 21 498 54 q 297 -11 374 -11 m 382 -357 q 281 -315 323 -357 q 240 -214 240 -274 q 281 -113 240 -153 q 382 -72 323 -72 q 484 -113 444 -72 q 525 -214 525 -153 q 484 -315 525 -274 q 382 -357 444 -357 m 217 769 l 129 880 l 377 1092 l 422 1092 l 673 880 l 582 769 l 403 925 l 397 925 l 217 769 z "},"ầ":{"ha":781,"x_min":-65,"x_max":749,"o":"m 297 -11 q 170 20 223 -11 q 88 103 117 52 q 60 217 60 155 q 92 334 60 283 q 183 415 125 386 q 321 445 242 445 l 503 445 l 503 304 l 373 304 q 329 295 348 304 q 299 271 310 287 q 289 233 289 255 q 298 198 289 214 q 325 172 307 182 q 369 163 343 163 q 423 174 397 163 q 464 206 448 186 q 480 254 480 227 l 480 347 l 467 374 l 467 480 q 459 516 467 502 q 440 538 452 530 q 410 550 427 547 q 370 553 392 553 q 300 546 336 553 q 233 525 265 538 q 175 495 201 512 l 99 677 q 181 713 134 698 q 282 736 229 728 q 384 745 334 745 q 549 712 479 745 q 656 621 618 680 q 694 483 694 562 l 694 270 q 704 219 694 237 q 732 194 713 201 l 749 189 l 666 -11 l 637 -3 q 541 48 578 15 q 494 122 504 81 l 553 80 l 445 80 l 517 95 q 436 21 498 54 q 297 -11 374 -11 m 165 989 l -65 1145 l 45 1294 l 269 1061 l 165 989 m 567 784 l 404 909 l 401 909 l 233 784 l 132 891 l 380 1061 l 425 1061 l 673 891 l 567 784 z "},"ẩ":{"ha":781,"x_min":60,"x_max":749,"o":"m 297 -11 q 170 20 223 -11 q 88 103 117 52 q 60 217 60 155 q 92 334 60 283 q 183 415 125 386 q 321 445 242 445 l 503 445 l 503 304 l 373 304 q 329 295 348 304 q 299 271 310 287 q 289 233 289 255 q 298 198 289 214 q 325 172 307 182 q 369 163 343 163 q 423 174 397 163 q 464 206 448 186 q 480 254 480 227 l 480 347 l 467 374 l 467 480 q 459 516 467 502 q 440 538 452 530 q 410 550 427 547 q 370 553 392 553 q 300 546 336 553 q 233 525 265 538 q 175 495 201 512 l 99 677 q 181 713 134 698 q 282 736 229 728 q 384 745 334 745 q 549 712 479 745 q 656 621 618 680 q 694 483 694 562 l 694 270 q 704 219 694 237 q 732 194 713 201 l 749 189 l 666 -11 l 637 -3 q 541 48 578 15 q 494 122 504 81 l 553 80 l 445 80 l 517 95 q 436 21 498 54 q 297 -11 374 -11 m 618 991 l 537 1053 q 570 1083 557 1068 q 582 1114 582 1099 q 566 1143 582 1133 q 515 1153 549 1153 q 485 1151 500 1153 q 449 1142 469 1148 l 449 1280 q 495 1291 463 1288 q 551 1294 526 1294 q 675 1259 628 1294 q 722 1147 722 1225 q 705 1080 722 1110 q 664 1027 688 1049 q 618 991 640 1004 m 236 784 l 130 891 l 378 1061 l 423 1061 l 671 891 l 570 784 l 401 909 l 399 909 l 236 784 z "},"ẫ":{"ha":781,"x_min":60,"x_max":749,"o":"m 297 -11 q 170 20 223 -11 q 88 103 117 52 q 60 217 60 155 q 92 334 60 283 q 183 415 125 386 q 321 445 242 445 l 503 445 l 503 304 l 373 304 q 329 295 348 304 q 299 271 310 287 q 289 233 289 255 q 298 198 289 214 q 325 172 307 182 q 369 163 343 163 q 423 174 397 163 q 464 206 448 186 q 480 254 480 227 l 480 347 l 467 374 l 467 480 q 459 516 467 502 q 440 538 452 530 q 410 550 427 547 q 370 553 392 553 q 300 546 336 553 q 233 525 265 538 q 175 495 201 512 l 99 677 q 181 713 134 698 q 282 736 229 728 q 384 745 334 745 q 549 712 479 745 q 656 621 618 680 q 694 483 694 562 l 694 270 q 704 219 694 237 q 732 194 713 201 l 749 189 l 666 -11 l 637 -3 q 541 48 578 15 q 494 122 504 81 l 553 80 l 445 80 l 517 95 q 436 21 498 54 q 297 -11 374 -11 m 134 1076 q 176 1233 132 1171 q 301 1294 221 1294 q 366 1282 340 1294 q 409 1255 391 1271 q 443 1228 427 1240 q 479 1217 459 1217 q 512 1239 500 1217 q 524 1294 523 1261 l 667 1294 q 652 1184 668 1234 q 602 1105 635 1135 q 515 1076 568 1076 q 450 1087 476 1076 q 407 1114 425 1099 q 374 1141 389 1130 q 342 1153 359 1153 q 295 1133 314 1153 q 275 1076 276 1114 l 134 1076 m 235 784 l 129 891 l 377 1061 l 422 1061 l 670 891 l 568 784 l 400 909 l 397 909 l 235 784 z "},"ȁ":{"ha":781,"x_min":60,"x_max":749,"o":"m 297 -11 q 170 20 223 -11 q 88 103 117 52 q 60 217 60 155 q 92 334 60 283 q 183 415 125 386 q 321 445 242 445 l 503 445 l 503 304 l 373 304 q 329 295 348 304 q 299 271 310 287 q 289 233 289 255 q 298 198 289 214 q 325 172 307 182 q 369 163 343 163 q 423 174 397 163 q 464 206 448 186 q 480 254 480 227 l 480 347 l 467 374 l 467 480 q 459 516 467 502 q 440 538 452 530 q 410 550 427 547 q 370 553 392 553 q 300 546 336 553 q 233 525 265 538 q 175 495 201 512 l 99 677 q 181 713 134 698 q 282 736 229 728 q 384 745 334 745 q 549 712 479 745 q 656 621 618 680 q 694 483 694 562 l 694 270 q 704 219 694 237 q 732 194 713 201 l 749 189 l 666 -11 l 637 -3 q 541 48 578 15 q 494 122 504 81 l 553 80 l 445 80 l 517 95 q 436 21 498 54 q 297 -11 374 -11 m 503 792 l 351 1025 l 513 1100 l 628 819 l 503 792 m 244 792 l 92 1025 l 251 1100 l 369 819 l 244 792 z "},"ä":{"ha":781,"x_min":60,"x_max":749,"o":"m 297 -11 q 170 20 223 -11 q 88 103 117 52 q 60 217 60 155 q 92 334 60 283 q 183 415 125 386 q 321 445 242 445 l 503 445 l 503 304 l 373 304 q 329 295 348 304 q 299 271 310 287 q 289 233 289 255 q 298 198 289 214 q 325 172 307 182 q 369 163 343 163 q 423 174 397 163 q 464 206 448 186 q 480 254 480 227 l 480 347 l 467 374 l 467 480 q 459 516 467 502 q 440 538 452 530 q 410 550 427 547 q 370 553 392 553 q 300 546 336 553 q 233 525 265 538 q 175 495 201 512 l 99 677 q 181 713 134 698 q 282 736 229 728 q 384 745 334 745 q 549 712 479 745 q 656 621 618 680 q 694 483 694 562 l 694 270 q 704 219 694 237 q 732 194 713 201 l 749 189 l 666 -11 l 637 -3 q 541 48 578 15 q 494 122 504 81 l 553 80 l 445 80 l 517 95 q 436 21 498 54 q 297 -11 374 -11 m 572 819 q 482 856 519 819 q 445 947 445 893 q 482 1038 445 1001 q 572 1074 519 1074 q 663 1038 627 1074 q 700 947 700 1001 q 663 856 700 893 q 572 819 627 819 m 228 819 q 137 856 174 819 q 100 947 100 893 q 137 1038 100 1001 q 228 1074 174 1074 q 319 1038 282 1074 q 355 947 355 1001 q 319 856 355 893 q 228 819 282 819 z "},"ȧ":{"ha":781,"x_min":60,"x_max":749,"o":"m 297 -11 q 170 20 223 -11 q 88 103 117 52 q 60 217 60 155 q 92 334 60 283 q 183 415 125 386 q 321 445 242 445 l 503 445 l 503 304 l 373 304 q 329 295 348 304 q 299 271 310 287 q 289 233 289 255 q 298 198 289 214 q 325 172 307 182 q 369 163 343 163 q 423 174 397 163 q 464 206 448 186 q 480 254 480 227 l 480 347 l 467 374 l 467 480 q 459 516 467 502 q 440 538 452 530 q 410 550 427 547 q 370 553 392 553 q 300 546 336 553 q 233 525 265 538 q 175 495 201 512 l 99 677 q 181 713 134 698 q 282 736 229 728 q 384 745 334 745 q 549 712 479 745 q 656 621 618 680 q 694 483 694 562 l 694 270 q 704 219 694 237 q 732 194 713 201 l 749 189 l 666 -11 l 637 -3 q 541 48 578 15 q 494 122 504 81 l 553 80 l 445 80 l 517 95 q 436 21 498 54 q 297 -11 374 -11 m 400 807 q 299 848 340 807 q 258 949 258 890 q 299 1051 258 1010 q 400 1092 340 1092 q 502 1051 461 1092 q 543 949 543 1010 q 502 848 543 890 q 400 807 461 807 z "},"ạ":{"ha":781,"x_min":60,"x_max":749,"o":"m 297 -11 q 170 20 223 -11 q 88 103 117 52 q 60 217 60 155 q 92 334 60 283 q 183 415 125 386 q 321 445 242 445 l 503 445 l 503 304 l 373 304 q 329 295 348 304 q 299 271 310 287 q 289 233 289 255 q 298 198 289 214 q 325 172 307 182 q 369 163 343 163 q 423 174 397 163 q 464 206 448 186 q 480 254 480 227 l 480 347 l 467 374 l 467 480 q 459 516 467 502 q 440 538 452 530 q 410 550 427 547 q 370 553 392 553 q 300 546 336 553 q 233 525 265 538 q 175 495 201 512 l 99 677 q 181 713 134 698 q 282 736 229 728 q 384 745 334 745 q 549 712 479 745 q 656 621 618 680 q 694 483 694 562 l 694 270 q 704 219 694 237 q 732 194 713 201 l 749 189 l 666 -11 l 637 -3 q 541 48 578 15 q 494 122 504 81 l 553 80 l 445 80 l 517 95 q 436 21 498 54 q 297 -11 374 -11 m 382 -357 q 281 -315 323 -357 q 240 -214 240 -274 q 281 -113 240 -153 q 382 -72 323 -72 q 484 -113 444 -72 q 525 -214 525 -153 q 484 -315 525 -274 q 382 -357 444 -357 z "},"à":{"ha":781,"x_min":60,"x_max":749,"o":"m 297 -11 q 170 20 223 -11 q 88 103 117 52 q 60 217 60 155 q 92 334 60 283 q 183 415 125 386 q 321 445 242 445 l 503 445 l 503 304 l 373 304 q 329 295 348 304 q 299 271 310 287 q 289 233 289 255 q 298 198 289 214 q 325 172 307 182 q 369 163 343 163 q 423 174 397 163 q 464 206 448 186 q 480 254 480 227 l 480 347 l 467 374 l 467 480 q 459 516 467 502 q 440 538 452 530 q 410 550 427 547 q 370 553 392 553 q 300 546 336 553 q 233 525 265 538 q 175 495 201 512 l 99 677 q 181 713 134 698 q 282 736 229 728 q 384 745 334 745 q 549 712 479 745 q 656 621 618 680 q 694 483 694 562 l 694 270 q 704 219 694 237 q 732 194 713 201 l 749 189 l 666 -11 l 637 -3 q 541 48 578 15 q 494 122 504 81 l 553 80 l 445 80 l 517 95 q 436 21 498 54 q 297 -11 374 -11 m 400 780 l 171 1000 l 297 1127 l 499 864 l 400 780 z "},"ả":{"ha":781,"x_min":60,"x_max":749,"o":"m 297 -11 q 170 20 223 -11 q 88 103 117 52 q 60 217 60 155 q 92 334 60 283 q 183 415 125 386 q 321 445 242 445 l 503 445 l 503 304 l 373 304 q 329 295 348 304 q 299 271 310 287 q 289 233 289 255 q 298 198 289 214 q 325 172 307 182 q 369 163 343 163 q 423 174 397 163 q 464 206 448 186 q 480 254 480 227 l 480 347 l 467 374 l 467 480 q 459 516 467 502 q 440 538 452 530 q 410 550 427 547 q 370 553 392 553 q 300 546 336 553 q 233 525 265 538 q 175 495 201 512 l 99 677 q 181 713 134 698 q 282 736 229 728 q 384 745 334 745 q 549 712 479 745 q 656 621 618 680 q 694 483 694 562 l 694 270 q 704 219 694 237 q 732 194 713 201 l 749 189 l 666 -11 l 637 -3 q 541 48 578 15 q 494 122 504 81 l 553 80 l 445 80 l 517 95 q 436 21 498 54 q 297 -11 374 -11 m 426 777 l 342 859 q 374 888 359 872 q 389 922 389 903 q 373 949 389 940 q 326 959 357 959 q 294 957 314 959 q 258 947 273 954 l 258 1084 q 301 1096 271 1092 q 357 1100 331 1100 q 483 1063 435 1100 q 530 956 530 1027 q 497 844 530 891 q 426 777 463 797 z "},"ȃ":{"ha":781,"x_min":60,"x_max":749,"o":"m 297 -11 q 170 20 223 -11 q 88 103 117 52 q 60 217 60 155 q 92 334 60 283 q 183 415 125 386 q 321 445 242 445 l 503 445 l 503 304 l 373 304 q 329 295 348 304 q 299 271 310 287 q 289 233 289 255 q 298 198 289 214 q 325 172 307 182 q 369 163 343 163 q 423 174 397 163 q 464 206 448 186 q 480 254 480 227 l 480 347 l 467 374 l 467 480 q 459 516 467 502 q 440 538 452 530 q 410 550 427 547 q 370 553 392 553 q 300 546 336 553 q 233 525 265 538 q 175 495 201 512 l 99 677 q 181 713 134 698 q 282 736 229 728 q 384 745 334 745 q 549 712 479 745 q 656 621 618 680 q 694 483 694 562 l 694 270 q 704 219 694 237 q 732 194 713 201 l 749 189 l 666 -11 l 637 -3 q 541 48 578 15 q 494 122 504 81 l 553 80 l 445 80 l 517 95 q 436 21 498 54 q 297 -11 374 -11 m 399 1050 q 535 1018 475 1050 q 632 932 596 987 q 667 811 668 878 l 524 811 q 487 890 523 858 q 399 922 451 922 q 311 890 347 922 q 275 811 276 858 l 132 811 q 167 932 132 878 q 263 1018 202 987 q 399 1050 323 1050 z "},"ā":{"ha":781,"x_min":60,"x_max":749,"o":"m 297 -11 q 170 20 223 -11 q 88 103 117 52 q 60 217 60 155 q 92 334 60 283 q 183 415 125 386 q 321 445 242 445 l 503 445 l 503 304 l 373 304 q 329 295 348 304 q 299 271 310 287 q 289 233 289 255 q 298 198 289 214 q 325 172 307 182 q 369 163 343 163 q 423 174 397 163 q 464 206 448 186 q 480 254 480 227 l 480 347 l 467 374 l 467 480 q 459 516 467 502 q 440 538 452 530 q 410 550 427 547 q 370 553 392 553 q 300 546 336 553 q 233 525 265 538 q 175 495 201 512 l 99 677 q 181 713 134 698 q 282 736 229 728 q 384 745 334 745 q 549 712 479 745 q 656 621 618 680 q 694 483 694 562 l 694 270 q 704 219 694 237 q 732 194 713 201 l 749 189 l 666 -11 l 637 -3 q 541 48 578 15 q 494 122 504 81 l 553 80 l 445 80 l 517 95 q 436 21 498 54 q 297 -11 374 -11 m 113 842 l 113 986 l 688 986 l 688 842 l 113 842 z "},"ą":{"ha":781,"x_min":60,"x_max":749,"o":"m 642 -308 q 524 -268 572 -308 q 476 -161 476 -227 q 496 -75 476 -115 q 539 -6 517 -35 q 570 37 562 23 l 666 -11 q 636 -68 645 -40 q 627 -117 627 -96 q 645 -159 627 -148 q 681 -170 663 -170 q 718 -164 699 -170 q 746 -155 736 -159 l 746 -292 q 695 -304 727 -300 q 642 -308 664 -308 m 297 -11 q 170 20 223 -11 q 88 103 117 52 q 60 217 60 155 q 92 334 60 283 q 183 415 125 386 q 321 445 242 445 l 503 445 l 503 304 l 373 304 q 329 295 348 304 q 299 271 310 287 q 289 233 289 255 q 298 198 289 214 q 325 172 307 182 q 369 163 343 163 q 423 174 397 163 q 464 206 448 186 q 480 254 480 227 l 480 347 l 467 374 l 467 480 q 459 516 467 502 q 440 538 452 530 q 410 550 427 547 q 370 553 392 553 q 300 546 336 553 q 233 525 265 538 q 175 495 201 512 l 99 677 q 181 713 134 698 q 282 736 229 728 q 384 745 334 745 q 549 712 479 745 q 656 621 618 680 q 694 483 694 562 l 694 270 q 704 219 694 237 q 732 194 713 201 l 749 189 l 666 -11 l 637 -3 q 541 48 578 15 q 494 122 504 81 l 553 80 l 445 80 l 517 95 q 436 21 498 54 q 297 -11 374 -11 z "},"å":{"ha":781,"x_min":60,"x_max":749,"o":"m 297 -11 q 170 20 223 -11 q 88 103 117 52 q 60 217 60 155 q 92 334 60 283 q 183 415 125 386 q 321 445 242 445 l 503 445 l 503 304 l 373 304 q 329 295 348 304 q 299 271 310 287 q 289 233 289 255 q 298 198 289 214 q 325 172 307 182 q 369 163 343 163 q 423 174 397 163 q 464 206 448 186 q 480 254 480 227 l 480 347 l 467 374 l 467 480 q 459 516 467 502 q 440 538 452 530 q 410 550 427 547 q 370 553 392 553 q 300 546 336 553 q 233 525 265 538 q 175 495 201 512 l 99 677 q 181 713 134 698 q 282 736 229 728 q 384 745 334 745 q 549 712 479 745 q 656 621 618 680 q 694 483 694 562 l 694 270 q 704 219 694 237 q 732 194 713 201 l 749 189 l 666 -11 l 637 -3 q 541 48 578 15 q 494 122 504 81 l 553 80 l 445 80 l 517 95 q 436 21 498 54 q 297 -11 374 -11 m 400 819 q 274 867 325 819 q 222 985 222 915 q 274 1103 222 1056 q 400 1150 325 1150 q 527 1103 477 1150 q 578 985 578 1056 q 527 867 578 915 q 400 819 477 819 m 400 922 q 444 941 427 922 q 461 986 461 960 q 445 1029 461 1012 q 400 1047 428 1047 q 357 1030 375 1047 q 339 985 339 1013 q 357 941 339 960 q 400 922 375 922 z "},"ǻ":{"ha":781,"x_min":60,"x_max":749,"o":"m 400 819 q 274 867 325 819 q 222 985 222 915 q 274 1103 222 1056 q 400 1150 325 1150 q 527 1103 477 1150 q 578 985 578 1056 q 527 867 578 915 q 400 819 477 819 m 400 922 q 444 941 427 922 q 461 986 461 960 q 445 1029 461 1012 q 400 1047 428 1047 q 357 1030 375 1047 q 339 985 339 1013 q 357 941 339 960 q 400 922 375 922 m 442 1185 l 345 1283 l 583 1493 l 694 1347 l 442 1185 m 297 -11 q 170 20 223 -11 q 88 103 117 52 q 60 217 60 155 q 92 334 60 283 q 183 415 125 386 q 321 445 242 445 l 503 445 l 503 304 l 373 304 q 329 295 348 304 q 299 271 310 287 q 289 233 289 255 q 298 198 289 214 q 325 172 307 182 q 369 163 343 163 q 423 174 397 163 q 464 206 448 186 q 480 254 480 227 l 480 347 l 467 374 l 467 480 q 459 516 467 502 q 440 538 452 530 q 410 550 427 547 q 370 553 392 553 q 300 546 336 553 q 233 525 265 538 q 175 495 201 512 l 99 677 q 181 713 134 698 q 282 736 229 728 q 384 745 334 745 q 549 712 479 745 q 656 621 618 680 q 694 483 694 562 l 694 270 q 704 219 694 237 q 732 194 713 201 l 749 189 l 666 -11 l 637 -3 q 541 48 578 15 q 494 122 504 81 l 553 80 l 445 80 l 517 95 q 436 21 498 54 q 297 -11 374 -11 z "},"ã":{"ha":781,"x_min":60,"x_max":749,"o":"m 297 -11 q 170 20 223 -11 q 88 103 117 52 q 60 217 60 155 q 92 334 60 283 q 183 415 125 386 q 321 445 242 445 l 503 445 l 503 304 l 373 304 q 329 295 348 304 q 299 271 310 287 q 289 233 289 255 q 298 198 289 214 q 325 172 307 182 q 369 163 343 163 q 423 174 397 163 q 464 206 448 186 q 480 254 480 227 l 480 347 l 467 374 l 467 480 q 459 516 467 502 q 440 538 452 530 q 410 550 427 547 q 370 553 392 553 q 300 546 336 553 q 233 525 265 538 q 175 495 201 512 l 99 677 q 181 713 134 698 q 282 736 229 728 q 384 745 334 745 q 549 712 479 745 q 656 621 618 680 q 694 483 694 562 l 694 270 q 704 219 694 237 q 732 194 713 201 l 749 189 l 666 -11 l 637 -3 q 541 48 578 15 q 494 122 504 81 l 553 80 l 445 80 l 517 95 q 436 21 498 54 q 297 -11 374 -11 m 123 811 q 170 978 123 911 q 298 1044 218 1044 q 363 1030 337 1044 q 408 998 389 1017 q 441 966 426 980 q 475 952 456 952 q 510 980 500 952 q 521 1044 520 1008 l 670 1044 q 623 878 671 945 q 494 811 574 811 q 430 825 455 811 q 386 857 404 839 q 352 889 368 876 q 317 903 336 903 q 283 877 294 903 q 273 811 273 851 l 123 811 z "},"æ":{"ha":781,"x_min":16,"x_max":764,"o":"m 213 -11 q 106 21 151 -11 q 39 104 62 52 q 16 218 16 157 q 78 379 16 321 q 232 437 140 437 l 326 437 l 326 300 l 285 300 q 224 278 248 300 q 201 222 201 257 q 215 178 201 195 q 247 160 229 160 q 288 193 275 160 q 301 278 301 227 l 301 471 q 291 527 301 507 q 266 555 281 547 q 233 563 250 563 q 166 548 201 563 q 113 517 132 533 l 50 688 q 136 727 84 711 q 247 743 187 743 q 370 711 323 743 q 437 616 416 678 l 376 616 q 435 707 384 671 q 552 743 487 743 q 663 704 616 743 q 737 592 711 665 q 764 419 764 519 q 761 353 764 390 q 755 300 759 315 l 445 300 l 435 437 l 590 437 q 578 528 590 494 q 537 563 567 563 q 497 542 515 563 q 469 484 479 522 q 458 393 458 446 q 476 275 458 326 q 523 196 493 224 q 590 167 553 167 q 640 178 612 167 q 694 216 668 189 l 755 45 q 718 19 745 32 q 655 -2 691 6 q 585 -11 620 -11 q 443 34 509 -11 q 351 151 377 79 l 407 151 q 378 67 404 104 q 308 10 351 31 q 213 -11 265 -11 z "},"ǽ":{"ha":781,"x_min":16,"x_max":764,"o":"m 213 -11 q 106 21 151 -11 q 39 104 62 52 q 16 218 16 157 q 78 379 16 321 q 232 437 140 437 l 326 437 l 326 300 l 285 300 q 224 278 248 300 q 201 222 201 257 q 215 178 201 195 q 247 160 229 160 q 288 193 275 160 q 301 278 301 227 l 301 471 q 291 527 301 507 q 266 555 281 547 q 233 563 250 563 q 166 548 201 563 q 113 517 132 533 l 50 688 q 136 727 84 711 q 247 743 187 743 q 370 711 323 743 q 437 616 416 678 l 376 616 q 435 707 384 671 q 552 743 487 743 q 663 704 616 743 q 737 592 711 665 q 764 419 764 519 q 761 353 764 390 q 755 300 759 315 l 445 300 l 435 437 l 590 437 q 578 528 590 494 q 537 563 567 563 q 497 542 515 563 q 469 484 479 522 q 458 393 458 446 q 476 275 458 326 q 523 196 493 224 q 590 167 553 167 q 640 178 612 167 q 694 216 668 189 l 755 45 q 718 19 745 32 q 655 -2 691 6 q 585 -11 620 -11 q 443 34 509 -11 q 351 151 377 79 l 407 151 q 378 67 404 104 q 308 10 351 31 q 213 -11 265 -11 m 400 779 l 301 863 l 503 1126 l 629 998 l 400 779 z "},"b":{"ha":781,"x_min":65,"x_max":741,"o":"m 65 0 l 65 1044 l 304 1044 l 304 678 l 320 678 l 290 553 l 290 153 l 319 77 l 290 77 l 290 0 l 65 0 m 476 -11 q 329 36 392 -11 q 232 167 267 82 q 198 366 198 252 q 232 566 198 481 q 326 697 265 650 q 469 743 387 743 q 613 697 552 743 q 707 566 673 650 q 741 366 741 481 q 708 167 741 252 q 616 36 675 82 q 476 -11 557 -11 m 408 189 q 464 211 440 189 q 500 273 487 233 q 513 366 513 313 q 499 459 513 420 q 461 521 486 499 q 403 543 436 543 q 346 521 370 543 q 309 459 322 499 q 296 366 296 420 q 310 273 296 313 q 349 211 323 233 q 408 189 374 189 z "},"c":{"ha":781,"x_min":76,"x_max":697,"o":"m 467 -8 q 262 39 351 -8 q 125 172 174 87 q 76 369 76 257 q 124 564 76 479 q 258 696 172 648 q 456 743 343 743 q 584 723 517 743 q 697 671 652 702 l 609 481 q 542 524 581 508 q 472 540 504 540 q 385 518 422 540 q 325 458 347 497 q 304 369 304 420 q 325 278 304 317 q 381 217 345 239 q 465 195 418 195 q 546 210 505 195 q 612 247 587 224 l 697 53 q 585 9 648 26 q 467 -8 522 -8 z "},"ć":{"ha":781,"x_min":76,"x_max":697,"o":"m 467 -8 q 262 39 351 -8 q 125 172 174 87 q 76 369 76 257 q 124 564 76 479 q 258 696 172 648 q 456 743 343 743 q 584 723 517 743 q 697 671 652 702 l 609 481 q 542 524 581 508 q 472 540 504 540 q 385 518 422 540 q 325 458 347 497 q 304 369 304 420 q 325 278 304 317 q 381 217 345 239 q 465 195 418 195 q 546 210 505 195 q 612 247 587 224 l 697 53 q 585 9 648 26 q 467 -8 522 -8 m 457 780 l 358 864 l 560 1127 l 686 1000 l 457 780 z "},"č":{"ha":781,"x_min":76,"x_max":728,"o":"m 467 -8 q 262 39 351 -8 q 125 172 174 87 q 76 369 76 257 q 124 564 76 479 q 258 696 172 648 q 456 743 343 743 q 584 723 517 743 q 697 671 652 702 l 609 481 q 542 524 581 508 q 472 540 504 540 q 385 518 422 540 q 325 458 347 497 q 304 369 304 420 q 325 278 304 317 q 381 217 345 239 q 465 195 418 195 q 546 210 505 195 q 612 247 587 224 l 697 53 q 585 9 648 26 q 467 -8 522 -8 m 273 1097 l 453 941 l 458 941 l 637 1097 l 728 986 l 477 774 l 433 774 l 184 986 l 273 1097 z "},"ç":{"ha":781,"x_min":76,"x_max":697,"o":"m 467 -8 q 262 39 351 -8 q 125 172 174 87 q 76 369 76 257 q 124 564 76 479 q 258 696 172 648 q 456 743 343 743 q 584 723 517 743 q 697 671 652 702 l 609 481 q 542 524 581 508 q 472 540 504 540 q 385 518 422 540 q 325 458 347 497 q 304 369 304 420 q 325 278 304 317 q 381 217 345 239 q 465 195 418 195 q 546 210 505 195 q 612 247 587 224 l 697 53 q 585 9 648 26 q 467 -8 522 -8 m 330 -355 l 330 -241 q 431 -228 401 -243 q 461 -189 461 -212 q 436 -157 461 -170 q 363 -138 411 -143 l 410 0 l 507 0 l 467 -111 l 460 -61 q 561 -106 522 -72 q 600 -199 600 -141 q 535 -313 600 -269 q 330 -355 471 -357 z "},"ḉ":{"ha":781,"x_min":76,"x_max":697,"o":"m 467 -8 q 262 39 351 -8 q 125 172 174 87 q 76 369 76 257 q 124 564 76 479 q 258 696 172 648 q 456 743 343 743 q 584 723 517 743 q 697 671 652 702 l 609 481 q 542 524 581 508 q 472 540 504 540 q 385 518 422 540 q 325 458 347 497 q 304 369 304 420 q 325 278 304 317 q 381 217 345 239 q 465 195 418 195 q 546 210 505 195 q 612 247 587 224 l 697 53 q 585 9 648 26 q 467 -8 522 -8 m 330 -355 l 330 -241 q 431 -228 401 -243 q 461 -189 461 -212 q 436 -157 461 -170 q 363 -138 411 -143 l 410 0 l 507 0 l 467 -111 l 460 -61 q 561 -106 522 -72 q 600 -199 600 -141 q 535 -313 600 -269 q 330 -355 471 -357 m 457 780 l 358 864 l 560 1127 l 686 1000 l 457 780 z "},"ĉ":{"ha":781,"x_min":76,"x_max":730,"o":"m 467 -8 q 262 39 351 -8 q 125 172 174 87 q 76 369 76 257 q 124 564 76 479 q 258 696 172 648 q 456 743 343 743 q 584 723 517 743 q 697 671 652 702 l 609 481 q 542 524 581 508 q 472 540 504 540 q 385 518 422 540 q 325 458 347 497 q 304 369 304 420 q 325 278 304 317 q 381 217 345 239 q 465 195 418 195 q 546 210 505 195 q 612 247 587 224 l 697 53 q 585 9 648 26 q 467 -8 522 -8 m 274 769 l 186 880 l 434 1092 l 479 1092 l 730 880 l 639 769 l 460 925 l 454 925 l 274 769 z "},"ċ":{"ha":781,"x_min":76,"x_max":697,"o":"m 467 -8 q 262 39 351 -8 q 125 172 174 87 q 76 369 76 257 q 124 564 76 479 q 258 696 172 648 q 456 743 343 743 q 584 723 517 743 q 697 671 652 702 l 609 481 q 542 524 581 508 q 472 540 504 540 q 385 518 422 540 q 325 458 347 497 q 304 369 304 420 q 325 278 304 317 q 381 217 345 239 q 465 195 418 195 q 546 210 505 195 q 612 247 587 224 l 697 53 q 585 9 648 26 q 467 -8 522 -8 m 457 807 q 356 848 397 807 q 315 949 315 890 q 356 1051 315 1010 q 457 1092 397 1092 q 559 1051 518 1092 q 600 949 600 1010 q 559 848 600 890 q 457 807 518 807 z "},"d":{"ha":781,"x_min":41,"x_max":766,"o":"m 685 -11 q 571 41 618 9 q 511 109 524 74 l 522 98 l 465 98 l 491 186 l 491 605 l 461 681 l 477 681 l 477 1044 l 716 1044 l 716 267 q 730 219 716 240 q 766 189 743 197 l 685 -11 m 305 -11 q 165 36 225 -11 q 73 167 106 82 q 41 366 41 252 q 74 566 41 481 q 169 697 108 650 q 312 743 230 743 q 455 697 395 743 q 550 566 516 650 q 583 366 583 481 q 549 167 583 252 q 452 36 515 82 q 305 -11 390 -11 m 373 189 q 433 211 408 189 q 472 273 458 233 q 486 366 486 313 q 472 459 486 420 q 435 521 459 499 q 378 543 411 543 q 320 521 345 543 q 282 459 296 499 q 269 366 269 420 q 281 273 269 313 q 318 211 294 233 q 373 189 342 189 z "},"ď":{"ha":781,"x_min":8,"x_max":779,"o":"m 235 -11 q 106 33 157 -11 q 32 160 56 76 q 8 366 8 244 q 32 573 8 489 q 102 700 56 656 q 216 743 149 743 q 331 700 284 743 q 402 573 378 656 q 426 366 426 489 q 406 160 426 244 q 343 33 385 76 q 235 -11 301 -11 m 281 189 q 310 209 298 189 q 328 269 321 229 q 334 366 334 309 q 328 463 334 424 q 312 522 323 502 q 286 543 302 543 q 258 522 270 543 q 241 463 247 502 q 235 366 235 424 q 240 269 235 309 q 256 209 245 229 q 281 189 266 189 m 551 -11 q 436 42 477 11 q 380 109 395 73 l 387 98 l 335 98 l 338 186 l 338 605 l 313 681 l 326 681 l 326 1044 l 564 1044 l 564 267 q 583 220 564 240 q 631 189 602 199 l 551 -11 m 589 686 l 590 1044 l 779 1044 l 753 686 l 589 686 z "},"đ":{"ha":781,"x_min":41,"x_max":821,"o":"m 685 -11 q 571 41 618 9 q 511 109 524 74 l 522 98 l 465 98 l 491 186 l 491 605 l 461 681 l 477 681 l 477 1044 l 716 1044 l 716 267 q 730 219 716 240 q 766 189 743 197 l 685 -11 m 305 -11 q 165 36 225 -11 q 73 167 106 82 q 41 366 41 252 q 74 566 41 481 q 169 697 108 650 q 312 743 230 743 q 455 697 395 743 q 550 566 516 650 q 583 366 583 481 q 549 167 583 252 q 452 36 515 82 q 305 -11 390 -11 m 373 189 q 433 211 408 189 q 472 273 458 233 q 486 366 486 313 q 472 459 486 420 q 435 521 459 499 q 378 543 411 543 q 320 521 345 543 q 282 459 296 499 q 269 366 269 420 q 281 273 269 313 q 318 211 294 233 q 373 189 342 189 m 373 822 l 373 936 l 821 936 l 821 822 l 373 822 z "},"ḍ":{"ha":781,"x_min":41,"x_max":766,"o":"m 685 -11 q 571 41 618 9 q 511 109 524 74 l 522 98 l 465 98 l 491 186 l 491 605 l 461 681 l 477 681 l 477 1044 l 716 1044 l 716 267 q 730 219 716 240 q 766 189 743 197 l 685 -11 m 305 -11 q 165 36 225 -11 q 73 167 106 82 q 41 366 41 252 q 74 566 41 481 q 169 697 108 650 q 312 743 230 743 q 455 697 395 743 q 550 566 516 650 q 583 366 583 481 q 549 167 583 252 q 452 36 515 82 q 305 -11 390 -11 m 373 189 q 433 211 408 189 q 472 273 458 233 q 486 366 486 313 q 472 459 486 420 q 435 521 459 499 q 378 543 411 543 q 320 521 345 543 q 282 459 296 499 q 269 366 269 420 q 281 273 269 313 q 318 211 294 233 q 373 189 342 189 m 391 -357 q 290 -315 331 -357 q 248 -214 248 -274 q 290 -113 248 -153 q 391 -72 331 -72 q 492 -113 452 -72 q 533 -214 533 -153 q 492 -315 533 -274 q 391 -357 452 -357 z "},"ḏ":{"ha":781,"x_min":41,"x_max":766,"o":"m 685 -11 q 571 41 618 9 q 511 109 524 74 l 522 98 l 465 98 l 491 186 l 491 605 l 461 681 l 477 681 l 477 1044 l 716 1044 l 716 267 q 730 219 716 240 q 766 189 743 197 l 685 -11 m 305 -11 q 165 36 225 -11 q 73 167 106 82 q 41 366 41 252 q 74 566 41 481 q 169 697 108 650 q 312 743 230 743 q 455 697 395 743 q 550 566 516 650 q 583 366 583 481 q 549 167 583 252 q 452 36 515 82 q 305 -11 390 -11 m 373 189 q 433 211 408 189 q 472 273 458 233 q 486 366 486 313 q 472 459 486 420 q 435 521 459 499 q 378 543 411 543 q 320 521 345 543 q 282 459 296 499 q 269 366 269 420 q 281 273 269 313 q 318 211 294 233 q 373 189 342 189 m 103 -289 l 103 -145 l 678 -145 l 678 -289 l 103 -289 z "},"ǆ":{"ha":781,"x_min":14,"x_max":776,"o":"m 159 -11 q 51 86 88 -11 q 14 368 14 183 q 46 647 14 551 q 140 743 78 743 q 243 647 208 743 q 278 366 278 550 q 248 86 278 182 q 159 -11 217 -11 m 210 182 q 236 230 227 182 q 245 368 245 277 q 236 504 245 456 q 210 551 227 551 q 183 504 193 551 q 174 368 174 456 q 183 230 174 277 q 210 182 193 182 m 357 -11 q 279 48 307 15 q 251 119 252 82 l 269 100 l 233 100 l 247 145 l 247 586 l 195 678 l 231 678 l 231 1044 l 393 1044 l 393 224 q 402 201 393 211 q 426 184 410 191 l 357 -11 m 412 0 l 412 35 l 570 566 l 570 570 l 448 570 l 448 732 l 761 732 l 761 697 l 605 167 l 605 163 l 755 163 l 755 0 l 412 0 m 575 774 l 410 954 l 486 1055 l 591 924 l 594 924 l 700 1055 l 776 954 l 610 774 l 575 774 z "},"ð":{"ha":781,"x_min":23,"x_max":757,"o":"m 382 -11 q 203 36 285 -11 q 72 164 121 83 q 23 349 23 245 q 67 523 23 444 q 185 650 111 602 q 351 697 259 697 q 425 688 385 697 q 497 656 465 678 q 537 594 528 633 l 496 642 l 556 642 l 526 609 q 467 720 503 667 q 381 818 431 772 q 269 901 332 863 q 132 967 207 939 l 224 1153 q 456 1013 356 1090 q 623 845 555 936 q 723 654 690 755 q 757 442 757 553 q 709 205 757 307 q 577 46 661 103 q 382 -11 492 -11 m 388 199 q 460 221 429 199 q 509 279 491 243 q 526 361 526 316 q 509 439 526 406 q 460 492 492 473 q 388 511 429 511 q 319 492 350 511 q 271 439 289 473 q 254 361 254 406 q 271 279 254 315 q 319 221 289 242 q 388 199 349 199 m 197 734 l 134 822 l 591 1147 l 674 1025 l 197 734 z "},"e":{"ha":781,"x_min":49,"x_max":732,"o":"m 430 -11 q 229 35 315 -11 q 96 166 143 81 q 49 363 49 250 q 93 564 49 479 q 217 696 137 650 q 406 743 298 743 q 578 701 505 743 q 692 580 652 658 q 732 397 732 503 q 730 338 732 368 q 722 289 727 309 l 241 289 l 241 433 l 506 433 q 493 500 506 471 q 455 545 479 529 q 399 560 431 560 q 324 537 356 560 q 275 471 292 513 q 258 372 258 429 q 279 269 258 313 q 339 201 300 225 q 430 178 378 178 q 520 190 478 178 q 585 221 562 202 l 656 47 q 555 5 617 21 q 430 -11 493 -11 z "},"é":{"ha":781,"x_min":49,"x_max":732,"o":"m 430 -11 q 229 35 315 -11 q 96 166 143 81 q 49 363 49 250 q 93 564 49 479 q 217 696 137 650 q 406 743 298 743 q 578 701 505 743 q 692 580 652 658 q 732 397 732 503 q 730 338 732 368 q 722 289 727 309 l 241 289 l 241 433 l 506 433 q 493 500 506 471 q 455 545 479 529 q 399 560 431 560 q 324 537 356 560 q 275 471 292 513 q 258 372 258 429 q 279 269 258 313 q 339 201 300 225 q 430 178 378 178 q 520 190 478 178 q 585 221 562 202 l 656 47 q 555 5 617 21 q 430 -11 493 -11 m 401 780 l 302 864 l 505 1127 l 631 1000 l 401 780 z "},"ĕ":{"ha":781,"x_min":49,"x_max":732,"o":"m 430 -11 q 229 35 315 -11 q 96 166 143 81 q 49 363 49 250 q 93 564 49 479 q 217 696 137 650 q 406 743 298 743 q 578 701 505 743 q 692 580 652 658 q 732 397 732 503 q 730 338 732 368 q 722 289 727 309 l 241 289 l 241 433 l 506 433 q 493 500 506 471 q 455 545 479 529 q 399 560 431 560 q 324 537 356 560 q 275 471 292 513 q 258 372 258 429 q 279 269 258 313 q 339 201 300 225 q 430 178 378 178 q 520 190 478 178 q 585 221 562 202 l 656 47 q 555 5 617 21 q 430 -11 493 -11 m 400 806 q 264 838 325 806 q 168 923 203 869 q 133 1044 133 977 l 277 1044 q 313 965 277 998 q 400 933 348 933 q 488 965 452 933 q 525 1044 524 998 l 669 1044 q 633 923 669 977 q 537 838 597 869 q 400 806 476 806 z "},"ě":{"ha":781,"x_min":49,"x_max":732,"o":"m 430 -11 q 229 35 315 -11 q 96 166 143 81 q 49 363 49 250 q 93 564 49 479 q 217 696 137 650 q 406 743 298 743 q 578 701 505 743 q 692 580 652 658 q 732 397 732 503 q 730 338 732 368 q 722 289 727 309 l 241 289 l 241 433 l 506 433 q 493 500 506 471 q 455 545 479 529 q 399 560 431 560 q 324 537 356 560 q 275 471 292 513 q 258 372 258 429 q 279 269 258 313 q 339 201 300 225 q 430 178 378 178 q 520 190 478 178 q 585 221 562 202 l 656 47 q 555 5 617 21 q 430 -11 493 -11 m 217 1097 l 397 941 l 403 941 l 582 1097 l 673 986 l 422 774 l 377 774 l 129 986 l 217 1097 z "},"ḝ":{"ha":781,"x_min":49,"x_max":732,"o":"m 430 -11 q 229 35 315 -11 q 96 166 143 81 q 49 363 49 250 q 93 564 49 479 q 217 696 137 650 q 406 743 298 743 q 578 701 505 743 q 692 580 652 658 q 732 397 732 503 q 730 338 732 368 q 722 289 727 309 l 241 289 l 241 433 l 506 433 q 493 500 506 471 q 455 545 479 529 q 399 560 431 560 q 324 537 356 560 q 275 471 292 513 q 258 372 258 429 q 279 269 258 313 q 339 201 300 225 q 430 178 378 178 q 520 190 478 178 q 585 221 562 202 l 656 47 q 555 5 617 21 q 430 -11 493 -11 m 300 -355 l 300 -241 q 401 -228 372 -243 q 431 -189 431 -212 q 406 -157 431 -170 q 334 -138 381 -143 l 380 0 l 477 0 l 437 -111 l 430 -61 q 531 -106 492 -72 q 570 -199 570 -141 q 506 -313 570 -269 q 300 -355 441 -357 m 400 806 q 264 838 325 806 q 168 923 203 869 q 133 1044 133 977 l 277 1044 q 313 965 277 998 q 400 933 348 933 q 488 965 452 933 q 525 1044 524 998 l 669 1044 q 633 923 669 977 q 537 838 597 869 q 400 806 476 806 z "},"ê":{"ha":781,"x_min":49,"x_max":732,"o":"m 430 -11 q 229 35 315 -11 q 96 166 143 81 q 49 363 49 250 q 93 564 49 479 q 217 696 137 650 q 406 743 298 743 q 578 701 505 743 q 692 580 652 658 q 732 397 732 503 q 730 338 732 368 q 722 289 727 309 l 241 289 l 241 433 l 506 433 q 493 500 506 471 q 455 545 479 529 q 399 560 431 560 q 324 537 356 560 q 275 471 292 513 q 258 372 258 429 q 279 269 258 313 q 339 201 300 225 q 430 178 378 178 q 520 190 478 178 q 585 221 562 202 l 656 47 q 555 5 617 21 q 430 -11 493 -11 m 218 769 l 130 880 l 378 1092 l 423 1092 l 674 880 l 583 769 l 404 925 l 399 925 l 218 769 z "},"ế":{"ha":781,"x_min":49,"x_max":867,"o":"m 430 -11 q 229 35 315 -11 q 96 166 143 81 q 49 363 49 250 q 93 564 49 479 q 217 696 137 650 q 406 743 298 743 q 578 701 505 743 q 692 580 652 658 q 732 397 732 503 q 730 338 732 368 q 722 289 727 309 l 241 289 l 241 433 l 506 433 q 493 500 506 471 q 455 545 479 529 q 399 560 431 560 q 324 537 356 560 q 275 471 292 513 q 258 372 258 429 q 279 269 258 313 q 339 201 300 225 q 430 178 378 178 q 520 190 478 178 q 585 221 562 202 l 656 47 q 555 5 617 21 q 430 -11 493 -11 m 636 989 l 533 1061 l 757 1294 l 867 1145 l 636 989 m 235 784 l 129 891 l 377 1061 l 422 1061 l 670 891 l 568 784 l 400 909 l 397 909 l 235 784 z "},"ệ":{"ha":781,"x_min":49,"x_max":732,"o":"m 430 -11 q 229 35 315 -11 q 96 166 143 81 q 49 363 49 250 q 93 564 49 479 q 217 696 137 650 q 406 743 298 743 q 578 701 505 743 q 692 580 652 658 q 732 397 732 503 q 730 338 732 368 q 722 289 727 309 l 241 289 l 241 433 l 506 433 q 493 500 506 471 q 455 545 479 529 q 399 560 431 560 q 324 537 356 560 q 275 471 292 513 q 258 372 258 429 q 279 269 258 313 q 339 201 300 225 q 430 178 378 178 q 520 190 478 178 q 585 221 562 202 l 656 47 q 555 5 617 21 q 430 -11 493 -11 m 408 -357 q 307 -315 349 -357 q 266 -214 266 -274 q 307 -113 266 -153 q 408 -72 349 -72 q 510 -113 469 -72 q 551 -214 551 -153 q 510 -315 551 -274 q 408 -357 469 -357 m 218 769 l 130 880 l 378 1092 l 423 1092 l 674 880 l 583 769 l 404 925 l 399 925 l 218 769 z "},"ề":{"ha":781,"x_min":-64,"x_max":732,"o":"m 430 -11 q 229 35 315 -11 q 96 166 143 81 q 49 363 49 250 q 93 564 49 479 q 217 696 137 650 q 406 743 298 743 q 578 701 505 743 q 692 580 652 658 q 732 397 732 503 q 730 338 732 368 q 722 289 727 309 l 241 289 l 241 433 l 506 433 q 493 500 506 471 q 455 545 479 529 q 399 560 431 560 q 324 537 356 560 q 275 471 292 513 q 258 372 258 429 q 279 269 258 313 q 339 201 300 225 q 430 178 378 178 q 520 190 478 178 q 585 221 562 202 l 656 47 q 555 5 617 21 q 430 -11 493 -11 m 167 989 l -64 1145 l 46 1294 l 270 1061 l 167 989 m 568 784 l 406 909 l 403 909 l 235 784 l 133 891 l 381 1061 l 426 1061 l 674 891 l 568 784 z "},"ể":{"ha":781,"x_min":49,"x_max":732,"o":"m 430 -11 q 229 35 315 -11 q 96 166 143 81 q 49 363 49 250 q 93 564 49 479 q 217 696 137 650 q 406 743 298 743 q 578 701 505 743 q 692 580 652 658 q 732 397 732 503 q 730 338 732 368 q 722 289 727 309 l 241 289 l 241 433 l 506 433 q 493 500 506 471 q 455 545 479 529 q 399 560 431 560 q 324 537 356 560 q 275 471 292 513 q 258 372 258 429 q 279 269 258 313 q 339 201 300 225 q 430 178 378 178 q 520 190 478 178 q 585 221 562 202 l 656 47 q 555 5 617 21 q 430 -11 493 -11 m 620 991 l 538 1053 q 571 1083 559 1068 q 583 1114 583 1099 q 567 1143 583 1133 q 517 1153 551 1153 q 486 1151 502 1153 q 450 1142 471 1148 l 450 1280 q 496 1291 465 1288 q 552 1294 528 1294 q 676 1259 629 1294 q 723 1147 723 1225 q 706 1080 723 1110 q 666 1027 690 1049 q 620 991 642 1004 m 237 784 l 132 891 l 380 1061 l 425 1061 l 673 891 l 571 784 l 403 909 l 400 909 l 237 784 z "},"ễ":{"ha":781,"x_min":49,"x_max":732,"o":"m 430 -11 q 229 35 315 -11 q 96 166 143 81 q 49 363 49 250 q 93 564 49 479 q 217 696 137 650 q 406 743 298 743 q 578 701 505 743 q 692 580 652 658 q 732 397 732 503 q 730 338 732 368 q 722 289 727 309 l 241 289 l 241 433 l 506 433 q 493 500 506 471 q 455 545 479 529 q 399 560 431 560 q 324 537 356 560 q 275 471 292 513 q 258 372 258 429 q 279 269 258 313 q 339 201 300 225 q 430 178 378 178 q 520 190 478 178 q 585 221 562 202 l 656 47 q 555 5 617 21 q 430 -11 493 -11 m 136 1076 q 178 1233 133 1171 q 302 1294 222 1294 q 367 1282 341 1294 q 411 1255 393 1271 q 445 1228 429 1240 q 480 1217 460 1217 q 513 1239 502 1217 q 525 1294 524 1261 l 669 1294 q 653 1184 669 1234 q 603 1105 637 1135 q 517 1076 570 1076 q 452 1087 477 1076 q 408 1114 426 1099 q 376 1141 391 1130 q 343 1153 361 1153 q 296 1133 315 1153 q 277 1076 277 1114 l 136 1076 m 236 784 l 130 891 l 378 1061 l 423 1061 l 671 891 l 570 784 l 401 909 l 399 909 l 236 784 z "},"ȅ":{"ha":781,"x_min":49,"x_max":732,"o":"m 430 -11 q 229 35 315 -11 q 96 166 143 81 q 49 363 49 250 q 93 564 49 479 q 217 696 137 650 q 406 743 298 743 q 578 701 505 743 q 692 580 652 658 q 732 397 732 503 q 730 338 732 368 q 722 289 727 309 l 241 289 l 241 433 l 506 433 q 493 500 506 471 q 455 545 479 529 q 399 560 431 560 q 324 537 356 560 q 275 471 292 513 q 258 372 258 429 q 279 269 258 313 q 339 201 300 225 q 430 178 378 178 q 520 190 478 178 q 585 221 562 202 l 656 47 q 555 5 617 21 q 430 -11 493 -11 m 505 792 l 353 1025 l 514 1100 l 629 819 l 505 792 m 245 792 l 94 1025 l 252 1100 l 370 819 l 245 792 z "},"ë":{"ha":781,"x_min":49,"x_max":732,"o":"m 430 -11 q 229 35 315 -11 q 96 166 143 81 q 49 363 49 250 q 93 564 49 479 q 217 696 137 650 q 406 743 298 743 q 578 701 505 743 q 692 580 652 658 q 732 397 732 503 q 730 338 732 368 q 722 289 727 309 l 241 289 l 241 433 l 506 433 q 493 500 506 471 q 455 545 479 529 q 399 560 431 560 q 324 537 356 560 q 275 471 292 513 q 258 372 258 429 q 279 269 258 313 q 339 201 300 225 q 430 178 378 178 q 520 190 478 178 q 585 221 562 202 l 656 47 q 555 5 617 21 q 430 -11 493 -11 m 574 819 q 483 856 520 819 q 446 947 446 893 q 483 1038 446 1001 q 574 1074 520 1074 q 665 1038 628 1074 q 701 947 701 1001 q 665 856 701 893 q 574 819 628 819 m 229 819 q 139 856 176 819 q 102 947 102 893 q 139 1038 102 1001 q 229 1074 176 1074 q 320 1038 283 1074 q 357 947 357 1001 q 320 856 357 893 q 229 819 283 819 z "},"ė":{"ha":781,"x_min":49,"x_max":732,"o":"m 430 -11 q 229 35 315 -11 q 96 166 143 81 q 49 363 49 250 q 93 564 49 479 q 217 696 137 650 q 406 743 298 743 q 578 701 505 743 q 692 580 652 658 q 732 397 732 503 q 730 338 732 368 q 722 289 727 309 l 241 289 l 241 433 l 506 433 q 493 500 506 471 q 455 545 479 529 q 399 560 431 560 q 324 537 356 560 q 275 471 292 513 q 258 372 258 429 q 279 269 258 313 q 339 201 300 225 q 430 178 378 178 q 520 190 478 178 q 585 221 562 202 l 656 47 q 555 5 617 21 q 430 -11 493 -11 m 401 807 q 300 848 342 807 q 259 949 259 890 q 300 1051 259 1010 q 401 1092 342 1092 q 503 1051 463 1092 q 544 949 544 1010 q 503 848 544 890 q 401 807 463 807 z "},"ẹ":{"ha":781,"x_min":49,"x_max":732,"o":"m 430 -11 q 229 35 315 -11 q 96 166 143 81 q 49 363 49 250 q 93 564 49 479 q 217 696 137 650 q 406 743 298 743 q 578 701 505 743 q 692 580 652 658 q 732 397 732 503 q 730 338 732 368 q 722 289 727 309 l 241 289 l 241 433 l 506 433 q 493 500 506 471 q 455 545 479 529 q 399 560 431 560 q 324 537 356 560 q 275 471 292 513 q 258 372 258 429 q 279 269 258 313 q 339 201 300 225 q 430 178 378 178 q 520 190 478 178 q 585 221 562 202 l 656 47 q 555 5 617 21 q 430 -11 493 -11 m 408 -357 q 307 -315 349 -357 q 266 -214 266 -274 q 307 -113 266 -153 q 408 -72 349 -72 q 510 -113 469 -72 q 551 -214 551 -153 q 510 -315 551 -274 q 408 -357 469 -357 z "},"è":{"ha":781,"x_min":49,"x_max":732,"o":"m 430 -11 q 229 35 315 -11 q 96 166 143 81 q 49 363 49 250 q 93 564 49 479 q 217 696 137 650 q 406 743 298 743 q 578 701 505 743 q 692 580 652 658 q 732 397 732 503 q 730 338 732 368 q 722 289 727 309 l 241 289 l 241 433 l 506 433 q 493 500 506 471 q 455 545 479 529 q 399 560 431 560 q 324 537 356 560 q 275 471 292 513 q 258 372 258 429 q 279 269 258 313 q 339 201 300 225 q 430 178 378 178 q 520 190 478 178 q 585 221 562 202 l 656 47 q 555 5 617 21 q 430 -11 493 -11 m 401 780 l 172 1000 l 298 1127 l 500 864 l 401 780 z "},"ẻ":{"ha":781,"x_min":49,"x_max":732,"o":"m 430 -11 q 229 35 315 -11 q 96 166 143 81 q 49 363 49 250 q 93 564 49 479 q 217 696 137 650 q 406 743 298 743 q 578 701 505 743 q 692 580 652 658 q 732 397 732 503 q 730 338 732 368 q 722 289 727 309 l 241 289 l 241 433 l 506 433 q 493 500 506 471 q 455 545 479 529 q 399 560 431 560 q 324 537 356 560 q 275 471 292 513 q 258 372 258 429 q 279 269 258 313 q 339 201 300 225 q 430 178 378 178 q 520 190 478 178 q 585 221 562 202 l 656 47 q 555 5 617 21 q 430 -11 493 -11 m 427 777 l 343 859 q 376 888 361 872 q 391 922 391 903 q 374 949 391 940 q 327 959 358 959 q 295 957 315 959 q 259 947 275 954 l 259 1084 q 302 1096 272 1092 q 358 1100 332 1100 q 484 1063 437 1100 q 532 956 532 1027 q 498 844 532 891 q 427 777 465 797 z "},"ȇ":{"ha":781,"x_min":49,"x_max":732,"o":"m 430 -11 q 229 35 315 -11 q 96 166 143 81 q 49 363 49 250 q 93 564 49 479 q 217 696 137 650 q 406 743 298 743 q 578 701 505 743 q 692 580 652 658 q 732 397 732 503 q 730 338 732 368 q 722 289 727 309 l 241 289 l 241 433 l 506 433 q 493 500 506 471 q 455 545 479 529 q 399 560 431 560 q 324 537 356 560 q 275 471 292 513 q 258 372 258 429 q 279 269 258 313 q 339 201 300 225 q 430 178 378 178 q 520 190 478 178 q 585 221 562 202 l 656 47 q 555 5 617 21 q 430 -11 493 -11 m 400 1050 q 537 1018 476 1050 q 633 932 597 987 q 669 811 669 878 l 525 811 q 488 890 524 858 q 400 922 452 922 q 313 890 348 922 q 277 811 277 858 l 133 811 q 168 932 133 878 q 264 1018 203 987 q 400 1050 325 1050 z "},"ē":{"ha":781,"x_min":49,"x_max":732,"o":"m 430 -11 q 229 35 315 -11 q 96 166 143 81 q 49 363 49 250 q 93 564 49 479 q 217 696 137 650 q 406 743 298 743 q 578 701 505 743 q 692 580 652 658 q 732 397 732 503 q 730 338 732 368 q 722 289 727 309 l 241 289 l 241 433 l 506 433 q 493 500 506 471 q 455 545 479 529 q 399 560 431 560 q 324 537 356 560 q 275 471 292 513 q 258 372 258 429 q 279 269 258 313 q 339 201 300 225 q 430 178 378 178 q 520 190 478 178 q 585 221 562 202 l 656 47 q 555 5 617 21 q 430 -11 493 -11 m 114 842 l 114 986 l 689 986 l 689 842 l 114 842 z "},"ḗ":{"ha":781,"x_min":49,"x_max":732,"o":"m 430 -11 q 229 35 315 -11 q 96 166 143 81 q 49 363 49 250 q 93 564 49 479 q 217 696 137 650 q 406 743 298 743 q 578 701 505 743 q 692 580 652 658 q 732 397 732 503 q 730 338 732 368 q 722 289 727 309 l 241 289 l 241 433 l 506 433 q 493 500 506 471 q 455 545 479 529 q 399 560 431 560 q 324 537 356 560 q 275 471 292 513 q 258 372 258 429 q 279 269 258 313 q 339 201 300 225 q 430 178 378 178 q 520 190 478 178 q 585 221 562 202 l 656 47 q 555 5 617 21 q 430 -11 493 -11 m 114 842 l 114 986 l 689 986 l 689 842 l 114 842 m 401 1047 l 302 1131 l 505 1394 l 631 1267 l 401 1047 z "},"ḕ":{"ha":781,"x_min":49,"x_max":732,"o":"m 430 -11 q 229 35 315 -11 q 96 166 143 81 q 49 363 49 250 q 93 564 49 479 q 217 696 137 650 q 406 743 298 743 q 578 701 505 743 q 692 580 652 658 q 732 397 732 503 q 730 338 732 368 q 722 289 727 309 l 241 289 l 241 433 l 506 433 q 493 500 506 471 q 455 545 479 529 q 399 560 431 560 q 324 537 356 560 q 275 471 292 513 q 258 372 258 429 q 279 269 258 313 q 339 201 300 225 q 430 178 378 178 q 520 190 478 178 q 585 221 562 202 l 656 47 q 555 5 617 21 q 430 -11 493 -11 m 114 842 l 114 986 l 689 986 l 689 842 l 114 842 m 401 1047 l 172 1267 l 298 1394 l 500 1131 l 401 1047 z "},"ę":{"ha":781,"x_min":49,"x_max":732,"o":"m 430 -11 q 229 35 315 -11 q 96 166 143 81 q 49 363 49 250 q 93 564 49 479 q 217 696 137 650 q 406 743 298 743 q 578 701 505 743 q 692 580 652 658 q 732 397 732 503 q 730 338 732 368 q 722 289 727 309 l 241 289 l 241 433 l 506 433 q 493 500 506 471 q 455 545 479 529 q 399 560 431 560 q 324 537 356 560 q 275 471 292 513 q 258 372 258 429 q 279 269 258 313 q 339 201 300 225 q 430 178 378 178 q 520 190 478 178 q 585 221 562 202 l 656 47 q 555 5 617 21 q 430 -11 493 -11 m 545 -250 q 431 -211 475 -250 q 387 -106 387 -172 q 425 -4 387 -49 q 536 84 464 41 l 656 47 q 593 6 622 26 q 547 -35 564 -14 q 530 -77 530 -56 q 544 -106 530 -96 q 587 -117 557 -117 q 624 -113 604 -117 q 654 -103 644 -109 l 654 -233 q 600 -245 634 -241 q 545 -250 566 -250 z "},"ẽ":{"ha":781,"x_min":49,"x_max":732,"o":"m 430 -11 q 229 35 315 -11 q 96 166 143 81 q 49 363 49 250 q 93 564 49 479 q 217 696 137 650 q 406 743 298 743 q 578 701 505 743 q 692 580 652 658 q 732 397 732 503 q 730 338 732 368 q 722 289 727 309 l 241 289 l 241 433 l 506 433 q 493 500 506 471 q 455 545 479 529 q 399 560 431 560 q 324 537 356 560 q 275 471 292 513 q 258 372 258 429 q 279 269 258 313 q 339 201 300 225 q 430 178 378 178 q 520 190 478 178 q 585 221 562 202 l 656 47 q 555 5 617 21 q 430 -11 493 -11 m 125 811 q 172 978 124 911 q 300 1044 219 1044 q 365 1030 338 1044 q 409 998 391 1017 q 443 966 427 980 q 476 952 458 952 q 511 980 501 952 q 522 1044 522 1008 l 671 1044 q 624 878 672 945 q 495 811 576 811 q 431 825 456 811 q 388 857 406 839 q 354 889 370 876 q 319 903 338 903 q 285 877 295 903 q 274 811 275 851 l 125 811 z "},"ə":{"ha":781,"x_min":39,"x_max":742,"o":"m 376 -11 q 203 34 279 -11 q 83 157 127 79 q 39 335 39 235 q 43 397 39 365 q 50 444 46 429 l 549 444 l 549 300 l 266 300 q 281 229 266 258 q 323 186 297 201 q 382 172 350 172 q 465 199 431 172 q 516 268 498 225 q 533 361 533 311 q 509 463 533 419 q 443 531 484 507 q 350 555 401 555 q 288 548 321 555 q 228 532 255 542 q 190 513 201 522 l 118 685 q 218 727 156 711 q 351 743 280 743 q 558 695 471 743 q 694 563 646 648 q 742 369 742 479 q 691 168 742 253 q 557 36 640 83 q 376 -11 473 -11 z "},"f":{"ha":781,"x_min":68,"x_max":765,"o":"m 228 0 l 228 766 q 271 930 228 863 q 387 1033 314 998 q 551 1069 460 1069 q 664 1055 608 1069 q 765 1015 720 1041 l 677 830 q 632 850 661 842 q 576 859 604 859 q 499 833 529 859 q 469 766 469 807 l 469 0 l 228 0 m 68 529 l 68 732 l 699 732 l 699 529 l 68 529 z "},"g":{"ha":781,"x_min":43,"x_max":708,"o":"m 353 -296 q 199 -274 269 -296 q 91 -229 130 -252 l 168 -43 q 251 -83 213 -71 q 321 -96 289 -96 q 392 -83 353 -96 q 458 -40 430 -69 q 486 34 486 -12 l 486 100 l 465 100 l 499 170 l 499 583 l 441 666 l 496 666 l 496 732 l 708 732 l 708 47 q 684 -99 708 -35 q 613 -207 659 -163 q 501 -273 567 -251 q 353 -296 435 -296 m 315 19 q 222 40 270 19 q 134 104 175 60 q 68 215 94 147 q 43 378 43 283 q 86 584 43 503 q 193 704 129 665 q 321 743 257 743 q 466 695 404 743 q 563 567 528 647 q 598 392 598 487 q 561 208 598 293 q 458 71 523 123 q 315 19 394 19 m 380 212 q 440 234 414 212 q 481 296 467 256 q 496 387 496 335 q 482 475 496 438 q 443 532 468 512 q 387 552 418 552 q 330 532 355 552 q 290 476 305 513 q 275 387 275 439 q 289 296 275 336 q 326 234 302 257 q 380 212 349 212 z "},"ǵ":{"ha":781,"x_min":43,"x_max":708,"o":"m 353 -296 q 199 -274 269 -296 q 91 -229 130 -252 l 168 -43 q 251 -83 213 -71 q 321 -96 289 -96 q 392 -83 353 -96 q 458 -40 430 -69 q 486 34 486 -12 l 486 100 l 465 100 l 499 170 l 499 583 l 441 666 l 496 666 l 496 732 l 708 732 l 708 47 q 684 -99 708 -35 q 613 -207 659 -163 q 501 -273 567 -251 q 353 -296 435 -296 m 315 19 q 222 40 270 19 q 134 104 175 60 q 68 215 94 147 q 43 378 43 283 q 86 584 43 503 q 193 704 129 665 q 321 743 257 743 q 466 695 404 743 q 563 567 528 647 q 598 392 598 487 q 561 208 598 293 q 458 71 523 123 q 315 19 394 19 m 380 212 q 440 234 414 212 q 481 296 467 256 q 496 387 496 335 q 482 475 496 438 q 443 532 468 512 q 387 552 418 552 q 330 532 355 552 q 290 476 305 513 q 275 387 275 439 q 289 296 275 336 q 326 234 302 257 q 380 212 349 212 m 372 780 l 273 864 l 475 1127 l 601 1000 l 372 780 z "},"ğ":{"ha":781,"x_min":43,"x_max":708,"o":"m 353 -296 q 199 -274 269 -296 q 91 -229 130 -252 l 168 -43 q 251 -83 213 -71 q 321 -96 289 -96 q 392 -83 353 -96 q 458 -40 430 -69 q 486 34 486 -12 l 486 100 l 465 100 l 499 170 l 499 583 l 441 666 l 496 666 l 496 732 l 708 732 l 708 47 q 684 -99 708 -35 q 613 -207 659 -163 q 501 -273 567 -251 q 353 -296 435 -296 m 315 19 q 222 40 270 19 q 134 104 175 60 q 68 215 94 147 q 43 378 43 283 q 86 584 43 503 q 193 704 129 665 q 321 743 257 743 q 466 695 404 743 q 563 567 528 647 q 598 392 598 487 q 561 208 598 293 q 458 71 523 123 q 315 19 394 19 m 380 212 q 440 234 414 212 q 481 296 467 256 q 496 387 496 335 q 482 475 496 438 q 443 532 468 512 q 387 552 418 552 q 330 532 355 552 q 290 476 305 513 q 275 387 275 439 q 289 296 275 336 q 326 234 302 257 q 380 212 349 212 m 370 806 q 234 838 295 806 q 138 923 174 869 q 103 1044 103 977 l 247 1044 q 283 965 248 998 q 370 933 318 933 q 458 965 422 933 q 495 1044 494 998 l 639 1044 q 604 923 640 977 q 507 838 568 869 q 370 806 446 806 z "},"ǧ":{"ha":781,"x_min":43,"x_max":708,"o":"m 353 -296 q 199 -274 269 -296 q 91 -229 130 -252 l 168 -43 q 251 -83 213 -71 q 321 -96 289 -96 q 392 -83 353 -96 q 458 -40 430 -69 q 486 34 486 -12 l 486 100 l 465 100 l 499 170 l 499 583 l 441 666 l 496 666 l 496 732 l 708 732 l 708 47 q 684 -99 708 -35 q 613 -207 659 -163 q 501 -273 567 -251 q 353 -296 435 -296 m 315 19 q 222 40 270 19 q 134 104 175 60 q 68 215 94 147 q 43 378 43 283 q 86 584 43 503 q 193 704 129 665 q 321 743 257 743 q 466 695 404 743 q 563 567 528 647 q 598 392 598 487 q 561 208 598 293 q 458 71 523 123 q 315 19 394 19 m 380 212 q 440 234 414 212 q 481 296 467 256 q 496 387 496 335 q 482 475 496 438 q 443 532 468 512 q 387 552 418 552 q 330 532 355 552 q 290 476 305 513 q 275 387 275 439 q 289 296 275 336 q 326 234 302 257 q 380 212 349 212 m 187 1097 l 368 941 l 373 941 l 552 1097 l 643 986 l 392 774 l 347 774 l 99 986 l 187 1097 z "},"ĝ":{"ha":781,"x_min":43,"x_max":708,"o":"m 353 -296 q 199 -274 269 -296 q 91 -229 130 -252 l 168 -43 q 251 -83 213 -71 q 321 -96 289 -96 q 392 -83 353 -96 q 458 -40 430 -69 q 486 34 486 -12 l 486 100 l 465 100 l 499 170 l 499 583 l 441 666 l 496 666 l 496 732 l 708 732 l 708 47 q 684 -99 708 -35 q 613 -207 659 -163 q 501 -273 567 -251 q 353 -296 435 -296 m 315 19 q 222 40 270 19 q 134 104 175 60 q 68 215 94 147 q 43 378 43 283 q 86 584 43 503 q 193 704 129 665 q 321 743 257 743 q 466 695 404 743 q 563 567 528 647 q 598 392 598 487 q 561 208 598 293 q 458 71 523 123 q 315 19 394 19 m 380 212 q 440 234 414 212 q 481 296 467 256 q 496 387 496 335 q 482 475 496 438 q 443 532 468 512 q 387 552 418 552 q 330 532 355 552 q 290 476 305 513 q 275 387 275 439 q 289 296 275 336 q 326 234 302 257 q 380 212 349 212 m 189 769 l 100 880 l 349 1092 l 393 1092 l 644 880 l 553 769 l 374 925 l 369 925 l 189 769 z "},"ģ":{"ha":781,"x_min":43,"x_max":708,"o":"m 353 -296 q 199 -274 269 -296 q 91 -229 130 -252 l 168 -43 q 251 -83 213 -71 q 321 -96 289 -96 q 392 -83 353 -96 q 458 -40 430 -69 q 486 34 486 -12 l 486 100 l 465 100 l 499 170 l 499 583 l 441 666 l 496 666 l 496 732 l 708 732 l 708 47 q 684 -99 708 -35 q 613 -207 659 -163 q 501 -273 567 -251 q 353 -296 435 -296 m 315 19 q 222 40 270 19 q 134 104 175 60 q 68 215 94 147 q 43 378 43 283 q 86 584 43 503 q 193 704 129 665 q 321 743 257 743 q 466 695 404 743 q 563 567 528 647 q 598 392 598 487 q 561 208 598 293 q 458 71 523 123 q 315 19 394 19 m 380 212 q 440 234 414 212 q 481 296 467 256 q 496 387 496 335 q 482 475 496 438 q 443 532 468 512 q 387 552 418 552 q 330 532 355 552 q 290 476 305 513 q 275 387 275 439 q 289 296 275 336 q 326 234 302 257 q 380 212 349 212 m 430 1184 l 473 1126 l 408 1076 q 384 1051 399 1067 q 356 1016 368 1035 q 345 983 345 998 l 319 983 q 332 1016 319 1002 q 373 1031 345 1031 q 438 1004 406 1031 q 471 930 471 977 q 440 861 471 887 q 373 834 410 834 q 301 861 332 834 q 270 945 270 888 q 287 1028 270 992 q 326 1088 304 1064 q 362 1126 347 1113 l 430 1184 z "},"ġ":{"ha":781,"x_min":43,"x_max":708,"o":"m 353 -296 q 199 -274 269 -296 q 91 -229 130 -252 l 168 -43 q 251 -83 213 -71 q 321 -96 289 -96 q 392 -83 353 -96 q 458 -40 430 -69 q 486 34 486 -12 l 486 100 l 465 100 l 499 170 l 499 583 l 441 666 l 496 666 l 496 732 l 708 732 l 708 47 q 684 -99 708 -35 q 613 -207 659 -163 q 501 -273 567 -251 q 353 -296 435 -296 m 315 19 q 222 40 270 19 q 134 104 175 60 q 68 215 94 147 q 43 378 43 283 q 86 584 43 503 q 193 704 129 665 q 321 743 257 743 q 466 695 404 743 q 563 567 528 647 q 598 392 598 487 q 561 208 598 293 q 458 71 523 123 q 315 19 394 19 m 380 212 q 440 234 414 212 q 481 296 467 256 q 496 387 496 335 q 482 475 496 438 q 443 532 468 512 q 387 552 418 552 q 330 532 355 552 q 290 476 305 513 q 275 387 275 439 q 289 296 275 336 q 326 234 302 257 q 380 212 349 212 m 372 807 q 271 848 312 807 q 229 949 229 890 q 271 1051 229 1010 q 372 1092 312 1092 q 473 1051 433 1092 q 514 949 514 1010 q 473 848 514 890 q 372 807 433 807 z "},"ḡ":{"ha":781,"x_min":43,"x_max":708,"o":"m 353 -296 q 199 -274 269 -296 q 91 -229 130 -252 l 168 -43 q 251 -83 213 -71 q 321 -96 289 -96 q 392 -83 353 -96 q 458 -40 430 -69 q 486 34 486 -12 l 486 100 l 465 100 l 499 170 l 499 583 l 441 666 l 496 666 l 496 732 l 708 732 l 708 47 q 684 -99 708 -35 q 613 -207 659 -163 q 501 -273 567 -251 q 353 -296 435 -296 m 315 19 q 222 40 270 19 q 134 104 175 60 q 68 215 94 147 q 43 378 43 283 q 86 584 43 503 q 193 704 129 665 q 321 743 257 743 q 466 695 404 743 q 563 567 528 647 q 598 392 598 487 q 561 208 598 293 q 458 71 523 123 q 315 19 394 19 m 380 212 q 440 234 414 212 q 481 296 467 256 q 496 387 496 335 q 482 475 496 438 q 443 532 468 512 q 387 552 418 552 q 330 532 355 552 q 290 476 305 513 q 275 387 275 439 q 289 296 275 336 q 326 234 302 257 q 380 212 349 212 m 84 842 l 84 986 l 659 986 l 659 842 l 84 842 z "},"h":{"ha":781,"x_min":65,"x_max":722,"o":"m 65 0 l 65 1044 l 307 1044 l 307 670 l 349 670 l 271 589 q 315 674 281 640 q 397 726 349 709 q 495 743 445 743 q 616 712 566 743 q 694 622 667 680 q 722 483 722 564 l 722 0 l 480 0 l 480 430 q 457 518 480 489 q 396 547 434 547 q 351 533 372 547 q 319 493 331 519 q 307 427 307 466 l 307 0 l 65 0 z "},"ħ":{"ha":781,"x_min":-39,"x_max":722,"o":"m 65 0 l 65 1044 l 307 1044 l 307 670 l 349 670 l 271 589 q 315 674 281 640 q 397 726 349 709 q 495 743 445 743 q 616 712 566 743 q 694 622 667 680 q 722 483 722 564 l 722 0 l 480 0 l 480 430 q 457 518 480 489 q 396 547 434 547 q 351 533 372 547 q 319 493 331 519 q 307 427 307 466 l 307 0 l 65 0 m -39 822 l -39 936 l 408 936 l 408 822 l -39 822 z "},"ḫ":{"ha":781,"x_min":65,"x_max":722,"o":"m 65 0 l 65 1044 l 307 1044 l 307 670 l 349 670 l 271 589 q 315 674 281 640 q 397 726 349 709 q 495 743 445 743 q 616 712 566 743 q 694 622 667 680 q 722 483 722 564 l 722 0 l 480 0 l 480 430 q 457 518 480 489 q 396 547 434 547 q 351 533 372 547 q 319 493 331 519 q 307 427 307 466 l 307 0 l 65 0 m 392 -319 q 256 -287 317 -319 q 160 -201 195 -255 q 125 -80 125 -147 l 269 -80 q 304 -159 269 -127 q 392 -191 340 -191 q 480 -159 444 -191 q 517 -80 516 -127 l 661 -80 q 625 -201 661 -147 q 529 -287 589 -255 q 392 -319 468 -319 z "},"ĥ":{"ha":781,"x_min":-87,"x_max":722,"o":"m 65 0 l 65 1044 l 307 1044 l 307 670 l 349 670 l 271 589 q 315 674 281 640 q 397 726 349 709 q 495 743 445 743 q 616 712 566 743 q 694 622 667 680 q 722 483 722 564 l 722 0 l 480 0 l 480 430 q 457 518 480 489 q 396 547 434 547 q 351 533 372 547 q 319 493 331 519 q 307 427 307 466 l 307 0 l 65 0 m 19 1095 l -87 1203 l 161 1375 l 206 1375 l 454 1203 l 353 1095 l 184 1219 l 182 1219 l 19 1095 z "},"ḥ":{"ha":781,"x_min":65,"x_max":722,"o":"m 65 0 l 65 1044 l 307 1044 l 307 670 l 349 670 l 271 589 q 315 674 281 640 q 397 726 349 709 q 495 743 445 743 q 616 712 566 743 q 694 622 667 680 q 722 483 722 564 l 722 0 l 480 0 l 480 430 q 457 518 480 489 q 396 547 434 547 q 351 533 372 547 q 319 493 331 519 q 307 427 307 466 l 307 0 l 65 0 m 393 -357 q 292 -315 334 -357 q 251 -214 251 -274 q 292 -113 251 -153 q 393 -72 334 -72 q 495 -113 454 -72 q 536 -214 536 -153 q 495 -315 536 -274 q 393 -357 454 -357 z "},"i":{"ha":781,"x_min":104,"x_max":576,"o":"m 313 0 l 313 732 l 555 732 l 555 0 l 313 0 m 104 529 l 104 732 l 555 732 l 555 529 l 104 529 m 434 807 q 333 848 374 807 q 292 949 292 890 q 333 1051 292 1010 q 434 1092 374 1092 q 536 1051 495 1092 q 576 949 576 1010 q 536 848 576 890 q 434 807 495 807 z "},"ı":{"ha":781,"x_min":104,"x_max":555,"o":"m 313 0 l 313 732 l 555 732 l 555 0 l 313 0 m 104 529 l 104 732 l 555 732 l 555 529 l 104 529 z "},"í":{"ha":781,"x_min":104,"x_max":663,"o":"m 313 0 l 313 732 l 555 732 l 555 0 l 313 0 m 104 529 l 104 732 l 555 732 l 555 529 l 104 529 m 434 780 l 335 864 l 537 1127 l 663 1000 l 434 780 z "},"ĭ":{"ha":781,"x_min":104,"x_max":702,"o":"m 313 0 l 313 732 l 555 732 l 555 0 l 313 0 m 104 529 l 104 732 l 555 732 l 555 529 l 104 529 m 433 806 q 297 838 357 806 q 201 923 236 869 q 165 1044 165 977 l 309 1044 q 345 965 310 998 q 433 933 380 933 q 521 965 485 933 q 557 1044 557 998 l 701 1044 q 666 923 702 977 q 569 838 630 869 q 433 806 509 806 z "},"ǐ":{"ha":781,"x_min":104,"x_max":705,"o":"m 313 0 l 313 732 l 555 732 l 555 0 l 313 0 m 104 529 l 104 732 l 555 732 l 555 529 l 104 529 m 250 1097 l 430 941 l 435 941 l 614 1097 l 705 986 l 454 774 l 410 774 l 161 986 l 250 1097 z "},"î":{"ha":781,"x_min":104,"x_max":707,"o":"m 313 0 l 313 732 l 555 732 l 555 0 l 313 0 m 104 529 l 104 732 l 555 732 l 555 529 l 104 529 m 251 769 l 163 880 l 411 1092 l 456 1092 l 707 880 l 616 769 l 437 925 l 431 925 l 251 769 z "},"ȉ":{"ha":781,"x_min":104,"x_max":662,"o":"m 313 0 l 313 732 l 555 732 l 555 0 l 313 0 m 104 529 l 104 732 l 555 732 l 555 529 l 104 529 m 537 792 l 385 1025 l 547 1100 l 662 819 l 537 792 m 278 792 l 126 1025 l 285 1100 l 403 819 l 278 792 z "},"ï":{"ha":781,"x_min":104,"x_max":734,"o":"m 313 0 l 313 732 l 555 732 l 555 0 l 313 0 m 104 529 l 104 732 l 555 732 l 555 529 l 104 529 m 606 819 q 516 856 553 819 q 479 947 479 893 q 516 1038 479 1001 q 606 1074 553 1074 q 697 1038 661 1074 q 734 947 734 1001 q 697 856 734 893 q 606 819 661 819 m 262 819 q 171 856 208 819 q 134 947 134 893 q 171 1038 134 1001 q 262 1074 208 1074 q 353 1038 316 1074 q 389 947 389 1001 q 353 856 389 893 q 262 819 316 819 z "},"ḯ":{"ha":781,"x_min":104,"x_max":734,"o":"m 313 0 l 313 732 l 555 732 l 555 0 l 313 0 m 104 529 l 104 732 l 555 732 l 555 529 l 104 529 m 606 819 q 516 856 553 819 q 479 947 479 893 q 516 1038 479 1001 q 606 1074 553 1074 q 697 1038 661 1074 q 734 947 734 1001 q 697 856 734 893 q 606 819 661 819 m 262 819 q 171 856 208 819 q 134 947 134 893 q 171 1038 134 1001 q 262 1074 208 1074 q 353 1038 316 1074 q 389 947 389 1001 q 353 856 389 893 q 262 819 316 819 m 434 1078 l 335 1162 l 537 1426 l 663 1298 l 434 1078 z "},"ị":{"ha":781,"x_min":104,"x_max":576,"o":"m 313 0 l 313 732 l 555 732 l 555 0 l 313 0 m 104 529 l 104 732 l 555 732 l 555 529 l 104 529 m 434 807 q 333 848 374 807 q 292 949 292 890 q 333 1051 292 1010 q 434 1092 374 1092 q 536 1051 495 1092 q 576 949 576 1010 q 536 848 576 890 q 434 807 495 807 m 434 -357 q 333 -315 374 -357 q 292 -214 292 -274 q 333 -113 292 -153 q 434 -72 374 -72 q 536 -113 495 -72 q 576 -214 576 -153 q 536 -315 576 -274 q 434 -357 495 -357 z "},"ì":{"ha":781,"x_min":104,"x_max":555,"o":"m 313 0 l 313 732 l 555 732 l 555 0 l 313 0 m 104 529 l 104 732 l 555 732 l 555 529 l 104 529 m 434 780 l 205 1000 l 331 1127 l 533 864 l 434 780 z "},"ỉ":{"ha":781,"x_min":104,"x_max":564,"o":"m 313 0 l 313 732 l 555 732 l 555 0 l 313 0 m 104 529 l 104 732 l 555 732 l 555 529 l 104 529 m 460 777 l 376 859 q 408 888 393 872 q 423 922 423 903 q 407 949 423 940 q 359 959 391 959 q 328 957 348 959 q 292 947 307 954 l 292 1084 q 335 1096 304 1092 q 391 1100 365 1100 q 517 1063 469 1100 q 564 956 564 1027 q 531 844 564 891 q 460 777 497 797 z "},"ȋ":{"ha":781,"x_min":104,"x_max":702,"o":"m 313 0 l 313 732 l 555 732 l 555 0 l 313 0 m 104 529 l 104 732 l 555 732 l 555 529 l 104 529 m 433 1050 q 569 1018 509 1050 q 666 932 630 987 q 701 811 702 878 l 557 811 q 521 890 557 858 q 433 922 485 922 q 345 890 380 922 q 309 811 310 858 l 165 811 q 201 932 165 878 q 297 1018 236 987 q 433 1050 357 1050 z "},"ī":{"ha":781,"x_min":104,"x_max":722,"o":"m 313 0 l 313 732 l 555 732 l 555 0 l 313 0 m 104 529 l 104 732 l 555 732 l 555 529 l 104 529 m 146 842 l 146 986 l 722 986 l 722 842 l 146 842 z "},"į":{"ha":781,"x_min":104,"x_max":576,"o":"m 313 0 l 313 732 l 555 732 l 555 0 l 313 0 m 104 529 l 104 732 l 555 732 l 555 529 l 104 529 m 434 807 q 333 848 374 807 q 292 949 292 890 q 333 1051 292 1010 q 434 1092 374 1092 q 536 1051 495 1092 q 576 949 576 1010 q 536 848 576 890 q 434 807 495 807 m 444 -297 q 329 -258 373 -297 q 285 -153 285 -219 q 323 -51 285 -96 q 434 37 362 -6 l 555 0 q 491 -41 520 -21 q 446 -82 463 -62 q 429 -125 429 -103 q 442 -154 429 -144 q 486 -164 456 -164 q 523 -160 503 -164 q 552 -151 543 -157 l 552 -281 q 498 -293 532 -289 q 444 -297 465 -297 z "},"ĩ":{"ha":781,"x_min":104,"x_max":705,"o":"m 313 0 l 313 732 l 555 732 l 555 0 l 313 0 m 104 529 l 104 732 l 555 732 l 555 529 l 104 529 m 157 811 q 204 978 157 911 q 332 1044 252 1044 q 397 1030 371 1044 q 441 998 423 1017 q 475 966 460 980 q 509 952 490 952 q 544 980 534 952 q 555 1044 554 1008 l 704 1044 q 656 878 705 945 q 528 811 608 811 q 464 825 489 811 q 420 857 438 839 q 386 889 402 876 q 351 903 370 903 q 317 877 328 903 q 307 811 307 851 l 157 811 z "},"j":{"ha":781,"x_min":22,"x_max":640,"o":"m 278 -296 q 145 -281 212 -296 q 22 -239 78 -266 l 102 -46 q 179 -79 136 -66 q 259 -91 222 -91 q 311 -83 283 -91 q 358 -54 338 -75 q 377 7 377 -33 l 377 732 l 618 732 l 618 7 q 604 -95 618 -48 q 560 -179 589 -142 q 489 -242 531 -216 q 395 -282 448 -268 q 278 -296 342 -296 m 133 515 l 133 732 l 618 732 l 618 515 l 133 515 m 498 807 q 397 848 438 807 q 355 949 355 890 q 397 1051 355 1010 q 498 1092 438 1092 q 600 1051 559 1092 q 640 949 640 1010 q 600 848 640 890 q 498 807 559 807 z "},"ȷ":{"ha":781,"x_min":22,"x_max":618,"o":"m 278 -296 q 145 -281 212 -296 q 22 -239 78 -266 l 102 -46 q 179 -79 136 -66 q 259 -91 222 -91 q 311 -83 283 -91 q 358 -54 338 -75 q 377 7 377 -33 l 377 732 l 618 732 l 618 7 q 604 -95 618 -48 q 560 -179 589 -142 q 489 -242 531 -216 q 395 -282 448 -268 q 278 -296 342 -296 m 133 515 l 133 732 l 618 732 l 618 515 l 133 515 z "},"ĵ":{"ha":781,"x_min":22,"x_max":770,"o":"m 278 -296 q 145 -281 212 -296 q 22 -239 78 -266 l 102 -46 q 179 -79 136 -66 q 259 -91 222 -91 q 311 -83 283 -91 q 358 -54 338 -75 q 377 7 377 -33 l 377 732 l 618 732 l 618 7 q 604 -95 618 -48 q 560 -179 589 -142 q 489 -242 531 -216 q 395 -282 448 -268 q 278 -296 342 -296 m 133 515 l 133 732 l 618 732 l 618 515 l 133 515 m 315 769 l 227 880 l 475 1092 l 519 1092 l 770 880 l 680 769 l 500 925 l 495 925 l 315 769 z "},"k":{"ha":781,"x_min":65,"x_max":779,"o":"m 65 0 l 65 1044 l 307 1044 l 307 448 l 359 448 l 290 411 l 490 732 l 769 732 l 463 313 l 463 453 l 779 0 l 499 0 l 288 345 l 359 308 l 307 308 l 307 0 l 65 0 z "},"ķ":{"ha":781,"x_min":65,"x_max":779,"o":"m 65 0 l 65 1044 l 307 1044 l 307 448 l 359 448 l 290 411 l 490 732 l 769 732 l 463 313 l 463 453 l 779 0 l 499 0 l 288 345 l 359 308 l 307 308 l 307 0 l 65 0 m 338 -437 l 294 -378 l 359 -328 q 384 -303 369 -320 q 411 -269 399 -287 q 423 -236 423 -250 l 449 -236 q 436 -269 449 -254 q 395 -283 423 -283 q 330 -256 362 -283 q 297 -183 297 -229 q 328 -113 297 -139 q 395 -87 358 -87 q 467 -114 437 -87 q 498 -198 498 -141 q 481 -281 498 -245 q 442 -341 464 -317 q 406 -378 420 -366 l 338 -437 z "},"ĸ":{"ha":781,"x_min":62,"x_max":789,"o":"m 62 0 l 62 734 l 304 734 l 304 448 l 358 448 l 289 411 l 499 734 l 779 734 l 461 313 l 461 453 l 789 0 l 510 0 l 286 345 l 358 308 l 304 308 l 304 0 l 62 0 z "},"l":{"ha":781,"x_min":155,"x_max":716,"o":"m 473 -11 q 308 27 380 -11 q 195 134 236 66 q 155 292 155 202 l 155 1044 l 396 1044 l 396 292 q 430 221 396 248 q 514 194 463 194 q 577 205 545 194 q 636 239 610 216 l 716 49 q 600 5 667 22 q 473 -11 534 -11 z "},"ĺ":{"ha":781,"x_min":155,"x_max":716,"o":"m 473 -11 q 308 27 380 -11 q 195 134 236 66 q 155 292 155 202 l 155 1044 l 396 1044 l 396 292 q 430 221 396 248 q 514 194 463 194 q 577 205 545 194 q 636 239 610 216 l 716 49 q 600 5 667 22 q 473 -11 534 -11 m 274 1092 l 175 1176 l 377 1439 l 503 1312 l 274 1092 z "},"ľ":{"ha":781,"x_min":155,"x_max":718,"o":"m 473 -11 q 308 27 380 -11 q 195 134 236 66 q 155 292 155 202 l 155 1044 l 396 1044 l 396 292 q 430 221 396 248 q 514 194 463 194 q 577 205 545 194 q 636 239 610 216 l 716 49 q 600 5 667 22 q 473 -11 534 -11 m 528 686 l 529 1044 l 718 1044 l 692 686 l 528 686 z "},"ļ":{"ha":781,"x_min":155,"x_max":716,"o":"m 473 -11 q 308 27 380 -11 q 195 134 236 66 q 155 292 155 202 l 155 1044 l 396 1044 l 396 292 q 430 221 396 248 q 514 194 463 194 q 577 205 545 194 q 636 239 610 216 l 716 49 q 600 5 667 22 q 473 -11 534 -11 m 362 -437 l 319 -378 l 384 -328 q 409 -303 393 -320 q 436 -269 424 -287 q 448 -236 448 -250 l 473 -236 q 460 -269 473 -254 q 419 -283 448 -283 q 354 -256 387 -283 q 321 -183 321 -229 q 352 -113 321 -139 q 419 -87 382 -87 q 492 -114 461 -87 q 522 -198 522 -141 q 505 -281 522 -245 q 467 -341 488 -317 q 430 -378 445 -366 l 362 -437 z "},"ŀ":{"ha":781,"x_min":155,"x_max":825,"o":"m 473 -11 q 308 27 380 -11 q 195 134 236 66 q 155 292 155 202 l 155 1044 l 396 1044 l 396 292 q 430 221 396 248 q 514 194 463 194 q 577 205 545 194 q 636 239 610 216 l 716 49 q 600 5 667 22 q 473 -11 534 -11 m 681 363 q 581 405 621 363 q 540 506 540 446 q 581 607 540 566 q 681 648 621 648 q 783 607 742 648 q 825 506 825 566 q 783 405 825 446 q 681 363 742 363 z "},"ḷ":{"ha":781,"x_min":155,"x_max":716,"o":"m 473 -11 q 308 27 380 -11 q 195 134 236 66 q 155 292 155 202 l 155 1044 l 396 1044 l 396 292 q 430 221 396 248 q 514 194 463 194 q 577 205 545 194 q 636 239 610 216 l 716 49 q 600 5 667 22 q 473 -11 534 -11 m 420 -357 q 319 -315 361 -357 q 278 -214 278 -274 q 319 -113 278 -153 q 420 -72 361 -72 q 522 -113 481 -72 q 563 -214 563 -153 q 522 -315 563 -274 q 420 -357 481 -357 z "},"ḹ":{"ha":781,"x_min":-14,"x_max":716,"o":"m 473 -11 q 308 27 380 -11 q 195 134 236 66 q 155 292 155 202 l 155 1044 l 396 1044 l 396 292 q 430 221 396 248 q 514 194 463 194 q 577 205 545 194 q 636 239 610 216 l 716 49 q 600 5 667 22 q 473 -11 534 -11 m 420 -357 q 319 -315 361 -357 q 278 -214 278 -274 q 319 -113 278 -153 q 420 -72 361 -72 q 522 -113 481 -72 q 563 -214 563 -153 q 522 -315 563 -274 q 420 -357 481 -357 m -14 1154 l -14 1298 l 562 1298 l 562 1154 l -14 1154 z "},"ǉ":{"ha":781,"x_min":102,"x_max":749,"o":"m 495 -296 q 400 -281 448 -296 q 312 -239 352 -266 l 369 -68 q 430 -100 397 -87 q 487 -114 464 -114 q 532 -93 517 -114 q 548 -38 548 -71 l 548 732 l 727 732 l 727 -38 q 663 -226 727 -156 q 495 -296 599 -296 m 312 -11 q 161 50 220 -11 q 102 210 102 110 l 102 1044 l 281 1044 l 281 232 q 295 198 281 211 q 332 184 310 184 q 359 189 345 184 q 388 201 373 193 l 444 23 q 374 -3 405 5 q 312 -11 342 -11 m 412 548 l 412 732 l 727 732 l 727 548 l 412 548 m 627 814 q 538 849 572 814 q 505 941 505 884 q 538 1034 505 1000 q 627 1069 572 1069 q 716 1034 683 1069 q 749 941 749 1000 q 716 849 749 884 q 627 814 683 814 z "},"ḻ":{"ha":781,"x_min":133,"x_max":716,"o":"m 473 -11 q 308 27 380 -11 q 195 134 236 66 q 155 292 155 202 l 155 1044 l 396 1044 l 396 292 q 430 221 396 248 q 514 194 463 194 q 577 205 545 194 q 636 239 610 216 l 716 49 q 600 5 667 22 q 473 -11 534 -11 m 133 -289 l 133 -145 l 708 -145 l 708 -289 l 133 -289 z "},"ł":{"ha":781,"x_min":5,"x_max":716,"o":"m 58 380 l 5 507 l 180 597 l 366 684 l 494 760 l 545 635 l 366 534 l 180 448 l 58 380 m 473 -11 q 308 27 380 -11 q 195 134 236 66 q 155 292 155 202 l 155 1044 l 396 1044 l 396 292 q 430 221 396 248 q 514 194 463 194 q 577 205 545 194 q 636 239 610 216 l 716 49 q 600 5 667 22 q 473 -11 534 -11 z "},"m":{"ha":781,"x_min":43,"x_max":743,"o":"m 43 0 l 43 732 l 216 732 l 216 647 l 239 647 l 205 616 q 259 710 224 677 q 343 743 294 743 q 425 711 391 743 q 465 631 458 679 l 448 656 l 473 656 l 450 631 q 507 712 466 681 q 605 743 547 743 q 686 719 657 743 q 726 661 714 695 q 741 594 739 627 q 743 545 743 562 l 743 0 l 544 0 l 544 517 q 537 556 544 541 q 510 571 530 571 q 483 557 493 571 q 473 517 473 543 l 473 0 l 313 0 l 313 517 q 306 557 313 543 q 279 571 298 571 q 253 557 262 571 q 243 515 243 543 l 243 0 l 43 0 z "},"ṃ":{"ha":781,"x_min":43,"x_max":743,"o":"m 43 0 l 43 732 l 216 732 l 216 647 l 239 647 l 205 616 q 259 710 224 677 q 343 743 294 743 q 425 711 391 743 q 465 631 458 679 l 448 656 l 473 656 l 450 631 q 507 712 466 681 q 605 743 547 743 q 686 719 657 743 q 726 661 714 695 q 741 594 739 627 q 743 545 743 562 l 743 0 l 544 0 l 544 517 q 537 556 544 541 q 510 571 530 571 q 483 557 493 571 q 473 517 473 543 l 473 0 l 313 0 l 313 517 q 306 557 313 543 q 279 571 298 571 q 253 557 262 571 q 243 515 243 543 l 243 0 l 43 0 m 399 -357 q 298 -315 339 -357 q 256 -214 256 -274 q 298 -113 256 -153 q 399 -72 339 -72 q 500 -113 460 -72 q 541 -214 541 -153 q 500 -315 541 -274 q 399 -357 460 -357 z "}}}
